<svg width="301" height="276" viewBox="0 0 301 276" fill="none" xmlns="http://www.w3.org/2000/svg">
<g clip-path="url(#clip0_3_246)">
<path d="M220.247 15.1835C213.765 17.4588 207.283 19.7341 199.599 22.4589C201.889 24.3155 203.39 25.6496 205.256 26.7727C243.385 51.4625 259.321 92.1445 248.326 136.393C241.085 164.782 224.56 186.793 203.041 206.063C178.917 227.572 150.036 237.888 118.469 241.442C102.214 243.247 86.7653 239.696 71.825 233.65C67.9384 231.982 64.2344 230.208 60.4434 227.017C62.9058 227.063 65.6277 226.714 67.6769 227.731C118.762 250.81 191.216 221.449 224.706 167.636C237.884 146.579 243.559 123.496 240.711 98.7318C237.314 69.6392 215.429 41.4391 188.339 31.6494C189.815 41.8008 198.879 50.7497 193.373 62.7317C186.962 50.7837 181.003 40.0414 175.334 29.3772C173.505 25.7872 173.744 21.9815 177.562 20.9997C190.584 17.3937 203.635 14.2599 216.61 11.4151C217.446 11.1765 218.765 12.616 219.842 13.2165C220.237 13.4778 220.295 14.4224 220.247 15.1835Z" fill="#ef3d43"/>
</g>
<defs>
<clipPath id="clip0_3_246">
<rect width="245" height="176" fill="white" transform="translate(300.588 152.96) rotate(150)"/>
</clipPath>
</defs>
</svg>
