<?xml version="1.0" encoding="UTF-8"?>
<svg width="359px" height="205px" viewBox="0 0 359 205" version="1.1" xmlns="http://www.w3.org/2000/svg" xmlns:xlink="http://www.w3.org/1999/xlink">
    <title>Group 9</title>
    <defs>
        <polygon id="path-1" points="134.7459 0 448.7019 206.446 313.9559 411.3633 5.32907052e-15 204.917"></polygon>
    </defs>
    <g id="Mockups" stroke="none" stroke-width="1" fill="none" fill-rule="evenodd">
        <g id="Home" transform="translate(-86.000000, -6176.000000)">
            <g id="Group-7" transform="translate(0.000000, 6067.000000)">
                <g id="Group-9" transform="translate(224.350950, 205.681650) scale(-1, 1) translate(-224.350950, -205.681650) translate(0.000000, 0.000000)">
                    <mask id="mask-2" fill="white">
                        <use xlink:href="#path-1"></use>
                    </mask>
                    <g id="Clip-2"></g>
                    <path d="M187.1049,161.259 C174.2909,160.893 169.1219,153.558 161.4089,144.675 C160.3519,143.167 159.1499,141.786 157.8009,140.533 C156.4519,139.28 154.9869,138.182 153.4049,137.239 C151.8239,136.296 150.1609,135.529 148.4179,134.938 C146.6739,134.347 144.8869,133.945 143.0579,133.733 C135.9579,134.518 129.3279,136.718 123.1659,140.333 C120.1339,141.714 117.1029,143.094 114.2159,144.445 C112.6629,145.14 111.0389,145.425 109.3429,145.302 C108.6369,144.877 107.8879,144.78 107.0969,145.012 C103.8745,142.536 100.4879,140.309 96.9373,138.331 C95.7865,137.544 94.5708,136.873 93.2902,136.321 C92.0096,135.769 90.6879,135.344 89.325,135.048 C87.9621,134.751 86.5835,134.588 85.189,134.559 C83.7945,134.53 82.4101,134.634 81.0358,134.873 C74.64,136.155 68.6322,138.452 63.0124,141.765 C59.0177,144.331 54.7004,146.116 50.0605,147.119 C48.6301,146.944 47.2574,146.562 45.9422,145.973 C45.6906,145.842 45.4509,145.861 45.2234,146.031 C44.9958,146.201 44.9088,146.425 44.9624,146.704 C43.3604,146.265 41.9035,145.536 40.5916,144.517 C40.429,144.41 40.2525,144.376 40.0619,144.416 C39.8714,144.455 39.7227,144.556 39.6157,144.719 C39.5088,144.881 39.475,145.058 39.5143,145.248 C39.5537,145.439 39.6546,145.588 39.8172,145.695 C49.4254,154.449 58.2489,151.004 69.4395,146.429 C76.2838,143.619 85.1705,141.028 91.6849,145.749 C95.1309,149.091 98.9651,151.904 103.1875,154.188 C99.0201,156.991 95.7177,160.588 93.2802,164.98 C92.8213,165.678 93.9114,166.395 94.5011,165.783 C95.1758,165.106 95.886,164.47 96.6318,163.872 C96.6318,163.872 96.8498,164.016 97.1091,163.811 C105.1319,159.59 114.6649,165.609 123.0759,165.641 C123.5349,165.64 123.9629,165.527 124.3619,165.3 C124.9079,165.461 125.4539,165.46 125.9999,165.296 C126.5449,165.133 127.0019,164.833 127.3689,164.398 C127.7369,163.963 127.9549,163.462 128.0249,162.897 C128.0949,162.332 128.0039,161.793 127.7539,161.282 C126.5989,159.479 125.2099,157.879 123.5869,156.482 C121.9649,155.086 120.1759,153.95 118.2209,153.077 C124.2729,150.808 130.1129,147.151 135.8439,144.609 C136.8719,143.971 137.9599,143.463 139.1079,143.085 C140.2569,142.706 141.4329,142.468 142.6379,142.369 C143.8429,142.271 145.0429,142.315 146.2379,142.502 C147.4319,142.69 148.5879,143.014 149.7049,143.477 C155.0169,146.449 159.6239,150.27 163.5279,154.94 C170.0979,161.572 178.0599,166.37 187.3449,162.604 C187.5299,162.571 187.6769,162.477 187.7849,162.322 C187.8919,162.167 187.9299,161.997 187.8959,161.811 C187.8629,161.626 187.7699,161.479 187.6149,161.371 C187.4609,161.264 187.2899,161.226 187.1049,161.259 Z M106.9029,158.13 L107.5679,157.88 L108.1459,157.76 L107.9449,158.066 L106.9029,158.13 Z" id="Fill-1" fill="#DC3C41" mask="url(#mask-2)"></path>
                    <path d="M233.4919,237.1842 C231.0199,230.6596 227.3029,224.9457 222.3409,220.042 C220.9749,218.992 219.5099,218.108 217.9429,217.391 C216.3769,216.674 214.7499,216.142 213.0619,215.795 C211.3749,215.449 209.6699,215.296 207.9469,215.338 C206.2249,215.38 204.5289,215.615 202.8599,216.042 C199.3169,216.587 195.6309,217.537 192.2329,218.051 C188.1639,218.239 184.1089,218.073 180.0699,217.551 C171.0989,213.526 163.0089,206.832 153.0049,206.752 C137.9789,206.618 128.7659,222.0531 113.8719,222.3813 C112.7139,222.4323 112.7539,224.0825 113.9699,224.1325 C127.6809,224.4635 137.8299,215.393 150.8899,213.484 C157.7749,212.512 162.9399,216.721 167.9289,220.6266 C169.1369,221.5755 170.4159,222.4166 171.7659,223.1498 C169.2109,224.2812 166.5099,225.2542 163.9409,226.5015 C161.3719,227.7488 163.4659,231.6876 165.8919,230.6585 C168.3179,229.6293 170.7589,228.8606 173.2299,228.0483 C174.4529,230.1351 176.1659,231.678 178.3679,232.6769 C182.4239,235.3435 186.7219,237.5452 190.6909,240.3427 C193.6999,242.3211 198.6179,239.3068 195.9909,235.8926 C193.3639,232.4784 191.5219,229.5802 189.1159,226.6858 C195.6849,226.1944 202.8319,223.2091 208.4029,222.811 C209.9709,222.7248 211.5229,222.8515 213.0559,223.191 C214.5899,223.5306 216.0499,224.0705 217.4349,224.8107 C218.8209,225.551 220.0809,226.4643 221.2149,227.5505 C222.3499,228.6367 223.3179,229.8558 224.1179,231.2077 C226.0579,233.6708 231.1169,244.12 234.4929,244.5903 C234.3029,244.5516 234.1269,244.5857 233.9649,244.6928 C233.8029,244.7999 233.7029,244.9485 233.6639,245.1386 C233.6249,245.3288 233.6589,245.5048 233.7659,245.6666 C233.8729,245.8285 234.0219,245.9288 234.2119,245.9675 L234.5169,246.1683 C234.7959,246.2334 235.0319,246.1594 235.2249,245.9465 C236.6889,243.9101 234.1689,239.004 233.4919,237.1842 Z" id="Fill-3" fill="#DC3C41" mask="url(#mask-2)"></path>
                    <path d="M271.1209,196.011 C266.7579,195.142 264.6219,189.177 261.1189,186.811 C259.9739,186.066 258.7589,185.461 257.4749,184.996 C256.1899,184.532 254.8699,184.219 253.5129,184.058 C252.1569,183.897 250.7989,183.893 249.4419,184.045 C248.0839,184.197 246.7609,184.501 245.4739,184.957 C244.1509,183.267 242.5489,181.905 240.6669,180.874 C238.7839,179.842 236.7749,179.224 234.6379,179.019 C228.6309,179.657 222.7659,180.945 217.0439,182.883 C216.0319,183.092 216.3469,184.799 217.3739,184.662 C226.0519,183.433 234.5779,181.105 241.0189,188.027 C240.6209,188.02 240.2249,188.051 239.8329,188.121 C239.3689,188.293 238.9869,188.575 238.6869,188.968 C238.3869,189.361 238.2149,189.804 238.1719,190.296 C238.1289,190.789 238.2199,191.255 238.4469,191.694 C238.6739,192.133 239.0009,192.478 239.4269,192.728 C241.5179,193.728 246.9039,196.27 247.5299,192.183 C247.6039,191.653 247.5479,191.137 247.3619,190.635 C249.0099,190.407 250.6879,190.136 252.4099,190.081 C255.2449,190.231 257.8179,191.132 260.1279,192.782 C261.9599,193.986 263.7469,195.162 265.7069,196.076 C267.4179,196.556 269.1609,196.786 270.9369,196.766 C271.5029,196.95 271.6719,196.124 271.1209,196.011 Z M242.1189,192.623 C242.1579,192.87 242.2319,193.106 242.3409,193.331 L242.1189,192.623 Z" id="Fill-4" fill="#DC3C41" opacity="0.398739769" mask="url(#mask-2)"></path>
                    <path d="M63.433,207.521 C58.9496,203.841 53.9056,201.253 48.3011,199.758 C45.6045,199.399 42.9275,199.51 40.2698,200.092 C37.6122,200.674 35.1331,201.691 32.8327,203.144 C24.5478,197.696 13.4479,202.894 5.1327,206.61 C4.9135,206.682 4.7517,206.821 4.6472,207.026 C4.5427,207.232 4.5261,207.444 4.5974,207.663 C4.6686,207.882 4.8069,208.044 5.0122,208.149 C5.2175,208.254 5.4298,208.271 5.6491,208.2 C9.8705,207.289 13.8852,205.743 18.0618,204.615 C19.0927,204.377 20.137,204.25 21.1949,204.234 C22.2527,204.219 23.3003,204.315 24.3375,204.523 C25.3747,204.731 26.3784,205.046 27.3483,205.468 C28.3183,205.891 29.2328,206.41 30.0918,207.028 L29.6592,207.306 C28.7961,207.87 28.188,208.636 27.835,209.605 C26.9286,210.508 27.3315,212.46 28.8208,212.19 C29.4132,212.58 30.0458,212.663 30.7187,212.438 L33.0158,211.7 C34.4916,213.92 38.8104,212.386 37.6628,209.382 C37.3927,208.429 36.838,207.689 35.9988,207.163 C37.8535,205.967 39.8559,205.121 42.0059,204.625 C44.156,204.128 46.3264,204.011 48.5171,204.273 C53.2871,205.425 57.9099,207.007 62.3855,209.019 C63.2851,209.361 64.3923,208.152 63.433,207.521 Z" id="Fill-5" fill="#DC3C41" opacity="0.495233445" mask="url(#mask-2)"></path>
                    <path d="M361.1439,312.8142 C362.2279,303.0926 365.2749,290.1007 356.6899,283.0188 C348.1059,275.9368 336.6889,283.7999 327.4299,280.0233 C326.3699,277.2035 324.9579,274.5726 323.1939,272.1304 C321.4299,269.6883 319.3769,267.5206 317.0339,265.6273 C307.7459,259.5199 294.8959,264.8153 285.4129,267.0773 C284.4739,267.2716 284.8869,268.543 285.6979,268.6391 C293.3299,269.0964 309.5279,266.6894 314.8099,273.4742 C316.9389,277.5364 319.3269,281.4396 321.9759,285.1838 L322.3239,285.4132 C319.8189,284.7084 317.2649,284.3313 314.6629,284.2819 C312.0609,284.2326 309.4939,284.5125 306.9639,285.1218 C305.5619,285.4494 305.6779,287.8375 307.0969,287.9586 C316.4249,288.7813 325.1409,291.3887 329.6829,300.2487 C330.0119,300.8303 330.4669,301.2852 331.0479,301.6134 C331.6299,301.9416 332.2549,302.0959 332.9229,302.0764 C333.5899,302.0569 334.2049,301.8663 334.7669,301.5047 C335.3289,301.1431 335.7569,300.6624 336.0509,300.0626 C337.5619,296.2452 336.5269,295.0647 334.4239,291.9945 C334.0749,291.421 333.5979,290.9915 332.9909,290.7059 C332.3839,290.4203 331.7479,290.3262 331.0839,290.4236 L330.4299,289.9935 C334.7329,290.0006 338.9759,289.5002 343.1599,288.4922 C358.0969,285.8183 357.2029,302.85 359.4249,313.2452 C359.4839,313.4824 359.6189,313.6638 359.8289,313.7894 C360.0389,313.915 360.2619,313.948 360.4989,313.8886 C360.7369,313.8291 360.9179,313.6945 361.0439,313.4848 C361.1699,313.2751 361.2039,313.0516 361.1449,312.8142 L361.1439,312.8142 Z M329.5649,297.4842 L329.0869,297.5452 L329.5649,297.4842 Z" id="Fill-6" fill="#DC3C41" opacity="0.795084635" mask="url(#mask-2)"></path>
                    <path d="M352.9719,245.8348 C353.1389,244.3494 353.1119,242.8675 352.8919,241.3891 C352.6709,239.9107 352.2639,238.4858 351.6699,237.1142 C351.0759,235.7426 350.3159,234.4707 349.3889,233.2985 C348.4619,232.1262 347.3989,231.0931 346.2019,230.1992 C343.5489,228.8164 340.7599,227.8102 337.8349,227.1805 C334.9099,226.5508 331.9539,226.3203 328.9669,226.4888 C328.0959,225.0549 326.9989,223.8222 325.6759,222.7907 C324.3529,221.7593 322.8899,220.9961 321.2869,220.501 C319.2079,219.938 317.0959,219.758 314.9509,219.961 C312.8069,220.164 310.7659,220.7381 308.8299,221.6824 C308.6919,221.7719 308.5949,221.8943 308.5389,222.0495 C308.4829,222.2048 308.4809,222.3609 308.5309,222.518 C308.5809,222.675 308.6729,222.8008 308.8079,222.8951 C308.9439,222.9895 309.0929,223.0331 309.2579,223.026 C310.4579,222.8355 311.6629,222.7853 312.8739,222.8752 C314.0849,222.9652 315.2689,223.193 316.4269,223.5587 C317.5849,223.9243 318.6859,224.418 319.7289,225.0398 C320.7719,225.6616 321.7299,226.3948 322.6019,227.2395 C322.1629,227.2785 321.7699,227.4334 321.4219,227.7041 C321.0739,227.9747 320.8279,228.318 320.6819,228.734 C320.5369,229.1499 320.5149,229.5721 320.6179,230.0005 C320.7209,230.4289 320.9319,230.7952 321.2509,231.0993 L324.9039,234.3766 C325.6889,234.8927 325.9719,236.078 326.7709,236.6665 C327.1039,236.9501 327.4769,237.1627 327.8909,237.3043 C328.3039,237.4459 328.7289,237.5065 329.1659,237.4862 C329.6029,237.4659 330.0199,237.3661 330.4189,237.1867 C330.8179,237.0074 331.1699,236.7611 331.4749,236.4478 C331.8619,236.0069 332.1099,235.4984 332.2209,234.9225 C332.3309,234.3465 332.2879,233.7822 332.0919,233.2297 C334.4769,233.3012 336.8479,233.5271 339.2039,233.9075 C345.9859,235.181 348.6219,240.1008 351.2359,246.0053 C351.2589,246.2447 351.3639,246.4407 351.5499,246.5932 C351.7359,246.7458 351.9489,246.8103 352.1879,246.7868 C352.4279,246.7632 352.6239,246.6586 352.7769,246.4728 C352.9299,246.287 352.9949,246.0743 352.9719,245.8348 Z" id="Fill-7" fill="#DC3C41" opacity="0.496186756" mask="url(#mask-2)"></path>
                    <path d="M351.6049,160.526 C345.3429,149.723 338.9569,137.776 329.3659,129.47 C322.6149,123.781 310.0309,120.88 303.3719,127.872 C300.3989,124.604 297.0669,121.757 293.3749,119.329 C289.6839,116.902 285.7489,114.971 281.5699,113.536 C268.8209,109.652 253.7799,118.943 243.3549,109.151 C243.1939,109.04 243.0149,108.988 242.8189,108.995 C242.6229,109.002 242.4489,109.067 242.2959,109.19 C242.1429,109.313 242.0419,109.469 241.9929,109.659 C241.9439,109.849 241.9559,110.035 242.0299,110.216 C248.3979,121.714 260.6439,119.332 271.9119,120.244 C276.8189,120.445 281.3819,121.8 285.6029,124.31 L292.1429,128.611 C290.1949,129.579 288.2179,130.591 286.3569,131.617 C285.9079,131.903 285.5609,132.282 285.3159,132.755 C285.0709,133.227 284.9599,133.73 284.9849,134.261 C285.0089,134.793 285.1639,135.283 285.4519,135.731 C285.7389,136.179 286.1189,136.525 286.5919,136.769 C291.3249,139.07 296.4889,140.716 301.1929,143.059 C301.8369,143.525 302.5519,143.703 303.3389,143.596 L304.9959,144.685 C305.4969,145.101 306.0729,145.337 306.7209,145.394 C307.3699,145.45 307.9779,145.317 308.5439,144.995 C309.1099,144.673 309.5339,144.218 309.8159,143.631 C310.0989,143.044 310.1889,142.429 310.0879,141.786 C309.9749,140.556 309.6609,139.38 309.1449,138.258 C308.6289,137.136 307.9409,136.132 307.0799,135.247 C311.1519,133.613 314.3059,131.001 319.1959,132.779 C323.7449,134.971 327.6479,137.995 330.9049,141.853 C336.9669,148.401 342.4329,156.807 350.3259,161.996 C351.1539,162.541 352.0299,161.305 351.6049,160.526 Z" id="Fill-8" fill="#DC3C41" opacity="0.903064546" mask="url(#mask-2)"></path>
                </g>
            </g>
        </g>
    </g>
</svg>