<?xml version="1.0" encoding="UTF-8" standalone="no"?>
<!DOCTYPE svg PUBLIC "-//W3C//DTD SVG 1.1//EN" "http://www.w3.org/Graphics/SVG/1.1/DTD/svg11.dtd">
<svg width="100%" height="100%" viewBox="0 0 798 134" version="1.1" xmlns="http://www.w3.org/2000/svg" xmlns:xlink="http://www.w3.org/1999/xlink" xml:space="preserve" xmlns:serif="http://www.serif.com/" style="fill-rule:evenodd;clip-rule:evenodd;stroke-linejoin:round;stroke-miterlimit:2;">
    <g transform="matrix(1,0,0,1,-10.3083,-9.43083)">
        <g transform="matrix(4.16667,0,0,4.16667,0,0)">
            <g transform="matrix(0.24,0,0,0.24,0,0)">
                <path d="M40.021,75.623L71.346,30.531L56.633,9.431L10.308,76.089L56.754,142.739L71.808,121.081L40.021,75.623ZM79.01,110.722L103.089,76.093L78.906,41.38L54.793,76.093L79.01,110.722ZM258.68,108.311C257.913,107.09 257.73,105.436 257.75,103.086L257.671,103.086C255.334,107.944 249.05,110.09 244.005,110.09C231.242,110.09 222.255,99.465 222.255,87.148C222.255,74.852 231.075,64.307 243.838,64.307C248.796,64.307 254.005,66.144 257.196,69.915L257.196,66.123L272.484,66.123L272.484,96.515C272.505,96.515 272.521,96.515 272.538,96.523L272.538,97.932C272.538,102.523 272.934,105.836 275.23,108.311L258.68,108.311ZM695.964,87.215C695.964,74.39 687.151,64.34 669.264,64.34C651.393,64.34 642.585,74.39 642.585,87.215C642.585,100.04 651.393,110.082 669.264,110.082C687.151,110.082 695.964,100.04 695.964,87.215ZM790.127,44.256L807.348,44.256L807.348,108.26L791.293,108.26L791.293,103.248L791.123,103.248C788.427,107.627 782.96,110.052 776.61,110.052C766.839,110.052 755.902,101.635 755.902,87.735C755.902,77.785 760.473,64.602 776.156,64.323C781.252,64.323 786.368,65.406 790.127,69.264L790.127,44.256ZM310.37,81.014C310.008,79.135 309.378,77.606 308.391,76.523C307.32,75.448 305.887,74.902 303.908,74.902C299.424,74.902 296.562,78.948 296.562,86.564C296.562,97.502 300.324,99.481 304.095,99.481C309.287,99.481 310.541,96.518 310.916,92.848L328.112,92.848C327.666,99.302 324.62,103.598 320.137,106.298C315.662,108.985 309.737,110.052 303.724,110.052C289.562,110.052 278.445,101.814 278.445,86.923C278.445,76.343 287.053,64.323 304.095,64.323C316.099,64.323 326.324,70.427 328.112,81.014L310.37,81.014ZM538.865,108.246C538.111,107.017 537.915,105.379 537.94,103.013L537.874,103.013C535.515,107.888 529.24,110.017 524.203,110.017C511.432,110.017 502.44,99.396 502.44,87.083C502.44,74.796 511.27,64.242 524.032,64.242C528.986,64.242 534.203,66.079 537.386,69.85L537.386,66.063L552.678,66.063L552.678,96.45C552.695,96.45 552.711,96.45 552.728,96.467L552.728,97.858C552.728,102.45 553.132,105.771 555.42,108.246L538.865,108.246ZM496.463,67.075L479.242,67.075L479.242,108.263L496.463,108.263L496.463,67.075ZM702.328,108.26L702.328,66.131L719.269,66.131L719.269,73.298L719.44,73.298C721.957,66.302 728.115,64.323 734.328,64.323C741.423,64.323 749.219,69.173 749.578,79.393L749.578,108.26L732.365,108.26L732.365,83.073C732.365,78.668 730.478,76.702 726.523,76.702C722.394,76.702 719.54,80.298 719.54,84.235L719.54,108.26L702.328,108.26ZM334.206,108.26L334.206,44.256L351.419,44.256L351.419,78.498L362.544,66.131L383.156,66.131L368.723,80.835L384.685,108.26L365.319,108.26L356.71,91.764L351.327,96.973L351.327,108.26L334.206,108.26ZM407.978,108.26L435.498,108.26C460.165,108.26 473.34,98.398 473.34,76.243C473.34,54.11 460.165,44.256 435.498,44.256L407.978,44.256L407.978,108.26ZM133.225,108.26L166.759,108.26C188.546,108.26 193.038,98.039 193.038,89.973C193.038,80.739 187.471,75.364 178.596,74.193L178.596,74.014C186.763,71.868 190.246,67.831 190.246,59.489C190.246,49.993 182.63,44.256 167.034,44.256L133.225,44.256L133.225,108.26ZM562.475,108.26L562.475,66.131L578.98,66.131L578.98,72.21L579.159,72.21C582.105,66.131 588.396,64.323 592.7,64.323C598.609,64.323 602.921,66.839 605.525,71.868C608.121,66.66 613.859,64.323 618.888,64.323C628.025,64.323 636.18,67.927 636.18,82.439L636.18,108.26L618.971,108.26L618.971,82.439C618.971,77.968 616.275,76.702 613.5,76.702C610.717,76.702 607.934,77.968 607.934,82.439L607.934,108.26L590.721,108.26L590.721,82.439C590.721,77.968 588.038,76.702 585.255,76.702C582.48,76.702 579.705,77.968 579.705,82.439L579.705,108.26L562.475,108.26ZM216.433,44.254L199.221,44.254L199.221,108.258L216.433,108.258L216.433,44.254ZM660.735,87.215C660.735,78.507 663.793,74.211 669.264,74.211C674.747,74.211 677.81,78.507 677.81,87.215C677.81,95.915 674.747,100.219 669.264,100.219C663.793,100.219 660.735,95.915 660.735,87.215ZM781.698,75.627C777.052,75.627 773.723,79.393 773.723,87.198C773.723,94.993 777.052,98.756 781.698,98.756C786.443,98.756 789.852,94.993 789.852,87.198C789.852,79.393 786.443,75.627 781.698,75.627ZM249.034,75.594C244.284,75.594 240.963,79.336 240.963,87.119C240.963,94.89 244.284,98.64 249.034,98.64C253.788,98.64 257.196,94.89 257.196,87.119C257.196,79.336 253.788,75.594 249.034,75.594ZM529.224,75.521C524.47,75.521 521.157,79.287 521.157,87.054C521.157,94.833 524.47,98.558 529.224,98.558C533.978,98.558 537.386,94.833 537.386,87.054C537.386,79.287 533.978,75.521 529.224,75.521ZM166.23,81.552C172.325,81.552 174.746,83.164 174.746,88.543C174.746,93.385 172.23,95.539 162.459,95.539L151.525,95.539L151.525,81.552L166.23,81.552ZM426.269,57.339L436.582,57.339C445.807,57.339 453.978,61.46 453.978,76.243C453.978,87.998 448.778,95.173 436.582,95.173L426.269,95.173L426.269,57.339ZM163.534,56.964C170.263,56.964 171.959,59.31 171.959,62.897C171.959,66.839 170.263,69.173 163.534,69.173L151.525,69.173L151.525,56.964L163.534,56.964ZM496.463,44.533L479.242,44.533L479.242,59.971L496.463,59.971L496.463,44.533ZM772.989,53.525C768.714,53.525 764.972,49.958 764.972,45.429C764.972,40.916 768.714,37.354 772.989,37.354C777.243,37.354 780.98,40.916 780.98,45.429C780.98,49.958 777.222,53.525 772.989,53.525ZM772.989,38.22C769.01,38.22 765.997,41.491 765.997,45.429C765.997,49.387 769.01,52.658 772.989,52.658C776.964,52.658 779.964,49.387 779.964,45.429C779.964,41.491 776.947,38.22 772.989,38.22ZM775.214,50L772.36,46.1L770.939,46.1L770.939,50L769.997,50L769.997,40.9L772.755,40.9C775.035,40.9 776.139,41.725 776.139,43.366C776.139,44.783 774.901,45.941 773.539,46.02L776.493,50L775.214,50ZM772.518,41.766L770.939,41.766L770.939,45.316L772.714,45.316C774.289,45.316 775.118,44.7 775.118,43.404C775.118,42.025 773.76,41.766 772.518,41.766Z" style="fill:rgb(138,182,200);fill-rule:nonzero;"/>
            </g>
        </g>
    </g>
</svg>
