<?xml version="1.0" encoding="UTF-8"?>
<svg width="58px" height="12px" viewBox="0 0 58 12" version="1.1" xmlns="http://www.w3.org/2000/svg" xmlns:xlink="http://www.w3.org/1999/xlink">
    <title>Shape</title>
    <g id="Page-1" stroke="none" stroke-width="1" fill="none" fill-rule="evenodd">
        <path d="M14.1566221,3.84921021 C13.7637303,3.28572296 13.409842,2.93311057 12.9238153,2.64204131 C11.7515188,1.93930741 10.8239976,2.25923451 10.5696233,2.33037667 C10.0742406,2.46883354 9.48037667,2.96427704 9.11561361,3.43001215 C8.9373633,3.65656136 8.56500608,3.85528554 8.02606318,4.06336574 C7.56385176,4.24234508 6.38043742,4.65170109 6.05334143,4.76385176 C5.76834751,4.86154313 5.69592953,5.17314702 6.39459295,5.22654921 C7.09374241,5.28074119 7.71470231,5.03390036 8.68730255,5.15643985 C9.22065614,5.22326853 9.83626974,5.35972053 10.2273998,5.52982989 C10.2273998,5.52982989 10.690887,5.13845687 11.3024301,4.37752126 C11.7213852,3.85735115 12.1201094,2.89258809 12.7828068,3.2890644 C13.4414945,3.68469016 12.9860875,4.61318348 12.663548,5.05394897 C12.1671932,5.7346294 11.3915553,6.29228433 11.3915553,6.29228433 C11.6284933,6.64866343 11.7659781,6.94793439 11.8294654,7.47897934 C11.9072296,8.1244836 11.6456865,8.65024301 11.3158566,9.04720535 C11.3158566,9.04720535 11.7213852,8.0654921 10.9308627,7.0417983 C9.79933171,5.57691373 6.95783718,5.64574727 4.51227217,5.96925881 C2.81421628,6.19331713 1.37484812,6.02417983 0.884750911,4.66968408 C0.884750911,4.66968408 1.11233293,7.11956258 4.1191373,7.09319563 C6.65935601,7.07193196 8.43693803,6.57934386 9.43985419,7.9673147 C9.43985419,7.9673147 8.5164034,7.18967193 6.22399757,7.49520049 C3.83608748,7.81287971 2.98863913,7.78730255 1.75431349,6.96464156 C1.75431349,6.96464156 2.61676792,8.91148238 5.35243013,8.78948967 C6.50923451,8.73833536 7.75801944,8.7373633 8.25668287,8.94392467 C8.86925881,9.19678007 9.04447145,9.4782503 9.04447145,9.4782503 C9.04447145,9.4782503 8.25668287,9.09781288 6.8727825,9.14866343 C5.67114216,9.19222357 4.43809235,9.47800729 3.57339004,8.93377886 C3.57339004,8.93377886 4.33730255,9.88985419 6.19714459,10.1101458 C8.05722965,10.3303767 7.9718712,10.5503038 7.9718712,10.5503038 C7.9718712,10.5503038 7.67144593,10.9464763 4.88207776,10.2523694 L4.68894289,10.2035237 C5.89441069,11.3823815 7.59064399,12.0415553 9.40012151,11.8709599 C12.2980559,11.5967801 14.5006075,9.28438639 14.7542527,6.486452 C14.8684083,5.22782503 14.4274605,4.23985419 14.1566221,3.84921021 Z M54.1245443,5.20024301 L57.3493317,8.57861482 L57.3493317,5.40528554 L57.8845687,5.40528554 L57.8845687,9.87770352 L54.6603888,6.4990887 L54.6603888,9.70103281 L54.1245443,9.70103281 L54.1245443,5.20024301 Z M52.9696233,7.55315917 C52.9696233,8.82922236 51.9611179,9.79216282 50.7193196,9.79216282 C49.4769137,9.79216282 48.4690158,8.82922236 48.4690158,7.55315917 C48.4690158,6.32241798 49.4884569,5.31415553 50.7193196,5.31415553 C51.9495747,5.31415553 52.9696233,6.32241798 52.9696233,7.55315917 Z M47.1646416,9.70103281 L46.6287971,9.70103281 L46.6287971,5.40528554 L47.1646416,5.40528554 L47.1646416,9.70103281 Z M30.0893074,5.40528554 L32.3967193,5.40528554 L32.3967193,5.89507898 L30.6245443,5.89507898 L30.6245443,7.0972661 L32.3456865,7.0972661 L32.3456865,7.58730255 L30.6245443,7.58730255 L30.6245443,9.21099635 L32.3967193,9.21099635 L32.3967193,9.70103281 L30.0893074,9.70103281 L30.0893074,5.40528554 Z M18.2994532,5.89507898 L18.2994532,7.10309842 L19.7922236,7.10309842 L19.7922236,7.59289186 L18.2994532,7.59289186 L18.2994532,9.70103281 L17.7640948,9.70103281 L17.7640948,5.40528554 L19.8432564,5.40528554 L19.8432564,5.89507898 L18.2994532,5.89507898 Z M21.5,5.40528554 L23.8080194,5.40528554 L23.8080194,5.89507898 L22.0358445,5.89507898 L22.0358445,7.0972661 L23.7563791,7.0972661 L23.7563791,7.58730255 L22.0358445,7.58730255 L22.0358445,9.21099635 L23.8080194,9.21099635 L23.8080194,9.70103281 L21.5,9.70103281 L21.5,5.40528554 Z M44.1749696,9.70103281 L43.6391252,9.70103281 L43.6391252,5.89507898 L42.6196841,5.89507898 L42.6196841,5.40528554 L45.1950182,5.40528554 L45.1950182,5.89507898 L44.1749696,5.89507898 L44.1749696,9.70103281 Z M36.873633,9.70103281 L36.2241798,9.70103281 L34.9592953,7.88347509 L34.736938,7.88347509 L34.736938,9.70103281 L34.2017011,9.70103281 L34.2017011,5.40528554 L34.8511543,5.40528554 C35.2326853,5.40528554 35.6427704,5.41087485 35.9848117,5.60473876 C36.3438639,5.8153706 36.5486027,6.21986634 36.5486027,6.6299514 C36.5486027,7.24556501 36.1385176,7.7582017 35.5176185,7.83213852 L36.873633,9.70103281 Z M39.0486027,8.62417983 L38.5589307,9.70103281 L37.9829891,9.70103281 L40.0340219,5.2227825 L42.0850547,9.70103281 L41.5097205,9.70103281 L41.0194411,8.62417983 L39.0486027,8.62417983 Z M25.5668287,5.40528554 L26.4556501,5.40528554 C27.772175,5.40528554 28.8657351,6.10042527 28.8657351,7.53037667 C28.8657351,8.9945322 27.7946537,9.70103281 26.4386391,9.70103281 L25.5668287,9.70103281 L25.5668287,5.40528554 Z M52.4343864,7.55315917 C52.4343864,6.60741191 51.727825,5.8153706 50.7193196,5.8153706 C49.7108141,5.8153706 49.0042527,6.60741191 49.0042527,7.55315917 C49.0042527,8.53304982 49.7910085,9.29070474 50.7193196,9.29070474 C51.6482382,9.29070474 52.4343864,8.53304982 52.4343864,7.55315917 Z M26.1026731,9.21099635 L26.290401,9.21099635 C27.3845687,9.21099635 28.3298906,8.8009113 28.3298906,7.55315917 C28.3298906,6.29963548 27.3845687,5.89507898 26.290401,5.89507898 L26.1026731,5.89507898 L26.1026731,9.21099635 Z M40.0340219,6.39653706 L39.2709599,8.13414338 L40.7976914,8.13414338 L40.0340219,6.39653706 Z M34.736938,7.43924666 L34.9076549,7.43924666 C35.454435,7.43924666 36.0473876,7.336452 36.0473876,6.65297691 C36.0473876,5.98068044 35.4094775,5.8837181 34.8791009,5.8837181 L34.736938,5.8837181 L34.736938,7.43924666 Z M8.56245443,0.912575942 C10.6653098,0.714337789 12.6296476,1.53402187 13.9670109,2.96707169 C12.836452,1.03560146 10.6569259,-0.17162819 8.28201701,0.052673147 C5.36330498,0.329343864 3.13845687,2.67515188 2.92302552,5.50321993 C3.67867558,3.05030377 5.84829891,1.16974484 8.56245443,0.912575942 Z M23.2466586,1.78511543 L25.109356,3.73681652 L25.109356,1.90382746 L25.4185905,1.90382746 L25.4185905,4.48712029 L23.5558931,2.53566221 L23.5558931,4.38511543 L23.2466586,4.38511543 L23.2466586,1.78511543 Z M36.4191981,1.78511543 L38.282503,3.73681652 L38.282503,1.90382746 L38.5917375,1.90382746 L38.5917375,4.48712029 L36.7290401,2.53566221 L36.7290401,4.38511543 L36.4191981,4.38511543 L36.4191981,1.78511543 Z M41.9410693,3.68092345 L42.6421628,1.85121507 L43.3432564,3.68092345 L44.0376671,1.90382746 L44.373633,1.90382746 L43.3432564,4.48383961 L42.6421628,2.66379101 L41.9410693,4.48383961 L40.9113001,1.90382746 L41.2472661,1.90382746 L41.9410693,3.68092345 Z M19.4034022,2.37776428 C19.2253949,2.21980559 18.981774,2.13396112 18.7482989,2.13396112 C18.1921628,2.13396112 17.7676185,2.59823815 17.7676185,3.14781288 C17.7676185,3.69076549 18.1888214,4.15479951 18.7414338,4.15479951 C18.9854192,4.15479951 19.218712,4.0626367 19.4034022,3.89811665 L19.4034022,4.26336574 C19.2120292,4.37527339 18.9690158,4.43778858 18.7513366,4.43778858 C18.0440462,4.43778858 17.4582625,3.87503038 17.4582625,3.15765492 C17.4582625,2.42381531 18.0473269,1.85121507 18.7776428,1.85121507 C18.9951397,1.85121507 19.2150668,1.90382746 19.4034022,2.0190158 L19.4034022,2.37776428 Z M26.8134872,3.76318348 L26.5309842,4.38511543 L26.1986634,4.38511543 L27.3833536,1.79854192 L28.5680437,4.38511543 L28.235723,4.38511543 L27.9526124,3.76318348 L26.8134872,3.76318348 Z M32.4671932,4.38511543 L32.1579587,4.38511543 L32.1579587,1.90382746 L32.4671932,1.90382746 L32.4671932,4.38511543 Z M46.845079,4.10212637 L47.5984204,4.10212637 L47.5984204,4.38511543 L46.5358445,4.38511543 L46.5358445,1.90382746 L46.845079,1.90382746 L46.845079,4.10212637 Z M51.5048603,4.10212637 L52.2582017,4.10212637 L52.2582017,4.38511543 L51.1950182,4.38511543 L51.1950182,1.90382746 L51.5048603,1.90382746 L51.5048603,4.10212637 Z M54.7363305,2.18663426 L54.7363305,2.8845079 L55.5984204,2.8845079 L55.5984204,3.16755772 L54.7363305,3.16755772 L54.7363305,4.38511543 L54.4264885,4.38511543 L54.4264885,1.90382746 L55.627582,1.90382746 L55.627582,2.18663426 L54.7363305,2.18663426 Z M56.5923451,1.90382746 L57.9252734,1.90382746 L57.9252734,2.18663426 L56.9015796,2.18663426 L56.9015796,2.8809842 L57.8955043,2.8809842 L57.8955043,3.16421628 L56.9015796,3.16421628 L56.9015796,4.10212637 L57.9252734,4.10212637 L57.9252734,4.38511543 L56.5923451,4.38511543 L56.5923451,1.90382746 Z M29.3511543,1.90382746 L29.86452,1.90382746 C30.6245443,1.90382746 31.2563791,2.30534629 31.2563791,3.13134872 C31.2563791,3.97679222 30.6379101,4.38511543 29.8547995,4.38511543 L29.3511543,4.38511543 L29.3511543,1.90382746 Z M48.3784933,1.90382746 L48.8918591,1.90382746 C49.6518834,1.90382746 50.2837181,2.30534629 50.2837181,3.13134872 C50.2837181,3.97679222 49.6652491,4.38511543 48.8821385,4.38511543 L48.3784933,4.38511543 L48.3784933,1.90382746 Z M20.7126367,3.76318348 L20.4295261,4.38511543 L20.0972053,4.38511543 L21.2818955,1.79854192 L22.4665857,4.38511543 L22.1342649,4.38511543 L21.8517618,3.76318348 L20.7126367,3.76318348 Z M45.4690158,4.38511543 L45.1597813,4.38511543 L45.1597813,1.90382746 L45.4690158,1.90382746 L45.4690158,4.38511543 Z M33.8857837,3.76318348 L33.6026731,4.38511543 L33.2703524,4.38511543 L34.4550425,1.79854192 L35.6397327,4.38511543 L35.3074119,4.38511543 L35.0243013,3.76318348 L33.8857837,3.76318348 Z M53.3639125,4.38511543 L53.054678,4.38511543 L53.054678,1.90382746 L53.3639125,1.90382746 L53.3639125,4.38511543 Z M48.6877278,4.10212637 L48.7958688,4.10212637 C49.4283111,4.10212637 49.9744836,3.86518834 49.9744836,3.14422843 C49.9744836,2.42053463 49.4283111,2.18663426 48.7958688,2.18663426 L48.6877278,2.18663426 L48.6877278,4.10212637 Z M29.6603888,4.10212637 L29.7685298,4.10212637 C30.4009721,4.10212637 30.9471446,3.86518834 30.9471446,3.14422843 C30.9471446,2.42053463 30.4009721,2.18663426 29.7685298,2.18663426 L29.6603888,2.18663426 L29.6603888,4.10212637 Z M10.4567436,3.76038882 C10.3058323,3.82162819 10.1458688,3.77806804 10.0990279,3.66294046 C10.0519441,3.54775213 10.1367558,3.40571081 10.2868773,3.34398542 C10.4372418,3.28298906 10.5964156,3.32648846 10.6447752,3.44191981 C10.690887,3.55662211 10.6063183,3.6990887 10.4567436,3.76038882 Z M21.2818955,2.47648846 L20.8408262,3.48013366 L21.7229648,3.48013366 L21.2818955,2.47648846 Z M34.4550425,2.47648846 L34.0139733,3.48013366 L34.8961118,3.48013366 L34.4550425,2.47648846 Z M27.3833536,2.47648846 L26.9422843,3.48013366 L27.8238153,3.48013366 L27.3833536,2.47648846 Z" id="Shape" fill="#8AB6C8" fill-rule="nonzero"></path>
    </g>
</svg>