<?xml version="1.0" encoding="UTF-8" standalone="no"?>
<!DOCTYPE svg PUBLIC "-//W3C//DTD SVG 1.1//EN" "http://www.w3.org/Graphics/SVG/1.1/DTD/svg11.dtd">
<svg width="100%" height="100%" viewBox="0 0 1646 196" version="1.1" xmlns="http://www.w3.org/2000/svg" xmlns:xlink="http://www.w3.org/1999/xlink" xml:space="preserve" xmlns:serif="http://www.serif.com/" style="fill-rule:evenodd;clip-rule:evenodd;stroke-linejoin:round;stroke-miterlimit:2;">
    <g>
        <path d="M924.338,63.358C917.871,54.083 912.046,48.279 904.046,43.488C884.75,31.921 869.483,37.187 865.296,38.358C857.142,40.637 847.367,48.792 841.363,56.458C838.429,60.187 832.3,63.458 823.429,66.883C815.821,69.829 796.342,76.567 790.958,78.413C786.267,80.021 785.075,85.15 796.575,86.029C808.083,86.921 818.304,82.858 834.313,84.875C843.092,85.975 853.225,88.221 859.663,91.021C859.663,91.021 867.292,84.579 877.358,72.054C884.254,63.492 890.817,47.612 901.725,54.138C912.567,60.65 905.071,75.933 899.762,83.188C891.592,94.392 878.825,103.571 878.825,103.571C882.725,109.437 884.988,114.363 886.033,123.104C887.313,133.729 883.008,142.383 877.579,148.917C877.579,148.917 884.254,132.758 871.242,115.908C852.617,91.796 805.846,92.929 765.592,98.254C737.642,101.942 713.95,99.158 705.883,76.863C705.883,76.863 709.629,117.188 759.121,116.754C800.933,116.404 830.192,108.296 846.7,131.142C846.7,131.142 831.5,118.342 793.767,123.371C754.462,128.6 740.513,128.179 720.196,114.638C720.196,114.638 734.392,146.683 779.421,144.675C798.462,143.833 819.017,143.817 827.225,147.217C837.308,151.379 840.192,156.012 840.192,156.012C840.192,156.012 827.225,149.75 804.446,150.587C784.667,151.304 764.371,156.008 750.138,147.05C750.138,147.05 762.712,162.787 793.325,166.413C823.942,170.038 822.537,173.658 822.537,173.658C822.537,173.658 817.592,180.179 771.679,168.754L768.5,167.95C788.342,187.354 816.262,198.204 846.046,195.396C893.746,190.883 930,152.821 934.175,106.767C936.054,86.05 928.796,69.788 924.338,63.358ZM74.133,123.404L104.071,154.771L104.071,125.308L109.042,125.308L109.042,166.833L79.104,135.462L79.104,165.192L74.133,165.192L74.133,123.404ZM271.771,123.404L301.713,154.771L301.713,125.308L306.683,125.308L306.683,166.833L276.742,135.462L276.742,165.192L271.771,165.192L271.771,123.404ZM231.604,123.404L261.546,154.771L261.546,125.308L266.517,125.308L266.517,166.833L236.579,135.462L236.579,165.192L231.604,165.192L231.604,123.404ZM602.808,123.404L632.746,154.771L632.746,125.308L637.721,125.308L637.721,166.833L607.779,135.462L607.779,165.192L602.808,165.192L602.808,123.404ZM573.542,125.308L573.542,148.846C573.542,155.354 575.5,161.383 583.171,161.383C590.842,161.383 592.796,155.354 592.796,148.846L592.796,125.308L597.771,125.308L597.771,150.537C597.771,159.321 592.321,166.037 583.171,166.037C574.021,166.037 568.571,159.321 568.571,150.537L568.571,125.308L573.542,125.308ZM31.258,132.925C28.404,130.388 24.487,129.008 20.733,129.008C11.792,129.008 4.971,136.467 4.971,145.304C4.971,154.029 11.742,161.487 20.629,161.487C24.542,161.487 28.296,160.008 31.258,157.363L31.258,163.233C28.192,165.033 24.279,166.037 20.787,166.037C9.413,166.037 0,156.992 0,145.463C0,133.667 9.467,124.463 21.208,124.463C24.7,124.463 28.246,125.308 31.258,127.158L31.258,132.925ZM539.363,155.196L534.808,165.192L529.471,165.192L548.513,123.617L567.558,165.192L562.217,165.192L557.667,155.196L539.363,155.196ZM197.687,165.192L192.712,165.192L192.712,125.308L197.687,125.308L197.687,165.192ZM43.388,155.196L38.838,165.192L33.492,165.192L52.538,123.617L71.579,165.192L66.238,165.192L61.688,155.196L43.388,155.196ZM465.917,155.196L461.367,165.192L456.025,165.192L475.071,123.617L494.112,165.192L488.771,165.192L484.221,155.196L465.917,155.196ZM437.763,160.642L449.879,160.642L449.879,165.192L432.792,165.192L432.792,125.308L437.763,125.308L437.763,160.642ZM123.608,155.196L119.058,165.192L113.717,165.192L132.758,123.617L151.8,165.192L146.458,165.192L141.908,155.196L123.608,155.196ZM517.033,129.858L517.033,141.071L530.892,141.071L530.892,145.621L517.033,145.621L517.033,165.192L512.058,165.192L512.058,125.308L531.367,125.308L531.367,129.858L517.033,129.858ZM644.508,125.308L665.929,125.308L665.929,129.858L649.479,129.858L649.479,141.017L665.454,141.017L665.454,145.567L649.479,145.567L649.479,160.642L665.929,160.642L665.929,165.192L644.508,165.192L644.508,125.308ZM204.833,125.308L226.254,125.308L226.254,129.858L209.804,129.858L209.804,141.017L225.779,141.017L225.779,145.567L209.804,145.567L209.804,160.642L226.254,160.642L226.254,165.192L204.833,165.192L204.833,125.308ZM390.567,125.308L411.987,125.308L411.987,129.858L395.538,129.858L395.538,141.017L411.513,141.017L411.513,145.567L395.538,145.567L395.538,160.642L411.987,160.642L411.987,165.192L390.567,165.192L390.567,125.308ZM313.471,125.308L334.896,125.308L334.896,129.858L318.442,129.858L318.442,141.017L334.417,141.017L334.417,145.567L318.442,145.567L318.442,160.642L334.896,160.642L334.896,165.192L313.471,165.192L313.471,125.308ZM355.271,125.308L363.525,125.308C375.742,125.308 385.9,131.763 385.9,145.038C385.9,158.633 375.954,165.192 363.367,165.192L355.271,165.192L355.271,125.308ZM156.521,125.308L164.771,125.308C176.992,125.308 187.15,131.763 187.15,145.038C187.15,158.633 177.204,165.192 164.612,165.192L156.521,165.192L156.521,125.308ZM1582.21,85.596L1635.29,141.204L1635.29,88.971L1644.1,88.971L1644.1,162.587L1591.03,106.975L1591.03,159.679L1582.21,159.679L1582.21,85.596ZM1563.2,124.325C1563.2,145.329 1546.6,161.179 1526.16,161.179C1505.71,161.179 1489.12,145.329 1489.12,124.325C1489.12,104.067 1505.9,87.471 1526.16,87.471C1546.41,87.471 1563.2,104.067 1563.2,124.325ZM360.242,160.642L361.987,160.642C372.146,160.642 380.925,156.833 380.925,145.25C380.925,133.613 372.146,129.858 361.987,129.858L360.242,129.858L360.242,160.642ZM161.492,160.642L163.237,160.642C173.396,160.642 182.175,156.833 182.175,145.25C182.175,133.613 173.396,129.858 163.237,129.858L161.492,129.858L161.492,160.642ZM1467.65,159.679L1458.83,159.679L1458.83,88.971L1467.65,88.971L1467.65,159.679ZM1186.59,88.971L1224.57,88.971L1224.57,97.033L1195.4,97.033L1195.4,116.821L1223.73,116.821L1223.73,124.887L1195.4,124.887L1195.4,151.613L1224.57,151.613L1224.57,159.679L1186.59,159.679L1186.59,88.971ZM992.529,97.033L992.529,116.917L1017.1,116.917L1017.1,124.979L992.529,124.979L992.529,159.679L983.717,159.679L983.717,88.971L1017.94,88.971L1017.94,97.033L992.529,97.033ZM1045.21,88.971L1083.2,88.971L1083.2,97.033L1054.03,97.033L1054.03,116.821L1082.35,116.821L1082.35,124.887L1054.03,124.887L1054.03,151.613L1083.2,151.613L1083.2,159.679L1045.21,159.679L1045.21,88.971ZM1418.44,159.679L1409.62,159.679L1409.62,97.033L1392.84,97.033L1392.84,88.971L1435.23,88.971L1435.23,97.033L1418.44,97.033L1418.44,159.679ZM1298.26,159.679L1287.57,159.679L1266.75,129.762L1263.09,129.762L1263.09,159.679L1254.28,159.679L1254.28,88.971L1264.97,88.971C1271.25,88.971 1278,89.063 1283.63,92.254C1289.54,95.721 1292.91,102.379 1292.91,109.129C1292.91,119.262 1286.16,127.7 1275.94,128.917L1298.26,159.679ZM1334.06,141.954L1326,159.679L1316.52,159.679L1350.28,85.967L1384.04,159.679L1374.57,159.679L1366.5,141.954L1334.06,141.954ZM1112.15,88.971L1126.78,88.971C1148.45,88.971 1166.45,100.413 1166.45,123.95C1166.45,148.05 1148.82,159.679 1126.5,159.679L1112.15,159.679L1112.15,88.971ZM1554.39,124.325C1554.39,108.758 1542.76,95.721 1526.16,95.721C1509.56,95.721 1497.93,108.758 1497.93,124.325C1497.93,140.454 1510.88,152.925 1526.16,152.925C1541.45,152.925 1554.39,140.454 1554.39,124.325ZM1120.97,151.613L1124.06,151.613C1142.07,151.613 1157.63,144.863 1157.63,124.325C1157.63,103.692 1142.07,97.033 1124.06,97.033L1120.97,97.033L1120.97,151.613ZM52.538,134.512L45.45,150.646L59.625,150.646L52.538,134.512ZM132.758,134.512L125.671,150.646L139.846,150.646L132.758,134.512ZM475.071,134.512L467.979,150.646L482.158,150.646L475.071,134.512ZM548.513,134.512L541.425,150.646L555.604,150.646L548.513,134.512ZM1350.28,105.287L1337.72,133.888L1362.85,133.888L1350.28,105.287ZM1263.09,122.45L1265.9,122.45C1274.9,122.45 1284.66,120.758 1284.66,109.508C1284.66,98.442 1274.16,96.846 1265.43,96.846L1263.09,96.846L1263.09,122.45ZM603.754,28.608L656.833,84.217L656.833,31.983L665.65,31.983L665.65,105.6L612.571,49.988L612.571,102.692L603.754,102.692L603.754,28.608ZM584.933,67.337C584.933,88.346 568.333,104.192 547.887,104.192C527.446,104.192 510.846,88.346 510.846,67.337C510.846,47.079 527.633,30.483 547.887,30.483C568.146,30.483 584.933,47.079 584.933,67.337ZM316.988,102.692L306.296,102.692L285.479,72.775L281.821,72.775L281.821,102.692L273.004,102.692L273.004,31.983L283.696,31.983C289.979,31.983 296.729,32.075 302.358,35.267C308.267,38.738 311.642,45.396 311.642,52.146C311.642,62.275 304.887,70.713 294.667,71.933L316.988,102.692ZM131.254,31.983L145.883,31.983C167.546,31.983 185.554,43.425 185.554,66.962C185.554,91.062 167.921,102.692 145.604,102.692L131.254,102.692L131.254,31.983ZM487.7,102.692L478.883,102.692L478.883,31.983L487.7,31.983L487.7,102.692ZM207.379,31.983L245.358,31.983L245.358,40.046L216.196,40.046L216.196,59.833L244.517,59.833L244.517,67.9L216.196,67.9L216.196,94.625L245.358,94.625L245.358,102.692L207.379,102.692L207.379,31.983ZM66.379,31.983L104.358,31.983L104.358,40.046L75.196,40.046L75.196,59.833L103.517,59.833L103.517,67.9L75.196,67.9L75.196,94.625L104.358,94.625L104.358,102.692L66.379,102.692L66.379,31.983ZM352.604,84.967L344.538,102.692L335.071,102.692L368.829,28.983L402.588,102.692L393.117,102.692L385.054,84.967L352.604,84.967ZM436.796,102.692L427.979,102.692L427.979,40.046L411.192,40.046L411.192,31.983L453.579,31.983L453.579,40.046L436.796,40.046L436.796,102.692ZM13.883,40.046L13.883,59.929L38.454,59.929L38.454,67.992L13.883,67.992L13.883,102.692L5.067,102.692L5.067,31.983L39.296,31.983L39.296,40.046L13.883,40.046ZM576.117,67.337C576.117,51.771 564.488,38.738 547.887,38.738C531.292,38.738 519.663,51.771 519.663,67.337C519.663,83.467 532.604,95.937 547.887,95.937C563.175,95.937 576.117,83.467 576.117,67.337ZM140.071,94.625L143.167,94.625C161.171,94.625 176.737,87.875 176.737,67.337C176.737,46.708 161.171,40.046 143.167,40.046L140.071,40.046L140.071,94.625ZM832.258,15.021C866.871,11.758 899.204,25.25 921.217,48.838C902.608,17.046 866.733,-2.825 827.642,0.867C779.6,5.421 742.979,44.033 739.433,90.583C751.871,50.208 787.583,19.254 832.258,15.021ZM368.829,48.3L356.258,76.904L381.396,76.904L368.829,48.3ZM1073.96,29.383L1104.62,61.508L1104.62,31.337L1109.71,31.337L1109.71,73.858L1079.05,41.737L1079.05,72.179L1073.96,72.179L1073.96,29.383ZM1290.78,29.383L1321.45,61.508L1321.45,31.337L1326.54,31.337L1326.54,73.858L1295.88,41.737L1295.88,72.179L1290.78,72.179L1290.78,29.383ZM1381.67,60.588L1393.21,30.471L1404.75,60.588L1416.18,31.337L1421.71,31.337L1404.75,73.804L1393.21,43.846L1381.67,73.804L1364.72,31.337L1370.25,31.337L1381.67,60.588ZM1010.7,39.138C1007.77,36.538 1003.76,35.125 999.917,35.125C990.763,35.125 983.775,42.767 983.775,51.813C983.775,60.75 990.708,68.388 999.804,68.388C1003.82,68.388 1007.66,66.871 1010.7,64.163L1010.7,70.175C1007.55,72.017 1003.55,73.046 999.967,73.046C988.325,73.046 978.683,63.783 978.683,51.975C978.683,39.896 988.379,30.471 1000.4,30.471C1003.98,30.471 1007.6,31.337 1010.7,33.233L1010.7,39.138ZM1132.67,61.942L1128.02,72.179L1122.55,72.179L1142.05,29.604L1161.55,72.179L1156.08,72.179L1151.42,61.942L1132.67,61.942ZM1225.73,72.179L1220.64,72.179L1220.64,31.337L1225.73,31.337L1225.73,72.179ZM1462.39,67.521L1474.79,67.521L1474.79,72.179L1457.3,72.179L1457.3,31.337L1462.39,31.337L1462.39,67.521ZM1539.09,67.521L1551.49,67.521L1551.49,72.179L1533.99,72.179L1533.99,31.337L1539.09,31.337L1539.09,67.521ZM1592.28,35.992L1592.28,47.479L1606.47,47.479L1606.47,52.138L1592.28,52.138L1592.28,72.179L1587.18,72.179L1587.18,31.337L1606.95,31.337L1606.95,35.992L1592.28,35.992ZM1622.83,31.337L1644.77,31.337L1644.77,35.992L1627.92,35.992L1627.92,47.421L1644.28,47.421L1644.28,52.083L1627.92,52.083L1627.92,67.521L1644.77,67.521L1644.77,72.179L1622.83,72.179L1622.83,31.337ZM1174.44,31.337L1182.89,31.337C1195.4,31.337 1205.8,37.946 1205.8,51.542C1205.8,65.458 1195.62,72.179 1182.73,72.179L1174.44,72.179L1174.44,31.337ZM1487.63,31.337L1496.08,31.337C1508.59,31.337 1518.99,37.946 1518.99,51.542C1518.99,65.458 1508.81,72.179 1495.92,72.179L1487.63,72.179L1487.63,31.337ZM1032.25,61.942L1027.59,72.179L1022.12,72.179L1041.62,29.604L1061.12,72.179L1055.65,72.179L1051,61.942L1032.25,61.942ZM1439.74,72.179L1434.65,72.179L1434.65,31.337L1439.74,31.337L1439.74,72.179ZM1249.08,61.942L1244.42,72.179L1238.95,72.179L1258.45,29.604L1277.95,72.179L1272.48,72.179L1267.82,61.942L1249.08,61.942ZM1569.69,72.179L1564.6,72.179L1564.6,31.337L1569.69,31.337L1569.69,72.179ZM1492.72,67.521L1494.5,67.521C1504.91,67.521 1513.9,63.621 1513.9,51.754C1513.9,39.842 1504.91,35.992 1494.5,35.992L1492.72,35.992L1492.72,67.521ZM1179.53,67.521L1181.31,67.521C1191.72,67.521 1200.71,63.621 1200.71,51.754C1200.71,39.842 1191.72,35.992 1181.31,35.992L1179.53,35.992L1179.53,67.521ZM281.821,65.463L284.633,65.463C293.637,65.463 303.392,63.775 303.392,52.521C303.392,41.454 292.883,39.863 284.167,39.863L281.821,39.863L281.821,65.463ZM863.438,61.896C860.954,62.904 858.321,62.187 857.55,60.292C856.775,58.396 858.171,56.058 860.642,55.042C863.117,54.038 865.737,54.754 866.533,56.654C867.292,58.542 865.9,60.887 863.438,61.896ZM1041.62,40.763L1034.36,57.283L1048.88,57.283L1041.62,40.763ZM1258.45,40.763L1251.19,57.283L1265.71,57.283L1258.45,40.763ZM1142.05,40.763L1134.79,57.283L1149.3,57.283L1142.05,40.763ZM97.608,13.508L82.229,27.483L78.104,24.95L89.825,9.383L97.608,13.508ZM238.608,13.508L223.229,27.483L219.1,24.95L230.825,9.383L238.608,13.508Z" style="fill:rgb(138,182,200);fill-rule:nonzero;"/>
    </g>
</svg>
