<?xml version="1.0" encoding="UTF-8"?>
<svg width="14px" height="16px" viewBox="0 0 14 16" version="1.1" xmlns="http://www.w3.org/2000/svg" xmlns:xlink="http://www.w3.org/1999/xlink">
    <title>download</title>
    <g id="Mockups" stroke="none" stroke-width="1" fill="none" fill-rule="evenodd">
        <g id="download" fill="#EF3D43">
            <path d="M0,15 C0,14.4477 0.44772,14 1,14 L13,14 C13.5523,14 14,14.4477 14,15 C14,15.5523 13.5523,16 13,16 L1,16 C0.44772,16 0,15.5523 0,15 Z M3.29289,7.29289 C3.68342,6.90237 4.31658,6.90237 4.70711,7.29289 L6,8.5858 L6,1 C6,0.44772 6.44771,0 7,0 C7.5523,0 8,0.44771 8,1 L8,8.5858 L9.2929,7.29289 C9.6834,6.90237 10.3166,6.90237 10.7071,7.29289 C11.0976,7.68342 11.0976,8.3166 10.7071,8.7071 L7.7071,11.7071 C7.5196,11.8946 7.2652,12 7,12 C6.73478,12 6.48043,11.8946 6.29289,11.7071 L3.29289,8.7071 C2.90237,8.3166 2.90237,7.68342 3.29289,7.29289 Z" id="Shape"></path>
        </g>
    </g>
</svg>