<?xml version="1.0" encoding="UTF-8" standalone="no"?>
<!DOCTYPE svg PUBLIC "-//W3C//DTD SVG 1.1//EN" "http://www.w3.org/Graphics/SVG/1.1/DTD/svg11.dtd">
<svg width="100%" height="100%" viewBox="0 0 1505 261" version="1.1" xmlns="http://www.w3.org/2000/svg" xmlns:xlink="http://www.w3.org/1999/xlink" xml:space="preserve" xmlns:serif="http://www.serif.com/" style="fill-rule:evenodd;clip-rule:evenodd;stroke-linejoin:round;stroke-miterlimit:2;">
    <g transform="matrix(1,0,0,1,-450.482,-1676.85)">
        <g transform="matrix(4.16667,0,0,4.16667,0,0)">
            <g transform="matrix(0.24,0,0,0.24,0,0)">
                <path d="M647.2,1693.5L594.25,1779.73C591.35,1784.37 594.463,1788.16 601.171,1788.17L635.205,1788.2C639.43,1788.21 642.138,1789.66 642.796,1791.85C643.13,1792.86 642.975,1794.03 642.338,1795.28C642.284,1795.38 642.246,1795.48 642.192,1795.58C642.192,1795.59 642.171,1795.6 642.171,1795.6C642.046,1795.86 641.888,1796.11 641.705,1796.36L641.68,1796.38C641.68,1796.39 641.667,1796.4 641.65,1796.4L534.046,1928.67C548.717,1934.37 564.667,1937.5 581.355,1937.5C653.634,1937.5 712.225,1878.9 712.225,1806.62C712.225,1758.35 686.088,1716.19 647.2,1693.5ZM1015.27,1762.14L1036.96,1761.9L1038.91,1774.48C1045.25,1765.53 1057.19,1759.73 1080.82,1759.73C1121.28,1759.73 1126.15,1792.61 1126.15,1829.37C1126.15,1866.85 1120.3,1899.01 1079.85,1899.01C1058.16,1899.01 1048.9,1894.42 1042.57,1886.43L1042.57,1935.52L1015.27,1935.52L1015.27,1762.14ZM561.532,1826.18L527.507,1826.14C523.282,1826.14 520.569,1824.68 519.907,1822.5C519.573,1821.49 519.719,1820.33 520.361,1819.07C520.411,1818.97 520.457,1818.86 520.511,1818.77C520.515,1818.75 520.523,1818.75 520.523,1818.75C520.665,1818.48 520.815,1818.23 520.99,1817.99L521.032,1817.97C521.027,1817.95 521.027,1817.95 521.036,1817.93L628.653,1685.66C613.982,1679.98 598.036,1676.85 581.353,1676.85C509.073,1676.85 450.482,1735.45 450.482,1807.72C450.482,1855.99 476.615,1898.15 515.498,1920.84L568.453,1834.61C571.348,1829.98 568.223,1826.19 561.532,1826.18ZM1558.1,1825.73C1558.1,1782.93 1568.04,1752.36 1616.95,1752.36C1666.12,1752.36 1675.8,1783.44 1675.8,1825.73C1675.8,1869.55 1666.12,1899.36 1616.95,1899.36C1568.55,1899.36 1558.1,1869.04 1558.1,1825.73ZM1745.74,1825.73C1745.74,1780.64 1755.93,1752.36 1804.08,1752.36C1819.88,1752.36 1831.09,1755.16 1840.51,1759.75L1828.03,1784.46C1821.4,1780.89 1814.27,1779.11 1805.36,1779.11C1781.15,1779.11 1774.79,1794.39 1774.79,1826.5C1774.79,1858.6 1780.64,1874.39 1805.87,1874.39C1816.31,1874.39 1824.21,1871.33 1831.34,1868.02L1842.29,1889.93C1829.05,1896.3 1818.6,1899.36 1802.3,1899.36C1756.18,1899.36 1745.74,1871.08 1745.74,1825.73ZM1903.34,1899.1C1855.44,1899.1 1846.27,1871.08 1846.27,1825.73C1846.27,1781.15 1857.73,1752.36 1904.1,1752.36C1954.8,1752.36 1955.05,1784.21 1954.54,1839.49L1873.78,1839.49C1875.06,1862.92 1880.92,1874.65 1904.87,1874.65C1923.46,1874.65 1932.89,1870.31 1941.3,1866.24L1952.25,1888.15C1940.53,1894.51 1926.01,1899.1 1903.34,1899.1ZM1196.54,1899.01C1150.73,1899.01 1141.95,1872.41 1141.95,1829.37C1141.95,1787.05 1152.91,1759.73 1197.26,1759.73C1245.76,1759.73 1246,1789.95 1245.51,1842.42L1168.27,1842.42C1169.49,1864.67 1175.09,1875.79 1198,1875.79C1215.79,1875.79 1224.8,1871.68 1232.84,1867.81L1243.32,1888.61C1232.11,1894.66 1218.22,1899.01 1196.54,1899.01ZM1416.73,1708.54L1446.79,1708.54L1490.61,1855.28L1533.66,1708.54L1563.47,1708.54L1505.64,1898.59L1474.3,1898.59L1416.73,1708.54ZM1393.62,1898.04C1361.21,1898.04 1353.41,1886.68 1353.41,1859.59L1353.41,1785.84L1337.73,1785.84L1337.73,1762.14L1354.39,1762.14L1358.53,1728.04L1380.46,1723.45L1380.46,1762.14L1412.14,1762.14L1412.14,1785.84L1380.46,1785.84L1380.46,1856.69C1380.46,1867.81 1382.16,1873.62 1396.79,1873.62L1412.14,1873.62L1412.14,1897.32C1407.75,1897.56 1397.27,1898.04 1393.62,1898.04ZM1694.29,1754.91L1722.83,1754.91L1722.83,1897.32L1694.29,1897.32L1694.29,1754.91ZM781.077,1718.13L884.152,1718.13L884.152,1743.77L808.61,1743.77L808.61,1792.13L880.498,1792.13L880.498,1817.76L808.61,1817.76L808.61,1872.17L884.64,1872.17L884.64,1897.32L781.077,1897.32L781.077,1718.13ZM1265.83,1761.93L1287.27,1761.9L1289.71,1776.17C1295.32,1767.46 1305.31,1760.93 1327.72,1760.93L1327.72,1786.56C1295.07,1787.05 1293.12,1807.12 1293.12,1830.09L1293.12,1897.32L1265.83,1897.32L1265.83,1761.93ZM948.25,1849.44L922.421,1897.32L894.642,1897.32L935.092,1826.23L898.055,1762.14L927.538,1762.14L951.663,1803.98L974.084,1762.14L1001.86,1762.14L965.067,1827.43L1005.27,1897.32L976.03,1897.32L948.25,1849.44ZM1098.61,1830.58C1098.61,1803.25 1095.45,1785.12 1072.05,1785.12C1045.25,1785.12 1042.57,1803.49 1042.57,1830.58C1042.57,1857.66 1045,1875.31 1072.05,1875.31C1094.96,1875.31 1098.61,1858.14 1098.61,1830.58ZM1647.01,1826.75C1647.01,1798.73 1644.21,1779.11 1616.95,1779.11C1589.95,1779.11 1586.89,1798.73 1586.89,1826.75C1586.89,1854.52 1589.95,1874.39 1616.95,1874.39C1644.21,1874.39 1647.01,1854.52 1647.01,1826.75ZM1168.27,1818.73L1220.41,1818.73C1220.17,1796.72 1219.44,1783.66 1196.54,1783.66C1174.61,1783.66 1169.24,1796.24 1168.27,1818.73ZM1873.78,1814.52L1928.3,1814.52C1928.05,1791.34 1927.28,1777.58 1903.34,1777.58C1880.41,1777.58 1874.8,1790.83 1873.78,1814.52ZM1694.29,1708.29L1723.08,1708.29L1723.08,1739.11L1694.29,1739.11L1694.29,1708.29Z" style="fill:rgb(138,182,200);fill-rule:nonzero;"/>
            </g>
        </g>
    </g>
</svg>
