<?xml version="1.0" encoding="UTF-8"?>
<svg width="64px" height="61px" viewBox="0 0 64 61" version="1.1" xmlns="http://www.w3.org/2000/svg" xmlns:xlink="http://www.w3.org/1999/xlink">
    <title>Mask</title>
    <defs>
        <path d="M36.485678,0 C36.8370435,0.0460469026 37.1256469,0.247776547 37.4146142,0.427944409 C38.0878997,0.848214487 38.7480341,1.28894975 39.4143765,1.72054874 C39.5210499,1.78925366 39.6416058,1.84078244 39.7358595,1.92373997 C40.7631399,2.82896492 41.7513292,3.76744611 42.4600506,4.96064729 C42.8330426,5.58812852 43.2469507,6.19112463 43.6235962,6.81677875 C43.869091,7.22425779 44.0795157,7.65293326 44.3078403,8.07137586 C44.4886732,8.40357189 44.6727957,8.73430596 44.84267,9.04201668 C45.0545539,9.04932585 45.1309059,8.94955735 45.132003,8.81543639 C45.1341955,8.59579972 45.1371175,8.36921943 45.0874334,8.15798798 C44.9833182,7.71542542 44.9961036,7.27542103 45.0534585,6.83285866 C45.0603998,6.77730977 45.115928,6.68996677 45.1561145,6.68521596 C45.2415984,6.67607969 45.3614229,6.68156138 45.4154919,6.73382104 C45.995619,7.29552106 46.3898005,7.99170738 46.7218764,8.71201348 C47.1471088,9.63295282 47.5095061,10.5823976 47.9044172,11.5175895 C48.0304533,11.816164 48.0662549,12.1213165 48.0783088,12.4451069 C48.101325,13.0466413 48.1225127,13.6565809 48.2383198,14.2442279 C48.4180574,15.1545692 48.7435577,16.0152089 49.4387623,16.6777736 C49.7474581,16.4987022 49.7474581,16.4987022 50.1072971,16.6905645 C51.0604181,16.1153429 51.5802681,15.1655328 52.0814868,14.2212044 C52.2151956,14.300142 52.2966603,14.3184147 52.3138306,14.3619035 C52.4405982,14.6871559 52.5874562,15.0098501 52.6652692,15.3478933 C52.7931321,15.9015533 52.9531412,16.458137 52.8442754,17.0406677 C52.8271051,17.1338579 52.8208953,17.2328955 52.8325854,17.3260858 C52.9195321,18.0211757 52.8176075,18.7045711 52.7613479,19.3960067 C52.7094731,20.0337206 52.5388692,20.645853 52.4800514,21.2733342 C52.4318302,21.7860636 52.3331934,22.2838093 52.1815847,22.7651098 C51.777176,24.0535845 51.6153383,25.3702355 51.6456615,26.7131259 C51.652237,26.9949625 51.7274919,27.2744969 51.7643906,27.5561875 C51.8319746,28.0680031 52.0789305,28.4456979 52.5567691,28.6667599 L52.6662842,28.7294796 L52.6662842,28.7294796 L52.8745968,28.8774795 L52.8745968,28.8774795 C53.0550658,28.994132 53.2505127,28.9846302 53.4156363,28.8750311 C54.446936,28.1929513 55.5702951,27.6433112 56.4269698,26.7130162 C56.9647216,26.1290602 57.5623865,25.59952 58.0902731,25.0075608 C58.6404445,24.389837 59.0649474,23.6769129 59.4605899,22.9500287 C59.6121968,22.6711887 59.7634397,22.3912524 59.9249117,22.1182596 C59.9508482,22.0747707 60.0465629,22.0268965 60.0816331,22.0429764 C60.1565241,22.0769635 60.2372591,22.1398212 60.2723311,22.2125463 C60.3413762,22.3547071 60.3775435,22.5052735 60.2821945,22.6646106 C60.1671188,22.8542803 60.07725,23.0592988 59.9676527,23.2526231 C59.7627083,23.6147861 59.5661661,23.9769127 59.5712806,24.4115813 C59.5727417,24.5058315 59.5519197,24.6022742 59.5267129,24.6936739 C59.1906178,25.9160383 58.8417373,27.1349673 58.516237,28.3604014 C58.2364016,29.4126111 57.8173789,30.4013418 57.2536907,31.3314176 C57.1053698,31.5764533 56.975682,31.8326716 56.822978,32.0749299 C56.5873465,32.4493722 56.3392935,32.8158111 56.0802818,33.2101339 C56.1339833,33.3406003 56.2483293,33.2591775 56.3553684,33.218722 C57.2398082,32.8819213 57.6979202,32.8116449 58.4877424,32.8943102 C58.5275613,33.2242039 58.4355001,33.4871466 58.1574914,33.6988531 C57.6701552,34.0694215 57.3059312,34.5468116 57.0191545,35.0860363 C56.8847161,35.3390387 56.7239755,35.5788851 56.60269,35.8376616 C56.1113346,36.888702 55.3865383,37.7732059 54.6241154,38.6313971 C54.2653716,39.0349659 53.9113767,39.4438338 53.5314434,39.8273757 C53.0561611,40.3069586 52.4957607,40.6538823 51.8465867,40.8715821 C51.2481922,41.0729097 50.6673337,41.3272643 50.1003559,41.5496786 C50.0660171,41.8171896 50.2486768,41.8552331 50.379096,41.9216358 C50.859491,42.1680235 51.3482901,42.3976007 51.8268601,42.6466197 C51.9243998,42.6975637 51.996003,42.7979534 52.0774695,42.8786817 C51.9002882,42.8442561 51.7128798,42.8327445 51.5499467,42.7646242 C51.1122928,42.580217 50.6874261,42.3673777 50.2548866,42.1700701 C50.0240039,42.0651488 49.7927573,41.9584003 49.5534722,41.8778911 C49.489176,41.8564392 49.393827,41.9282505 49.3127262,41.9569749 C49.3357406,42.0108792 49.3448743,42.0957372 49.3846951,42.1147772 C50.4138005,42.6033137 51.4418123,43.0953949 52.4811486,43.5608713 C52.6988784,43.6582277 52.9582558,43.6619188 53.1993675,43.7049325 C53.2972729,43.9332306 53.5402114,43.9620282 53.7254274,44.0568265 C54.063715,44.2299775 54.4301314,44.3479091 54.7698781,44.5185385 C55.8767984,45.072893 56.9957744,45.611679 57.9372034,46.4372355 C58.3423435,46.7923817 58.7456569,47.1513288 59.1201099,47.5375387 C59.4065209,47.8325682 59.6403275,48.1779205 59.9062804,48.4930133 C60.4031142,49.0779925 60.8389414,49.7077031 61.1224303,50.4174112 C61.5231874,51.4179826 61.8665876,52.4414679 62.2362918,53.4546839 C62.4777675,54.1165543 62.5705602,54.8097074 62.6242616,55.503847 C62.6870968,56.3243969 62.6889236,57.1492588 62.7283768,57.9717088 C62.7546808,58.5213854 62.9808148,59.0133205 63.2336148,59.4874946 C63.2767234,59.5672728 63.4604802,59.6274994 63.5587512,59.6057915 C63.6548299,59.5841567 63.7848834,59.4547136 63.7976706,59.3588921 C63.8271398,59.1370382 63.8385859,58.9129917 63.848138,58.6886041 L63.8630621,58.3519984 L63.8630621,58.3519984 L63.9454415,58.4516115 C63.9705574,58.4848676 63.989463,58.5183157 63.9905592,58.5523758 C64.0048056,58.9955595 63.9985958,59.4394743 63.9989615,59.916901 C63.8272605,59.9993103 63.6625007,60.078321 63.4922626,60.1599997 C62.9029999,59.7779561 62.6491028,59.1845349 62.4262585,58.5972168 C62.3210461,58.3199847 62.3908226,57.979493 62.3590383,57.6698454 C62.2381186,56.5063189 62.2070658,55.3320116 61.924674,54.188329 C61.8260372,53.7883782 61.7427439,53.389341 61.532685,53.0203806 C61.4634571,52.8987947 61.414413,52.7652311 61.3721727,52.6279764 L61.2524838,52.2134256 L61.2524838,52.2134256 C60.9028738,51.0770522 60.372429,50.0155234 59.6589588,49.0828896 C58.9867686,48.2036117 58.2539376,47.352693 57.3505008,46.6815767 C57.2485762,46.6056723 57.1503051,46.5228243 57.0604363,46.433179 C56.1160834,45.494442 54.9404839,44.9521475 53.7210443,44.4852094 C53.6322708,44.451003 53.5361922,44.4353983 53.4496112,44.3962583 C52.6999755,44.0520025 51.9525305,43.70168 51.2025273,43.3583012 C50.4835769,43.0291384 49.7606091,42.7061518 48.9846695,42.3550255 C48.9349854,42.5266783 48.8816478,42.6355099 48.875438,42.7465343 C48.8224661,43.604616 48.7768012,44.4631727 48.7325973,45.3219852 C48.7000853,45.9323633 48.4922169,46.4946845 48.3135765,47.0723547 C48.122189,47.6915321 47.8117345,48.2430219 47.4800575,48.7821621 L47.0781203,49.4267441 C46.9449203,49.6419899 46.8145868,49.8588014 46.6933817,50.0807202 C46.5151052,50.4069958 46.2655911,50.6975668 45.9210937,50.907848 C45.5992469,51.1050458 45.3329283,51.3922182 45.0403075,51.6377656 C44.9095225,51.7476205 44.7462238,51.8089433 44.6074023,51.7009888 C44.5233795,51.6353901 44.455064,51.4846044 44.4631006,51.3781117 C44.4835587,51.0959461 44.5390887,50.8154252 44.5993657,50.5380836 C44.6545301,50.2904531 44.7359948,50.0488528 44.8017539,49.8037439 C44.807598,49.7813783 44.7820254,49.7504244 44.7619331,49.7031716 C44.4941534,49.6392904 44.2804409,49.8052422 44.1032615,49.9524464 C43.7624176,50.2359277 43.4394736,50.5480968 43.1475843,50.8812795 C42.5827989,51.5269238 42.0457786,52.1958108 41.4967025,52.8542095 C41.1240762,53.3016324 40.6597543,53.6311608 40.1497658,53.9022896 C39.8235358,54.0746734 39.6942119,54.0394072 39.4399491,53.7079787 C39.4023207,53.6584966 39.3763843,53.599805 39.3380245,53.550542 C39.3219514,53.5305153 39.2887061,53.5244122 39.2149123,53.4879401 C38.9986435,53.688756 38.7655683,53.9006818 38.538339,54.1179795 C37.8256003,54.8003517 37.1051889,55.4673751 36.2832552,56.0272842 C35.8744616,56.3058683 35.4532483,56.5113255 34.9864415,56.5890572 C34.0808853,56.7399159 33.1663436,56.8377109 32.2548337,56.953413 C32.1618234,56.9649613 32.0641356,56.9548382 31.9704305,56.9410242 C31.7762636,56.9119708 31.5944067,56.6011171 31.6865046,56.4177697 C31.7842636,56.223934 31.9086193,56.0377727 32.0486092,55.8713092 C32.3760095,55.4833453 32.7286897,55.1173816 33.0523633,54.7267497 C33.2783875,54.4541223 33.4374111,54.1367637 33.4426719,53.7713848 C33.4470184,53.4737239 33.5786444,53.2248145 33.6818838,52.9570111 C33.9783775,52.1877344 34.3768323,51.4611426 34.6033667,50.661716 C34.6936012,50.3447227 34.7592122,50.0531285 34.6569585,49.7321519 C34.6091761,49.582755 34.5945256,49.4199462 34.5830549,49.2621805 C34.5292437,48.5292296 34.0849045,48.1012852 33.4340136,47.9040142 C33.0253297,47.7799431 32.6217603,47.5475155 32.1470266,47.7040387 C31.9866518,47.7569927 31.7779441,47.6462608 31.5903894,47.6372706 C31.1536479,47.6171708 30.7298765,47.5489409 30.2753466,47.6092039 C29.620217,47.6964739 28.9410874,47.6285728 28.2741946,47.5908582 C27.5975866,47.5523395 26.9474253,47.6500249 26.3004438,47.8352359 C25.8742605,47.957224 25.446618,48.066019 24.9883231,48.042228 C24.7102779,48.0276466 24.4277398,48.1332988 24.144836,48.1641795 C23.4205883,48.2435923 22.6953915,48.3093735 21.9706335,48.384876 C21.6730061,48.415574 21.4180136,48.3045132 21.1698875,48.1648008 C21.1478221,48.1524119 21.1227981,48.1078999 21.1295199,48.0885309 C21.1486632,48.0334939 21.1722262,47.949586 21.2135062,47.9361374 C21.7235295,47.7692719 22.2393256,47.6202771 22.7481805,47.4497572 C22.9000799,47.3990324 23.0255309,47.2916626 22.9698198,47.0339091 C22.2590888,46.870077 21.5269874,46.6724404 20.7834152,46.5420106 C20.3165371,46.4600762 19.8307698,46.4859503 19.3877837,46.2759248 C18.5362582,46.2606489 17.7901645,45.8917615 17.0372393,45.5592001 C16.2523872,45.2126054 15.478309,44.8418175 14.7052183,44.4692757 C14.6416535,44.4385777 14.5806084,44.308221 14.5933938,44.2374328 C14.607386,44.1601396 14.70153,44.0499194 14.7725481,44.0396501 C15.0222066,44.0041647 15.2767986,44.0055169 15.5295273,43.9924337 C15.7405371,43.9817259 15.9513622,43.9707989 16.3487218,43.9501875 C16.0148192,43.7861725 15.8515936,43.6958328 15.6812438,43.6240945 C14.9780759,43.3291015 14.2747981,43.0353146 13.5677938,42.7498965 C13.0041421,42.5225122 12.4811872,42.228104 11.9961513,41.861994 C10.9807438,41.0963351 9.96895314,40.3258525 8.94247726,39.5756524 C8.50650377,39.2572339 8.052848,38.9551511 7.57793326,38.6997001 C7.01424443,38.3965454 6.49509147,38.0311826 5.98352152,37.6547966 L5.21723476,37.0883485 L5.21723476,37.0883485 C5.11684436,37.0150023 5.01407865,36.9285363 4.95281602,36.8241267 C4.91200962,36.7541425 4.91003659,36.6225432 4.95051385,36.5550808 C4.98876208,36.491748 5.12298105,36.4273552 5.18603568,36.4488804 C5.39445076,36.5183162 5.60063682,36.6090946 5.78950813,36.7227136 C7.24318949,37.5982274 8.82772891,38.1630701 10.429914,38.6877133 C10.4901179,38.707338 10.5497751,38.740119 10.6110395,38.7453816 C11.907451,38.8636785 13.1872772,39.1611565 14.4987396,39.1105047 C14.6147296,39.1059366 14.7286002,39.0406668 14.9141453,38.9810251 C14.6701847,38.7095307 14.4606377,38.4938044 14.2764055,38.2582705 C14.2320205,38.2022831 14.2414084,38.0645078 14.2804247,37.99361 C14.317541,37.9255629 14.4227899,37.8920508 14.5019543,37.8508279 C14.5262487,37.8380736 14.565338,37.8448709 14.5952937,37.8525089 C14.9640489,37.9433238 15.3373316,38.0190455 15.6997307,38.1313854 C16.5510715,38.3947302 17.429594,38.533054 18.3023437,38.6889923 C18.964815,38.8073989 19.6316713,38.6848993 20.2840233,38.536672 C20.3575977,38.5199707 20.4117014,38.4147937 20.5063574,38.3181681 C20.1952863,37.982683 19.8854953,37.6651416 19.598426,37.3283044 C19.5306226,37.2491474 19.5384415,37.1053056 19.5117718,36.9911747 C19.6271766,36.9639852 19.759898,36.8865459 19.8562326,36.9180844 C20.4276301,37.1078272 21.0005252,37.2997992 21.5538747,37.5345656 C22.322436,37.8607682 23.1333014,38.0411553 23.9449329,38.1469537 C25.0450582,38.290284 26.1363423,38.5232598 27.2569988,38.5231866 C28.4766925,38.5233695 29.5642134,38.1405582 30.5785622,37.5007246 C30.739705,37.399531 30.7836895,37.1268672 30.636356,36.9983376 C30.3035121,36.7061222 29.972495,36.402468 29.6017686,36.1644489 C28.6053581,35.5241037 27.5399025,35.0714547 26.3513695,34.8703098 C25.2595734,34.6855007 24.1907935,34.3621487 23.1111995,34.1044685 L21.2574541,33.6761951 L21.2574541,33.6761951 C21.0730408,33.6315003 20.888591,33.5717853 20.7184973,33.4890836 C20.6560644,33.4584221 20.6168653,33.3453511 20.6025823,33.2634169 C20.5954582,33.2237652 20.6612886,33.1404422 20.7089266,33.1268109 C20.9217979,33.0634779 21.1408443,33.0245208 21.3548859,32.9653175 C21.537765,32.9147756 21.7210829,32.8597019 21.8946454,32.7846746 C21.9716557,32.7511625 22.0882655,32.6491648 22.07738,32.6030084 C22.0522811,32.4937015 21.9861581,32.3496038 21.8944644,32.3054572 C20.7797983,31.7685349 19.6638559,31.2335861 18.5354902,30.7256075 C16.7671227,29.9304569 15.0012384,29.1301897 13.3006724,28.1953997 C12.8273632,27.934942 12.3449952,27.6787601 11.9916201,27.2545798 C11.921114,27.1704161 11.8713202,27.010275 11.9036878,26.9162442 C11.9369696,26.8169509 12.0764841,26.6921855 12.1755598,26.6867767 C12.4883826,26.6703315 12.8135904,26.6599525 13.1169522,26.7260628 C14.3813252,27.0039892 15.4154006,26.6074736 16.3192763,25.751329 C16.2234171,25.2367359 15.9163286,24.9185001 15.5929842,24.610168 C15.248816,24.2812978 14.9148402,23.9417562 14.5590551,23.6254572 C14.1795241,23.2884373 13.8139469,22.9167724 13.3821755,22.6620524 C12.4717243,22.1252033 11.7069993,21.4041661 10.8747268,20.7701068 C10.5439675,20.5175792 10.2233623,20.2610319 9.84379474,20.0907312 C9.40299931,19.893387 9.02660983,19.6039489 8.66925394,19.2871019 C8.63527909,19.2567694 8.62570652,19.1602901 8.64773532,19.1164358 C8.67173714,19.068927 8.74940389,19.0144747 8.79897829,19.01886 C9.01824411,19.0371327 9.25891703,19.0254383 9.44859108,19.1157049 C9.88839908,19.3262053 10.2531351,19.0934123 10.6370144,18.9764676 C10.7931524,18.9285935 10.8950752,18.6439061 10.8362592,18.4831072 C10.7264809,18.1838019 10.5934304,17.8994802 10.3651058,17.6633981 C9.37063177,16.6342849 8.45583406,15.5265994 7.35596481,14.6027364 C7.09107064,14.3805415 6.76816321,14.2285134 6.48902264,14.021302 C6.40602196,13.9591752 6.32035521,13.796549 6.34746196,13.7201696 C6.37624916,13.6408665 6.5370263,13.5728923 6.64505098,13.5644869 C7.0204183,13.5348852 7.40290789,13.6222284 7.76870263,13.5213635 C7.78130698,13.434386 7.81907978,13.3561791 7.79467749,13.319634 C7.0128919,12.1585925 6.10507201,11.0987814 5.11761053,10.1116951 C3.78444848,8.77925664 2.29733901,7.64781692 0.585997302,6.83176225 C0.414042103,6.74990095 0.24245079,6.65999978 0.0898930763,6.5481713 C0.0307479338,6.50431704 -0.0109361803,6.38152518 0.00254404822,6.3055111 C0.0268384481,6.16773574 0.149367362,6.10122346 0.285813532,6.11035974 C0.378970103,6.11657231 0.468182446,6.16554291 0.561629759,6.18527741 C1.40175775,6.36361798 2.20896781,6.638438 2.98468986,7.00754465 C4.61989899,7.78595781 6.26303499,8.54865641 7.88903909,9.346073 C8.5828192,9.68630888 9.31612571,9.87122756 10.0582002,10.0418938 C10.1789024,10.0700337 10.3114775,10.0528574 10.4383163,10.0488374 C10.5972667,10.0440864 10.7347369,9.83724063 10.656485,9.70750514 C10.5254459,9.49115734 10.3760663,9.28613883 10.2368791,9.07490738 C10.1605271,8.95832827 10.1630834,8.95686633 10.3507497,8.67766103 L10.4745279,8.67357329 C10.4939181,8.67494036 10.5116116,8.67900094 10.5259927,8.68825906 C11.0078871,8.99633531 11.4936526,9.29856415 11.9615547,9.62674024 C12.6403204,10.1032897 13.3321275,10.5509686 14.123301,10.8206723 C14.4221316,10.9222679 14.7086157,11.0231328 15.0460256,10.9145934 C15.3113952,10.829443 15.61176,10.8601411 15.8928388,10.8140942 C16.0839739,10.7826653 16.2290052,10.5886101 16.2040909,10.391997 C16.1773499,10.1749183 16.1257659,9.95674344 16.0498528,9.75209028 C15.9611524,9.51491177 15.827994,9.29454422 15.7262157,9.06102029 C15.6450052,8.87463968 15.6744141,8.69191364 15.785434,8.49968581 C15.8844365,8.54829088 15.9788347,8.57277618 16.0425458,8.63088306 C16.1598139,8.7375952 16.26488,8.85929065 16.3651241,8.98281357 C17.3754171,10.2301017 18.6195881,11.2215732 19.8838148,12.188925 C20.5697759,12.7133489 21.3313595,13.1113263 22.1319574,13.4292697 C22.5763698,13.6061485 23.0361622,13.7252858 23.5226957,13.7245549 C23.9042363,13.7241895 24.287055,13.7417312 24.6681933,13.7709673 C25.004762,13.7969144 25.2920141,13.6759498 25.5714472,13.5180744 C25.8672461,13.3514283 26.0367912,13.1138845 26.0672589,12.7568378 C26.1060209,12.3025808 26.0796804,11.8684236 25.888911,11.4499808 C25.7836255,11.2190151 25.661828,10.9928003 25.5872662,10.7519672 C25.5582961,10.658777 25.6373142,10.531965 25.6651889,10.4274457 C25.7785841,10.4406021 25.8528534,10.4285421 25.8992497,10.4585093 C26.7013818,10.9748931 27.510201,11.4828715 28.1301489,12.2305866 C28.3334861,12.4750741 28.5555277,12.7045781 28.765369,12.9443146 C29.1006595,13.3265777 29.4009878,13.7267477 29.6501727,14.1802738 C30.1393009,15.0705151 30.7151546,15.911786 31.1237654,16.8491707 C31.2109681,17.0487076 31.3666307,17.2186427 31.4934696,17.4064853 C31.6334595,17.2508026 31.5533096,17.0969473 31.5110769,16.9500355 C31.4685187,16.8005657 31.5381489,16.7026245 31.6488031,16.6328231 C31.7787852,16.5509618 31.9068291,16.602856 31.97434,16.7194352 C32.2921695,17.2690753 32.636228,17.8081171 32.900025,18.3833389 C33.4187432,19.5133168 33.9836017,20.6067495 34.6754069,21.6468263 C35.1309626,22.3320491 35.5732556,23.0304282 36.0162783,23.727053 C36.254468,24.1013126 36.4610929,24.4983031 36.6510961,24.8997523 C36.858233,25.3401588 37.1537758,25.7083153 37.4880442,26.051621 C37.576452,26.1422896 37.6692428,26.2417657 37.7799354,26.2946465 C38.3067267,26.5457853 38.8101379,26.4929774 39.0158138,25.8590642 C39.2908986,25.0102651 39.4220492,24.1154189 39.3142787,23.2263105 C39.1458673,21.8332069 38.7809118,20.4850541 38.163886,19.2147424 C38.1361228,19.1573664 38.1043386,19.1018177 38.0805928,19.0429799 C37.5731642,17.7646284 36.8739404,16.5951814 36.0656698,15.4867651 C35.9781397,15.3668969 35.9384652,15.2075598 35.8985,15.0602824 C35.8714664,14.9597832 36.0802472,14.7978879 36.1583144,14.853802 C36.3892702,15.0189863 36.627716,15.1794199 36.8363121,15.3712822 C37.0931331,15.6077298 37.340089,15.8602572 37.5607427,16.1306918 C37.8391171,16.4712932 38.1883633,16.5363437 38.5891185,16.4691005 C38.7622805,16.4394989 38.8868556,16.3353451 38.9047555,16.1624862 C38.9310595,15.9099587 38.9628419,15.6497568 38.9299624,15.4012494 C38.7641073,14.1302068 38.4360506,12.9052114 37.7324437,11.819453 C37.4577228,11.3958939 37.0858261,11.0355582 36.7603258,10.6452553 L36.5424632,10.3918599 C36.4710933,10.3064811 36.4039747,10.2185898 36.3501077,10.1233896 C36.3020328,10.0375083 36.3319884,9.87451679 36.3822558,9.77438276 C36.4518129,9.63551099 36.6163898,9.65524548 36.717219,9.72431592 C37.1884821,10.0484719 37.6575528,10.376648 38.1083578,10.728213 C38.3743107,10.9357897 38.6077498,10.902899 38.902563,10.7910707 C39.4392195,10.5867828 39.7541251,9.90192561 39.674851,9.4005253 C39.6452593,9.21304827 39.6204181,9.02008955 39.6328378,8.83224717 C39.6781388,8.15214076 39.5126476,7.51077226 39.3259706,6.86611471 C39.1327162,6.1966065 39.0176387,5.50261282 38.7977164,4.84333712 C38.5967912,4.24289936 38.3571404,3.64173054 38.0356593,3.09939948 C37.5669525,2.31075382 37.1680241,1.47021403 36.5205672,0.794127539 C36.3048451,0.569374351 36.2416442,0.301497964 36.485678,0 Z" id="path-1"></path>
    </defs>
    <g id="Mockups" stroke="none" stroke-width="1" fill="none" fill-rule="evenodd">
        <g id="Rectangle">
            <mask id="mask-2" fill="white">
                <use xlink:href="#path-1"></use>
            </mask>
            <use id="Mask" fill="#EF3D43" fill-rule="nonzero" xlink:href="#path-1"></use>
        </g>
    </g>
</svg>