<?xml version="1.0" encoding="UTF-8" standalone="no"?>
<!DOCTYPE svg PUBLIC "-//W3C//DTD SVG 1.1//EN" "http://www.w3.org/Graphics/SVG/1.1/DTD/svg11.dtd">
<svg width="100%" height="100%" viewBox="0 0 2106 1384" version="1.1" xmlns="http://www.w3.org/2000/svg" xmlns:xlink="http://www.w3.org/1999/xlink" xml:space="preserve" xmlns:serif="http://www.serif.com/" style="fill-rule:evenodd;clip-rule:evenodd;stroke-linejoin:round;stroke-miterlimit:2;">
    <g transform="matrix(1,0,0,1,-597.279,-583.163)">
        <g transform="matrix(4.16667,0,0,4.16667,0,0)">
            <g transform="matrix(0.24,0,0,0.24,0,0)">
                <path d="M1657.73,1906.73C1648.4,1904.43 1642.46,1902.44 1639.88,1900.75C1637.3,1899.06 1636.01,1896.79 1636.01,1893.93C1636.01,1891.07 1637.07,1888.78 1639.17,1887.04C1641.29,1885.31 1644.17,1884.44 1647.82,1884.44C1656.91,1884.44 1665.73,1887.67 1674.25,1894.15L1685.36,1878.11C1680.49,1873.99 1674.77,1870.8 1668.21,1868.55C1661.65,1866.3 1655.08,1865.18 1648.53,1865.18C1638.5,1865.18 1630.12,1867.7 1623.43,1872.77C1616.72,1877.83 1613.37,1885.03 1613.37,1894.35C1613.37,1903.69 1616.03,1910.53 1621.32,1914.89C1626.6,1919.25 1634.98,1922.78 1646.42,1925.5C1653.64,1927.28 1658.45,1929.04 1660.9,1930.78C1663.33,1932.51 1664.56,1934.85 1664.56,1937.8C1664.56,1940.75 1663.41,1943.1 1661.11,1944.84C1658.81,1946.57 1655.65,1947.44 1651.62,1947.44C1642.62,1947.44 1632.83,1942.8 1622.23,1933.51L1609.15,1949.55C1621.62,1961.07 1635.63,1966.84 1651.2,1966.84C1661.98,1966.84 1670.67,1964.1 1677.28,1958.61C1683.88,1953.13 1687.19,1945.99 1687.19,1937.17C1687.19,1928.36 1684.61,1921.65 1679.46,1917.07C1674.3,1912.47 1667.07,1909.02 1657.73,1906.73ZM1808.82,1886.13C1819.13,1886.13 1827.75,1890.44 1834.69,1899.06L1848.33,1883.59C1837.45,1871.32 1823.95,1865.18 1807.83,1865.18C1793.4,1865.18 1781.19,1870.05 1771.2,1879.8C1761.23,1889.55 1756.23,1901.72 1756.23,1916.29C1756.23,1930.86 1761.13,1942.93 1770.93,1952.5C1780.73,1962.06 1793.18,1966.84 1808.33,1966.84C1823.46,1966.84 1836.62,1960.56 1847.77,1947.99L1833.7,1933.51C1826.87,1942.05 1818.05,1946.3 1807.28,1946.3C1799.4,1946.3 1792.69,1943.54 1787.16,1938.02C1781.64,1932.48 1778.86,1925.15 1778.86,1916.01C1778.86,1906.87 1781.8,1899.61 1787.65,1894.21C1793.51,1888.82 1800.57,1886.13 1808.82,1886.13ZM1965.18,1865.18C1950.65,1865.18 1938.42,1870.03 1928.48,1879.73C1918.55,1889.43 1913.58,1901.5 1913.58,1915.93C1913.58,1930.37 1918.55,1942.44 1928.48,1952.14C1938.42,1961.85 1950.65,1966.7 1965.18,1966.7C1979.72,1966.7 1991.94,1961.85 2001.88,1952.14C2011.82,1942.44 2016.78,1930.37 2016.78,1915.93C2016.78,1901.5 2011.82,1889.43 2001.88,1879.73C1991.94,1870.03 1979.72,1865.18 1965.18,1865.18ZM1090.72,1865.18C1076.17,1865.18 1063.95,1870.03 1054.02,1879.73C1044.08,1889.43 1039.12,1901.5 1039.12,1915.93C1039.12,1930.37 1044.08,1942.44 1054.02,1952.14C1063.95,1961.85 1076.17,1966.7 1090.72,1966.7C1105.25,1966.7 1117.48,1961.85 1127.42,1952.14C1137.35,1942.44 1142.32,1930.37 1142.32,1915.93C1142.32,1901.5 1137.35,1889.43 1127.42,1879.73C1117.48,1870.03 1105.25,1865.18 1090.72,1865.18ZM2362.69,1867.42L2320.22,1965.71L2343.56,1965.71L2352.71,1944.48L2393.9,1944.48L2403.04,1965.71L2426.39,1965.71L2383.92,1867.42L2362.69,1867.42ZM1251.15,1930L1226.12,1867.42L1202.35,1867.42L1241.88,1965.71L1260.43,1965.71L1299.95,1867.42L1276.19,1867.42L1251.15,1930ZM942.375,1930.7L894.142,1867.42L873.613,1867.42L873.613,1965.71L895.55,1965.71L895.55,1904.12L942.375,1965.71L964.308,1965.71L964.308,1867.42L942.375,1867.42L942.375,1930.7ZM2230.66,1965.71L2252.58,1965.71L2252.58,1867.42L2230.66,1867.42L2230.66,1965.71ZM2080.76,1886.41L2108.61,1886.41L2108.61,1965.71L2130.54,1965.71L2130.54,1886.41L2158.39,1886.41L2158.39,1867.42L2080.76,1867.42L2080.76,1886.41ZM1391.49,1867.42L1349.02,1965.71L1372.36,1965.71L1381.5,1944.48L1422.71,1944.48L1431.85,1965.71L1455.19,1965.71L1412.72,1867.42L1391.49,1867.42ZM1985.99,1938.36C1980.38,1944.51 1973.45,1947.58 1965.25,1947.58C1957.04,1947.58 1950.13,1944.51 1944.51,1938.36C1938.89,1932.23 1936.08,1924.77 1936.08,1916.01C1936.08,1907.24 1938.89,1899.76 1944.51,1893.58C1950.13,1887.4 1957.04,1884.3 1965.25,1884.3C1973.45,1884.3 1980.38,1887.4 1985.99,1893.58C1991.61,1899.76 1994.43,1907.24 1994.43,1916.01C1994.43,1924.77 1991.61,1932.23 1985.99,1938.36ZM1111.53,1938.36C1105.9,1944.51 1098.98,1947.58 1090.79,1947.58C1082.58,1947.58 1075.67,1944.51 1070.05,1938.36C1064.42,1932.23 1061.61,1924.77 1061.61,1916.01C1061.61,1907.24 1064.42,1899.76 1070.05,1893.58C1075.67,1887.4 1082.58,1884.3 1090.79,1884.3C1098.98,1884.3 1105.9,1887.4 1111.53,1893.58C1117.15,1899.76 1119.96,1907.24 1119.96,1916.01C1119.96,1924.77 1117.15,1932.23 1111.53,1938.36ZM1389.8,1925.22L1402.17,1896.67L1414.41,1925.22L1389.8,1925.22ZM2361,1925.22L2373.38,1896.67L2385.61,1925.22L2361,1925.22ZM2700.19,1725.39C2699.85,1721.76 2699.69,1719.95 2699.35,1716.32C2698,1714.22 2697.32,1713.17 2695.97,1711.08C2693.95,1709.9 2692.94,1709.31 2690.91,1708.13C2687.28,1707.38 2684.21,1706.76 2681.34,1706.17L2682.46,1726.27L2682.51,1727.12L2682.45,1727.97L2681.93,1736.05L2681.6,1741.09L2678.51,1780.94L2678.19,1785.02L2677.9,1787.73L2677.35,1793.03L2676.98,1796.43L2675.1,1799.28L2672.3,1803.51L2671.72,1804.39L2669.93,1807.08L2667.14,1808.73L2662.9,1811.21L2658.6,1813.73L2653.68,1812.96C2609.2,1806.06 2587.53,1802.9 2542.88,1796.78L2529.38,1794.58L2528.93,1794.51L2528.5,1794.41C2510.89,1790.39 2501.95,1788.4 2484.58,1784.65L2472.03,1783.45C2454.43,1781.99 2445.62,1781.29 2427.84,1779.92L2414.3,1778.73L2413.94,1778.69L2413.59,1778.65C2390.01,1775.37 2378.55,1773.85 2355.17,1770.88L2354.75,1770.82L2354.33,1770.74C2336.86,1767.44 2328.05,1765.83 2310.71,1762.75L2297.85,1761.26C2268.45,1759.24 2254.11,1758.33 2225.15,1756.66L2224.55,1756.62L2223.94,1756.54C2218.22,1755.7 2213.92,1755.08 2209.63,1754.47C2210.01,1757.74 2210.33,1760.42 2210.8,1764.55C2211.49,1767.37 2211.83,1768.78 2212.51,1771.6C2213.53,1773.45 2214.04,1774.38 2215.07,1776.23C2217.45,1777.7 2218.64,1778.44 2221.03,1779.92C2225.12,1780.81 2227.16,1781.25 2231.25,1782.15C2242.83,1783.75 2248.62,1784.58 2260.2,1786.27C2289.49,1787.95 2304.12,1788.88 2333.38,1790.9C2338.82,1791.53 2341.54,1791.84 2346.98,1792.48C2364.67,1795.61 2373.5,1797.23 2391.18,1800.57C2414.62,1803.55 2426.34,1805.11 2449.76,1808.36C2455.19,1808.83 2457.9,1809.08 2463.33,1809.56C2480.97,1810.92 2489.8,1811.62 2507.42,1813.08C2512.85,1813.59 2515.55,1813.85 2520.98,1814.38C2538.94,1818.25 2547.92,1820.25 2565.86,1824.35C2571.28,1825.22 2573.98,1825.66 2579.4,1826.55C2623.73,1832.62 2645.86,1835.85 2690.07,1842.71C2691.75,1841.73 2692.6,1841.23 2694.29,1840.24C2695.63,1838.21 2696.31,1837.19 2697.66,1835.15C2698,1831.95 2698.17,1830.35 2698.5,1827.14C2699.85,1809.77 2700.53,1801.06 2701.88,1783.6C2702.22,1778.42 2702.38,1775.83 2702.72,1770.65C2701.71,1752.51 2701.2,1743.46 2700.19,1725.39ZM977.275,1582.38L977.275,1579.54L976.958,1579.46L958.908,1579.95C945.596,1581.1 938.804,1581.7 925.238,1582.92L912.121,1583.98L911.167,1584.05L910.675,1584.06C883.5,1584.37 869.921,1584.53 842.429,1584.89L797.437,1584.33L788.692,1585.22L787.587,1585.58L787.467,1587.06L787.108,1591.43L787.942,1637.92L787.942,1649.92L787.933,1650.17L787.408,1665.02L786.267,1697.32L786.621,1702.2L787.038,1707.98L789.842,1733.74L790.4,1738.85L790.483,1739.61L790.483,1759.39L789.571,1762.28L786.45,1772.2L785.329,1775.77L782.575,1778.31C779.546,1781.1 778.025,1782.5 775,1785.31L772.883,1787.28L770.154,1788.25C765.775,1789.81 763.583,1790.59 759.204,1792.17L758.329,1792.49L757.421,1792.68L744.767,1795.45L743.979,1795.62L743.175,1795.7L730.158,1797.04C715.958,1798.15 708.867,1798.72 695.096,1799.85L682.371,1801.28C667.054,1804.8 659.142,1806.66 643.587,1810.41L642.8,1810.6L641.713,1810.73L641.713,1812.67C642.05,1815.55 642.217,1817 642.558,1819.88C643.229,1823.35 643.571,1825.09 644.242,1828.55C645.592,1829.94 646.267,1830.63 647.617,1832.01C650.317,1832.81 651.667,1833.22 654.362,1834.01C658.075,1833.98 659.933,1833.96 663.646,1833.92C666.346,1833.42 667.696,1833.17 670.396,1832.68C675.8,1832.01 678.496,1831.68 683.9,1831.03C699.775,1827.21 707.712,1825.35 723.6,1821.7C729.012,1821.08 731.717,1820.78 737.125,1820.17C751.329,1819 758.433,1818.43 772.65,1817.32C777.725,1816.79 780.267,1816.53 785.346,1816.01C790.425,1814.89 792.967,1814.34 798.046,1813.23C802.45,1811.65 804.65,1810.86 809.054,1809.3C812.1,1806.46 813.629,1805.05 816.675,1802.25C818.029,1797.93 818.708,1795.78 820.067,1791.48L820.067,1774.61C818.708,1762.18 818.029,1755.96 816.675,1743.49C816.338,1738.82 816.171,1736.49 815.829,1731.83C816.508,1712.64 816.846,1703.06 817.525,1683.92L817.525,1672.17C817.183,1653.4 817.017,1644.01 816.679,1625.23C817.017,1621.1 817.183,1619.04 817.525,1614.92C819.217,1612.2 820.067,1610.85 821.763,1608.14C824.808,1607.15 826.337,1606.66 829.387,1605.67C833.792,1605.23 835.996,1605 840.404,1604.55C858.708,1604.78 867.867,1604.9 886.192,1605.12C913.342,1604.77 926.925,1604.6 954.108,1604.3C959.546,1603.85 962.267,1603.63 967.704,1603.2C971.629,1602.85 974.962,1602.55 978.083,1602.27L977.283,1582.66L977.275,1582.38ZM1073,1735.63C1078.45,1735.12 1081.18,1734.87 1086.63,1734.38C1105.04,1733.46 1114.24,1733.04 1132.65,1732.27C1138.11,1731.32 1140.84,1730.85 1146.3,1729.93C1150.05,1729.38 1151.92,1729.12 1155.67,1728.58C1158.06,1726.68 1159.26,1725.73 1161.65,1723.85C1163.35,1720.54 1164.2,1718.89 1165.91,1715.6C1166.25,1712.16 1166.42,1710.44 1166.76,1707C1166.42,1703.36 1166.25,1701.54 1165.91,1697.9C1165.23,1691.85 1164.88,1688.81 1164.2,1682.75C1163.86,1678.86 1163.7,1676.92 1163.35,1673.03L1163.35,1630.88C1163.7,1617.92 1163.86,1611.44 1164.2,1598.49L1164.2,1588.72C1163.86,1575.78 1163.7,1569.31 1163.35,1556.38L1163.35,1546.6C1164.04,1533.64 1164.38,1527.17 1165.06,1514.22L1165.06,1504.45C1166.42,1491.51 1167.11,1485.05 1168.47,1472.14L1168.47,1462.39C1167.11,1449.44 1166.42,1442.96 1165.06,1429.98C1165.06,1426.08 1165.06,1424.12 1165.06,1420.22C1165.74,1407.3 1166.08,1400.84 1166.76,1387.93L1166.76,1378.17C1165.74,1365.19 1165.23,1358.7 1164.2,1345.69C1164.55,1341.8 1164.72,1339.86 1165.06,1335.97C1165.15,1335.06 1165.25,1334.18 1165.34,1333.35C1165.95,1327.48 1166.39,1323.33 1166.94,1318.1C1167.15,1316.17 1167.36,1314.1 1167.61,1311.73L1167.61,1302.58C1166.25,1299.07 1165.57,1297.31 1164.2,1293.78C1161.48,1291.62 1160.11,1290.55 1157.38,1288.38C1152.95,1287.55 1150.73,1287.13 1146.3,1286.29C1143.23,1286.04 1141.69,1285.92 1138.62,1285.67C1133.17,1284.98 1130.44,1284.63 1124.98,1283.92C1109.64,1283.38 1101.97,1283.08 1086.63,1282.43C1081.18,1281.94 1078.45,1281.69 1073,1281.18C1054.61,1278.7 1045.41,1277.41 1027.03,1274.74C1021.58,1274.18 1018.85,1273.89 1013.4,1273.32C1009.32,1273.4 1007.27,1273.44 1003.19,1273.53C1000.47,1275.58 999.108,1276.6 996.383,1278.67C995.362,1282.74 994.854,1284.78 993.833,1288.87C994.175,1305.92 994.346,1314.43 994.688,1331.47L994.688,1341.94C995.367,1359 995.708,1367.52 996.387,1384.55L996.387,1395.01C995.029,1411.93 994.346,1420.4 992.988,1437.38C992.642,1440.24 992.475,1441.68 992.133,1444.55C990.775,1446.61 990.092,1447.64 988.729,1449.7C984.988,1451.17 983.117,1451.9 979.375,1453.38C976.992,1453.59 975.804,1453.69 973.421,1453.89C968.321,1453.76 965.767,1453.69 960.663,1453.56C940.6,1451.96 930.567,1451.13 910.521,1449.44C888.771,1448.23 877.904,1447.61 856.179,1446.32C851.088,1446.42 848.542,1446.48 843.45,1446.58C831.883,1447.72 825.471,1448.35 814.983,1449.41C813.779,1449.53 812.554,1449.65 811.221,1449.79C806.475,1449.63 804.1,1449.55 799.354,1449.39C794.608,1448.94 792.233,1448.71 787.492,1448.26C784.1,1447.85 782.404,1447.64 779.017,1447.23C777.325,1446 776.475,1445.38 774.779,1444.14C773.763,1441.75 773.258,1440.56 772.242,1438.17C771.9,1434.63 771.733,1432.85 771.392,1429.31L771.392,1369.03C771.733,1349.94 771.9,1340.4 772.238,1321.33C772.579,1316.66 772.746,1314.33 773.088,1309.66C774.104,1296.56 774.608,1290.02 775.629,1276.95L775.629,1265.95C775.288,1263.85 775.117,1262.8 774.779,1260.7C773.425,1256.68 772.746,1254.68 771.392,1250.65C768.679,1247.89 767.325,1246.51 764.613,1243.73C760.213,1242.46 758.008,1241.82 753.604,1240.54C748.525,1239.44 745.983,1238.89 740.908,1237.78C735.487,1236.91 732.783,1236.48 727.367,1235.6C713.829,1234.3 707.063,1233.63 693.533,1232.28C688.125,1231.37 685.421,1230.91 680.013,1229.99C665.812,1226.94 658.717,1225.39 644.529,1222.21C639.467,1221.3 636.933,1220.85 631.871,1219.93C626.804,1219.33 624.271,1219.03 619.208,1218.42C614.821,1218.58 612.629,1218.66 608.242,1218.83C605.208,1220.55 603.687,1221.41 600.65,1223.14C599.304,1226.81 598.625,1228.65 597.279,1232.34L597.279,1249.5C598.967,1260.9 599.808,1266.59 601.496,1277.93C601.833,1283.2 602,1285.83 602.342,1291.1C602.679,1308.42 602.846,1317.08 603.183,1334.39C602.846,1339.57 602.679,1342.16 602.342,1347.34C601.329,1364.52 600.821,1373.12 599.808,1390.35C599.471,1395.55 599.304,1398.15 598.971,1403.35L598.971,1431.53C598.967,1439.98 598.967,1448.44 598.967,1459.71C599.304,1477.04 599.471,1485.7 599.808,1503.01L599.808,1516.07C600.821,1533.38 601.325,1542.01 602.338,1559.26L602.338,1572.3C602,1589.6 601.833,1598.25 601.496,1615.55L601.496,1628.6C600.821,1645.94 600.483,1654.62 599.808,1672L599.808,1740.58C599.133,1750.48 598.796,1755.43 598.121,1765.35L598.121,1778.43C598.458,1781.31 598.625,1782.75 598.967,1785.63C599.637,1789.1 599.979,1790.84 600.65,1794.31C602,1795.7 602.675,1796.39 604.025,1797.77C606.725,1798.57 608.075,1798.97 610.775,1799.77C614.483,1799.73 616.342,1799.71 620.054,1799.67C622.754,1799.18 624.104,1798.93 626.804,1798.44C632.204,1797.77 634.904,1797.44 640.308,1796.79C640.883,1796.65 641.379,1796.53 641.933,1796.4C653.004,1793.73 660.271,1792.01 669.675,1789.83C672.808,1789.11 676.179,1788.33 680.008,1787.45C685.421,1786.84 688.125,1786.53 693.533,1785.92C707.737,1784.76 714.842,1784.19 729.058,1783.08C734.137,1782.55 736.675,1782.29 741.754,1781.77C746.833,1780.65 749.375,1780.09 754.454,1778.99C758.858,1777.4 761.058,1776.62 765.462,1775.05C768.508,1772.22 770.038,1770.81 773.083,1768C774.438,1763.69 775.117,1761.53 776.471,1757.23L776.471,1740.37C775.117,1727.94 774.438,1721.72 773.083,1709.24C772.746,1704.58 772.579,1702.25 772.238,1697.58C772.917,1678.4 773.254,1668.82 773.933,1649.67L773.933,1637.92C773.592,1619.16 773.425,1609.77 773.088,1590.98C773.425,1586.85 773.592,1584.8 773.933,1580.67C775.629,1577.95 776.475,1576.6 778.171,1573.9C781.217,1572.91 782.746,1572.42 785.796,1571.43C790.2,1570.98 792.404,1570.75 796.813,1570.31C815.117,1570.54 824.275,1570.65 842.6,1570.88C869.75,1570.53 883.333,1570.36 910.517,1570.05C915.954,1569.61 918.675,1569.39 924.113,1568.95C937.708,1567.73 944.508,1567.13 958.113,1565.96C966.275,1565.73 970.358,1565.62 978.521,1565.4C982.267,1566.35 984.137,1566.83 987.879,1567.78C989.242,1569.84 989.925,1570.87 991.283,1572.92L991.283,1582.09C991.588,1589.59 991.825,1595.4 992.054,1601.04C992.337,1607.99 992.608,1614.69 992.983,1623.92L992.983,1634.4C992.304,1651.46 991.962,1659.99 991.283,1677.08C991.621,1681.25 991.792,1683.33 992.133,1687.49C993.492,1704.41 994.175,1712.85 995.533,1729.71C996.213,1733.3 996.554,1735.09 997.238,1738.67C999.279,1740.55 1000.3,1741.48 1002.34,1743.35C1007.11,1743.62 1009.49,1743.76 1014.25,1744.03C1019.7,1743.46 1022.43,1743.17 1027.88,1742.61C1031.32,1742.06 1034.37,1741.57 1037.28,1741.11C1043.46,1740.13 1048.73,1739.3 1054.3,1738.45C1059.85,1737.6 1065.7,1736.72 1073,1735.63ZM2299.14,1747.31C2304.58,1747.93 2307.3,1748.25 2312.74,1748.88C2330.43,1752.02 2339.26,1753.64 2356.93,1756.98C2380.38,1759.96 2392.1,1761.52 2415.51,1764.77C2420.95,1765.24 2423.66,1765.48 2429.09,1765.97C2446.73,1767.33 2455.55,1768.03 2473.18,1769.48C2478.6,1770 2481.31,1770.26 2486.73,1770.79C2504.7,1774.66 2513.67,1776.66 2531.61,1780.75C2537.03,1781.63 2539.73,1782.07 2545.15,1782.96C2589.48,1789.03 2611.62,1792.26 2655.83,1799.12C2657.51,1798.13 2658.35,1797.64 2660.04,1796.65C2661.39,1794.62 2662.07,1793.6 2663.42,1791.55C2663.75,1788.36 2663.92,1786.75 2664.26,1783.55C2665.61,1766.17 2666.29,1757.47 2667.63,1740.01C2667.97,1734.83 2668.14,1732.24 2668.47,1727.05C2667.95,1717.5 2667.55,1710.46 2667.15,1703.31C2666.79,1696.88 2666.43,1690.35 2665.95,1681.8C2665.61,1678.17 2665.44,1676.35 2665.1,1672.73C2663.75,1670.63 2663.08,1669.58 2661.73,1667.49C2659.7,1666.31 2658.7,1665.72 2656.67,1664.54C2644.52,1662.04 2638.45,1660.81 2626.29,1658.4C2621.22,1657.6 2618.69,1657.21 2613.62,1656.43C2608.55,1655.97 2606.02,1655.74 2600.95,1655.28C2576.96,1654.36 2564.95,1653.91 2540.92,1653.05C2535.5,1652.58 2532.8,1652.35 2527.38,1651.89C2503.34,1648.66 2491.32,1647.1 2467.25,1644.1C2448.94,1643.85 2439.78,1643.73 2421.45,1643.52C2416.02,1643.11 2413.31,1642.92 2407.88,1642.53C2396.6,1641.38 2388.72,1640.58 2380.14,1639.74C2374.51,1639.19 2368.58,1638.62 2361.18,1637.91C2357.44,1637.39 2355.58,1637.12 2351.84,1636.61C2350.48,1635.43 2349.8,1634.84 2348.44,1633.67C2347.42,1631.7 2346.91,1630.73 2345.89,1628.77C2345.55,1626.03 2345.38,1624.67 2345.04,1621.94L2345.04,1607.02C2345.38,1602.7 2345.55,1600.54 2345.89,1596.21C2346.91,1589.48 2347.42,1586.1 2348.44,1579.35C2348.78,1575.28 2348.95,1573.25 2349.29,1569.19C2350.31,1567.32 2350.82,1566.38 2351.84,1564.51C2353.54,1563.74 2354.38,1563.35 2356.08,1562.58C2360.16,1562.42 2362.2,1562.34 2366.28,1562.18C2372.05,1562.07 2374.94,1562.01 2380.71,1561.89C2394.3,1563.1 2401.09,1563.71 2414.67,1564.97C2420.1,1565.14 2422.81,1565.22 2428.24,1565.39C2449.95,1566.63 2460.81,1567.28 2482.5,1568.6C2509.61,1568.08 2523.16,1567.8 2550.23,1567.23C2555.65,1567.73 2558.35,1567.98 2563.76,1568.48C2578.98,1570.56 2586.59,1571.62 2601.8,1573.8C2608.55,1574.08 2611.93,1574.22 2618.69,1574.49C2622.07,1574 2623.76,1573.75 2627.13,1573.25C2629.5,1571.75 2630.68,1571 2633.04,1569.48C2634.39,1567.3 2635.07,1566.2 2636.42,1564.01C2637.09,1560.19 2637.43,1558.27 2638.1,1554.44C2638.78,1544.84 2639.12,1540.03 2639.8,1530.4C2639.12,1523 2638.78,1519.31 2638.1,1511.92L2638.1,1485.46C2638.05,1484.61 2638.01,1483.91 2637.96,1483.17C2637.72,1479.18 2637.55,1476.44 2637.26,1471.85C2636.59,1466.41 2636.25,1463.7 2635.58,1458.27C2635.23,1454.76 2635.07,1453 2634.73,1449.5C2633.72,1447.61 2633.21,1446.67 2632.2,1444.79C2630.17,1443.28 2629.16,1442.52 2627.13,1441.01C2623.42,1440.53 2621.56,1440.29 2617.85,1439.82C2607.38,1439.64 2602.14,1439.55 2591.65,1439.37C2553.8,1442.86 2534.85,1444.5 2496.9,1447.61C2464.72,1448.75 2448.6,1449.29 2416.36,1450.31C2405.5,1451.22 2400.07,1451.67 2389.2,1452.55C2385.89,1452.48 2383.12,1452.42 2380.51,1452.36C2374.56,1452.23 2369.58,1452.12 2362.03,1451.97C2358.29,1451.26 2356.43,1450.9 2352.68,1450.2C2351.33,1448.88 2350.65,1448.22 2349.29,1446.9C2348.61,1445.02 2348.27,1444.08 2347.59,1442.2C2347.25,1439.23 2347.08,1437.74 2346.74,1434.77C2346.4,1430.17 2346.23,1427.87 2345.89,1423.28L2345.89,1412.42C2346.57,1405.88 2346.91,1402.6 2347.59,1396.05C2348.27,1393.03 2348.61,1391.51 2349.29,1388.48C2349.63,1386.83 2349.8,1386 2350.14,1384.35C2351.84,1382.88 2352.68,1382.14 2354.38,1380.67C2357.78,1379.9 2359.48,1379.52 2362.88,1378.75C2365.6,1378.29 2366.95,1378.06 2369.68,1377.6C2374.77,1377.25 2377.32,1377.08 2382.41,1376.73C2397.7,1376.49 2405.33,1376.37 2420.6,1376.11C2438.25,1375.4 2447.07,1375.03 2464.7,1374.28C2470.13,1373.86 2472.84,1373.65 2478.26,1373.23C2495.55,1371.31 2504.19,1370.32 2521.45,1368.29C2526.88,1367.85 2529.58,1367.62 2535,1367.16C2566.82,1365.09 2582.71,1364 2614.47,1361.73C2619.88,1360.92 2622.57,1360.5 2627.97,1359.68C2630.68,1359.43 2632.03,1359.3 2634.73,1359.05C2638.78,1358.03 2640.81,1357.51 2644.86,1356.48C2646.55,1355.03 2647.39,1354.3 2649.08,1352.84C2650.43,1350.44 2651.1,1349.24 2652.45,1346.83C2653.12,1342.88 2653.46,1340.9 2654.14,1336.94C2654.47,1332.04 2654.64,1329.59 2654.98,1324.69C2654.64,1319.87 2654.47,1317.45 2654.14,1312.64C2653.8,1304.58 2653.63,1300.55 2653.29,1292.49L2653.29,1278.72C2653.8,1272.53 2654.12,1268.65 2654.54,1263.59C2654.67,1261.96 2654.82,1260.21 2654.98,1258.21L2654.98,1236.32C2654.3,1232.22 2653.97,1230.17 2653.29,1226.08C2652.62,1223.94 2652.28,1222.86 2651.6,1220.72C2649.58,1219.48 2648.57,1218.85 2646.55,1217.62C2641.82,1217.52 2639.45,1217.47 2634.73,1217.37C2626.29,1218.92 2622.07,1219.68 2613.62,1221.2C2602.14,1224.2 2596.39,1225.68 2584.9,1228.58C2579.15,1229.88 2576.28,1230.52 2570.53,1231.8C2524.53,1238.92 2501.5,1242.25 2455.38,1248.42C2449.95,1249.21 2447.24,1249.6 2441.81,1250.38C2421.46,1254.44 2411.28,1256.4 2390.9,1260.2C2385.47,1260.92 2382.75,1261.27 2377.32,1261.97C2356.93,1263.5 2346.74,1264.23 2326.34,1265.61C2320.9,1266.26 2318.18,1266.58 2312.74,1267.23C2291.99,1269.93 2281.62,1271.23 2260.86,1273.71C2238.73,1275.04 2227.67,1275.66 2205.52,1276.8C2201.1,1277.74 2198.88,1278.2 2194.45,1279.13C2191.72,1279.64 2190.36,1279.9 2187.63,1280.4C2185.93,1281.57 2185.08,1282.15 2183.38,1283.32C2182.35,1285.42 2181.84,1286.48 2180.82,1288.58C2180.48,1292.13 2180.31,1293.91 2179.97,1297.45C2178.95,1310.62 2178.44,1317.2 2177.41,1330.33L2177.41,1339.76C2176.73,1347.34 2176.39,1351.13 2175.7,1358.7L2175.7,1373.77C2176.05,1377.77 2176.22,1379.77 2176.56,1383.77C2177.58,1397.03 2178.09,1403.67 2179.11,1416.96C2179.46,1420.97 2179.63,1422.98 2179.97,1426.99C2178.61,1440.37 2177.93,1447.04 2176.56,1460.38L2176.56,1513.75C2175.88,1527.31 2175.54,1534.09 2174.86,1547.63C2175.2,1551.65 2175.37,1553.66 2175.7,1557.69C2176.73,1571.02 2177.24,1577.69 2178.27,1591.04C2178.61,1595.07 2178.78,1597.09 2179.11,1601.12C2178.78,1614.43 2178.61,1621.09 2178.27,1634.39L2178.27,1644.44C2176.9,1657.69 2176.22,1664.3 2174.86,1677.52L2174.86,1686.92C2174.51,1690.67 2174.35,1692.53 2174.01,1696.28C2174.35,1700.32 2174.51,1702.34 2174.86,1706.38C2175.54,1712.21 2175.88,1715.12 2176.56,1720.96C2177.24,1723.78 2177.58,1725.19 2178.27,1728.01C2179.29,1729.86 2179.8,1730.78 2180.82,1732.64C2183.2,1734.11 2184.4,1734.85 2186.78,1736.33C2190.87,1737.22 2192.92,1737.66 2197,1738.55C2201.38,1739.16 2204.93,1739.66 2208.27,1740.13C2213.79,1740.91 2218.75,1741.62 2225.96,1742.67C2255.25,1744.36 2269.88,1745.29 2299.14,1747.31ZM1209.5,1749.84C1209.84,1746.4 1210.01,1744.68 1210.35,1741.24C1210.01,1737.6 1209.84,1735.78 1209.5,1732.15C1208.82,1726.09 1208.48,1723.06 1207.8,1716.99C1207.45,1713.1 1207.29,1711.16 1206.95,1707.27L1206.95,1665.12C1207.29,1652.16 1207.45,1645.68 1207.8,1632.73L1207.8,1622.96C1207.45,1610.03 1207.29,1603.55 1206.95,1590.62L1206.95,1580.84C1207.63,1567.88 1207.97,1561.41 1208.65,1548.47L1208.65,1538.7C1210.02,1525.76 1210.7,1519.3 1212.06,1506.38L1212.06,1496.63C1210.7,1483.68 1210.02,1477.2 1208.65,1464.23C1208.65,1460.32 1208.65,1458.37 1208.65,1454.46C1209.33,1441.54 1209.67,1435.08 1210.35,1422.18L1210.35,1412.42C1209.33,1399.43 1208.82,1392.94 1207.8,1379.93C1208.14,1376.04 1208.31,1374.1 1208.65,1370.22C1209.67,1360.51 1210.18,1355.66 1211.2,1345.97L1211.2,1336.82C1209.84,1333.31 1209.16,1331.55 1207.8,1328.03C1205.07,1325.87 1203.7,1324.79 1200.98,1322.62C1196.54,1321.79 1194.32,1321.37 1189.89,1320.53C1186.82,1320.28 1185.28,1320.16 1182.21,1319.91C1181.71,1319.85 1181.32,1319.8 1180.85,1319.74L1180.08,1327.17L1179.01,1337.2L1178.57,1342.28L1178.26,1345.75L1178.7,1351.36L1180.73,1377.07L1180.78,1377.62L1180.78,1388.3L1180.75,1388.67L1180.12,1400.59L1179.07,1420.58L1179.07,1425.09L1179.07,1429.25L1181.49,1452.23L1182.4,1460.92L1182.48,1461.65L1182.48,1472.88L1182.4,1473.61L1181.39,1483.24L1179.07,1505.19L1179.07,1514.59L1179.05,1514.96L1178.4,1527.35L1177.37,1546.97L1177.36,1556L1177.78,1571.98L1178.22,1588.72L1178.21,1598.86L1177.77,1615.61L1177.36,1630.88L1177.36,1672.41L1177.73,1676.67L1178.13,1681.19L1179.39,1692.38L1179.86,1696.6L1180.28,1701.15L1180.71,1705.69L1180.84,1707.04L1180.7,1708.38L1180.26,1712.81L1179.85,1716.99L1179.58,1719.66L1174.09,1730.27L1172.71,1732.95L1170.34,1734.83L1164.4,1739.55L1161.42,1741.92L1157.65,1742.45L1156.64,1742.6L1148.64,1743.74C1143.2,1744.66 1140.48,1745.13 1135.05,1746.07L1134.15,1746.23L1133.24,1746.27C1114.97,1747.03 1105.79,1747.45 1087.62,1748.35L1074.68,1749.54C1059.94,1751.74 1051.18,1753.08 1038.41,1755.12C1038.63,1757.85 1038.87,1760.72 1039.12,1763.95C1039.8,1767.54 1040.15,1769.34 1040.83,1772.92C1042.87,1774.79 1043.89,1775.73 1045.93,1777.6C1050.7,1777.87 1053.08,1778 1057.85,1778.28C1063.3,1777.7 1066.02,1777.42 1071.47,1776.85C1089.51,1773.96 1098.54,1772.56 1116.6,1769.87C1122.05,1769.36 1124.77,1769.11 1130.23,1768.62C1148.63,1767.71 1157.83,1767.28 1176.25,1766.51C1181.7,1765.56 1184.43,1765.1 1189.89,1764.17C1193.64,1763.63 1195.51,1763.36 1199.27,1762.83C1201.65,1760.92 1202.85,1759.98 1205.24,1758.09C1206.94,1754.78 1207.8,1753.13 1209.5,1749.84ZM2123.07,1772.84C2127.03,1773.27 2129.02,1773.48 2132.98,1773.91C2135.11,1773.03 2136.18,1772.58 2138.32,1771.69C2139.24,1770.1 2139.69,1769.31 2140.6,1767.72C2141.53,1766.42 2141.98,1765.76 2142.89,1764.45C2141.37,1761.76 2140.6,1760.41 2139.08,1757.72C2130.54,1748.95 2124.71,1743.02 2118.14,1736.44L2116.22,1739.76L2113.85,1743.88L2109.46,1745.7L2107.85,1746.38L2104.1,1747.94L2100.78,1749.32L2097.21,1748.92L2087.33,1747.86L2086.88,1747.81L2086.42,1747.73C2070.18,1744.9 2061.97,1743.52 2045.87,1740.93L2033.95,1739.83C2024.11,1738.79 2016.99,1738.46 2009.45,1738.11C2002.67,1737.8 1995.65,1737.47 1986.55,1736.64L1974.65,1735.74C1955.79,1735.12 1945.99,1734.85 1927.42,1734.47C1932.76,1739.82 1937.5,1744.61 1944.42,1751.64C1947.17,1753.63 1948.85,1756.14 1951.6,1758.15C1955.27,1758.62 1957.1,1758.86 1960.77,1759.35C1980.33,1759.75 1990.1,1760.02 2009.66,1760.66C2014.55,1761.02 2016.98,1761.21 2021.87,1761.59C2041.12,1763.35 2050.43,1762.79 2069.67,1764.81C2074.55,1765.25 2076.99,1765.48 2081.88,1765.94C2098.35,1768.59 2106.6,1769.97 2123.07,1772.84ZM1496.38,1580.48C1497.07,1568.03 1497.41,1561.8 1498.1,1549.34L1498.1,1540.12C1497.75,1527.67 1497.58,1521.44 1497.24,1508.98L1497.24,1499.76C1497.58,1487.08 1497.75,1480.73 1498.09,1468.05L1498.09,1458.83C1497.75,1446.37 1497.58,1440.14 1497.24,1427.68L1497.24,1371.17C1496.89,1367.48 1496.73,1365.62 1496.38,1361.92C1495.7,1355.9 1495.36,1352.9 1494.67,1346.87C1494.33,1344.33 1494.16,1343.05 1493.82,1340.5C1493.13,1339.1 1492.79,1338.4 1492.11,1336.99C1488.35,1336.4 1486.48,1336.11 1482.71,1335.52C1477.07,1335.33 1472.2,1335.15 1467.65,1334.98L1467.65,1390.71L1468.18,1410.16L1468.51,1422.25L1468.5,1431.86L1468.07,1447.98L1467.66,1463.18L1467.65,1472.02L1467.97,1483.47L1468.51,1503.54L1468.51,1513.15L1468.49,1513.53L1467.02,1540.31L1466.8,1544.29L1466.8,1593.5L1467.87,1606.45L1469.32,1624.02L1469.37,1624.6L1469.37,1635.16L1469.28,1635.92L1465.95,1666.36L1465.94,1675.2L1465.52,1691.02L1465.09,1706.57L1465.09,1718.14L1461.67,1722.09L1460.4,1723.56L1459.11,1725.05L1456.38,1728.21L1452.37,1729.35L1445.56,1731.31L1444.22,1731.7L1442.83,1731.81L1430.9,1732.8L1430.48,1732.83L1430.05,1732.85C1412.67,1733.25 1403.98,1733.48 1386.79,1734.02C1365.67,1734.97 1355.11,1735.49 1334,1736.65L1333.61,1736.67L1328.42,1736.67C1327.17,1736.67 1326,1736.67 1324.83,1736.67C1325.46,1742.14 1325.81,1745.17 1326.46,1750.87L1326.46,1756.86C1327.49,1757.51 1328,1757.84 1329.02,1758.49C1331.07,1758.85 1332.09,1759.02 1334.14,1759.37C1351.21,1759.26 1359.74,1759.23 1376.82,1759.24C1397.99,1758.08 1408.58,1757.55 1429.75,1756.6C1447.17,1756.06 1455.89,1755.82 1473.32,1755.42C1478.1,1755.01 1480.49,1754.82 1485.28,1754.42C1488.01,1753.64 1489.38,1753.25 1492.11,1752.46C1493.13,1751.28 1493.65,1750.68 1494.67,1749.5L1494.67,1743.15C1495.02,1730.45 1495.19,1724.1 1495.53,1711.4L1495.53,1702.17C1496.9,1689.69 1497.58,1683.45 1498.95,1670.97L1498.95,1661.75C1497.92,1649.32 1497.41,1643.1 1496.38,1630.65L1496.38,1580.48ZM1767.95,1753C1769.65,1752.1 1770.51,1751.65 1772.22,1750.76C1772.56,1748.49 1772.73,1747.35 1773.08,1745.08C1773.42,1741.65 1773.58,1739.95 1773.93,1736.52L1773.93,1727.96C1773.59,1722.48 1773.42,1719.74 1773.08,1714.25L1773.08,1705.12C1773.76,1692.81 1774.1,1686.65 1774.78,1674.33L1774.78,1634.95C1775.47,1631.99 1775.81,1630.51 1776.5,1627.54L1795.65,1613.93C1787.51,1605.68 1782.36,1600.48 1773.36,1591.43L1772.9,1590.96L1772.56,1590.56L1769.21,1586.65L1754.7,1596.96L1754.55,1597.63L1754.55,1635.8L1754.53,1636.2L1752.84,1666.6L1752.84,1674.9L1753.24,1681.32L1753.67,1688.17L1753.7,1688.6L1753.7,1698.31L1753.02,1705.05L1752.77,1707.55L1752.73,1707.9L1752.68,1708.24L1752.26,1711.08L1751.83,1713.93L1750.75,1720.99L1744.42,1724.28L1740.21,1726.49L1737.8,1727.75L1735.1,1728.02L1724.88,1729.05L1724.4,1729.1L1723.91,1729.12C1713.35,1729.47 1708.06,1729.66 1697.49,1730.07L1697.19,1730.08L1696.89,1730.08C1688.67,1730.04 1683.65,1730.03 1676.85,1730.03L1670.06,1730.03L1669.66,1730C1654.21,1729.12 1646.38,1728.7 1631.16,1727.95L1618.37,1728.6C1609.83,1729.15 1603.42,1729.58 1597.02,1730.01L1597.02,1738.39C1597.36,1741.59 1597.53,1743.19 1597.88,1746.39C1598.22,1748.45 1598.39,1749.47 1598.73,1751.53C1600.1,1752.87 1600.78,1753.55 1602.15,1754.9C1604.88,1755.53 1606.25,1755.84 1608.99,1756.48C1626.08,1755.23 1634.62,1754.64 1651.72,1753.54C1657.18,1753.25 1659.92,1753.11 1665.39,1752.84C1681.12,1753.62 1688.97,1754.04 1704.7,1754.93C1715.3,1754.92 1720.6,1754.93 1731.2,1754.98C1741.8,1754.58 1747.1,1754.39 1757.69,1754.04C1761.79,1753.62 1763.84,1753.4 1767.95,1753ZM1926.53,1720.44C1946.08,1720.84 1955.86,1721.1 1975.41,1721.75C1980.3,1722.11 1982.74,1722.3 1987.63,1722.67C2006.88,1724.43 2016.19,1723.87 2035.42,1725.9C2040.3,1726.34 2042.75,1726.56 2047.63,1727.02C2064.11,1729.67 2072.35,1731.05 2088.82,1733.93C2092.79,1734.35 2094.77,1734.57 2098.73,1735C2100.88,1734.11 2101.94,1733.67 2104.07,1732.78C2104.99,1731.19 2105.45,1730.4 2106.36,1728.81C2107.04,1727.84 2107.51,1727.17 2108.05,1726.39C2108.25,1726.12 2108.41,1725.88 2108.65,1725.54C2107.12,1722.84 2106.36,1721.49 2104.84,1718.8C2091.42,1705.04 2084.71,1698.28 2071.28,1684.97C2068.23,1681.39 2066.7,1679.6 2063.65,1676.05C2050.53,1662.59 2043.97,1655.97 2030.84,1642.9C2027.79,1639.44 2026.26,1637.72 2023.21,1634.28C2010.69,1621.07 2004.43,1614.55 1991.91,1601.67C1988.85,1598.32 1987.33,1596.64 1984.28,1593.31C1972.37,1579.98 1966.4,1573.4 1954.49,1560.33C1951.43,1557.07 1949.9,1555.44 1946.85,1552.19C1934.38,1541.09 1927.62,1535.14 1915.99,1524.98C1915.08,1524.19 1914.21,1523.43 1913.24,1522.58C1909.87,1519.38 1908.19,1517.79 1904.83,1514.6C1894.92,1503.23 1889.35,1496.88 1880.5,1486.85C1887.97,1482.15 1892.35,1479.38 1900.31,1474.32C1904.07,1471.49 1905.95,1470.08 1909.71,1467.24C1922.01,1456.85 1928.15,1451.61 1940.45,1441.05C1943.86,1438.17 1945.57,1436.73 1948.98,1433.83C1961.62,1423.22 1967.94,1417.86 1980.57,1407.05C1983.98,1404.09 1985.69,1402.61 1989.1,1399.65C2002.42,1388.98 2009.08,1383.6 2022.38,1372.68C2025.8,1369.65 2027.5,1368.13 2030.92,1365.08C2042.86,1353.42 2048.83,1347.53 2060.77,1335.61C2062.1,1334.39 2063.15,1333.43 2064.16,1332.5C2065.75,1331.04 2067.21,1329.69 2069.3,1327.76C2082.26,1316.68 2088.73,1311.07 2101.7,1299.67C2104.42,1297.23 2105.79,1296.01 2108.51,1293.56C2108.85,1292.79 2109.03,1292.4 2109.37,1291.63C2108.68,1291.19 2108.35,1290.97 2107.66,1290.52C2105.95,1289.67 2105.1,1289.24 2103.4,1288.4C2099.65,1288.45 2097.78,1288.49 2094.02,1288.54C2081.06,1289.83 2074.58,1290.45 2061.62,1291.66C2056.16,1292.06 2053.43,1292.26 2047.98,1292.65C2035.01,1293.33 2028.53,1293.66 2015.55,1294.27C1994.74,1294.67 1984.33,1294.83 1963.5,1295.05C1958.03,1295.35 1955.3,1295.5 1949.84,1295.79C1934.13,1297.34 1926.28,1298.08 1910.56,1299.49C1907.14,1300.11 1905.43,1300.42 1902.02,1301.03C1899.28,1303.02 1897.92,1304.01 1895.19,1305.99C1883.23,1315.8 1877.25,1320.66 1865.29,1330.3C1861.88,1333.19 1860.17,1334.63 1856.75,1337.51C1846.15,1347.77 1840.86,1352.86 1830.26,1363C1811.81,1378.36 1802.58,1385.95 1784.12,1401.05C1779.41,1405.48 1775.78,1408.9 1772.24,1412.22C1768.91,1415.33 1765.67,1418.37 1761.77,1422.01C1760.48,1423.23 1759.1,1424.5 1757.63,1425.88C1753.88,1427.5 1752,1428.32 1748.23,1429.94C1745.5,1429.49 1744.13,1429.27 1741.4,1428.83C1740.71,1426.32 1740.37,1425.07 1739.69,1422.56C1739.35,1410.46 1739.17,1404.41 1738.83,1392.32C1738.83,1388.66 1738.83,1386.84 1738.83,1383.19C1737.8,1371.1 1737.29,1365.05 1736.27,1352.97C1736.61,1349.31 1736.78,1347.49 1737.12,1343.83C1737.15,1343.66 1737.17,1343.53 1737.19,1343.36C1738.16,1336.16 1738.68,1332.35 1739.69,1324.98C1740.03,1322 1740.2,1320.52 1740.54,1317.55C1740.2,1315.27 1740.03,1314.13 1739.69,1311.85C1738.66,1310.04 1738.15,1309.13 1737.12,1307.32C1735.41,1306.65 1734.56,1306.32 1732.85,1305.65C1729.08,1305.47 1727.21,1305.37 1723.45,1305.18C1707.72,1304.64 1699.86,1304.35 1684.13,1303.69C1680.86,1303.7 1678.55,1303.7 1676.06,1303.7L1673.28,1303.7C1672.39,1303.7 1671.5,1303.7 1670.46,1303.7C1654.73,1304.6 1646.87,1305.02 1631.14,1305.8C1625.67,1305.75 1622.94,1305.73 1617.47,1305.67C1606.87,1304.87 1601.58,1304.46 1590.98,1303.6C1585.85,1303.29 1583.28,1303.13 1578.16,1302.81C1574.74,1303.2 1573.03,1303.4 1569.61,1303.79C1568.58,1304.91 1568.08,1305.48 1567.05,1306.6C1566.71,1309.34 1566.54,1310.71 1566.2,1313.45C1565.17,1325.8 1564.66,1331.98 1563.63,1344.34L1563.63,1353.5C1564.32,1381.92 1564.66,1396.13 1565.34,1424.54L1565.34,1433.7C1564.66,1446.3 1564.32,1452.6 1563.63,1465.19L1563.63,1474.35C1564.32,1486.73 1564.66,1492.92 1565.34,1505.3L1565.34,1545.38C1565,1549.04 1564.83,1550.87 1564.49,1554.54C1563.46,1567.15 1562.95,1573.45 1561.92,1586.07C1561.58,1589.73 1561.41,1591.57 1561.07,1595.24L1561.07,1635.34C1562.43,1647.7 1563.12,1653.88 1564.48,1666.23C1564.14,1670.12 1563.98,1672.07 1563.63,1675.97C1563.29,1681.71 1563.12,1684.58 1562.78,1690.31L1562.78,1699.48C1563.12,1702.67 1563.29,1704.28 1563.63,1707.48C1563.98,1709.53 1564.14,1710.55 1564.48,1712.61C1565.85,1713.96 1566.54,1714.63 1567.9,1715.98C1570.64,1716.61 1572,1716.92 1574.74,1717.56C1584.04,1716.88 1590.82,1716.4 1597.82,1715.92C1603.67,1715.52 1609.68,1715.12 1617.47,1714.62C1622.94,1714.33 1625.67,1714.19 1631.14,1713.92C1646.87,1714.7 1654.73,1715.12 1670.46,1716.02L1679.27,1716.02C1680.29,1716.02 1681.34,1716.02 1682.33,1716.02C1683.3,1716.02 1684.33,1716.03 1685.3,1716.03C1686.34,1716.03 1687.44,1716.03 1688.52,1716.03C1689.14,1716.04 1689.77,1716.04 1690.42,1716.04C1692.42,1716.05 1694.53,1716.05 1696.95,1716.07C1707.55,1715.66 1712.85,1715.47 1723.45,1715.12C1727.55,1714.7 1729.6,1714.49 1733.7,1714.08C1735.41,1713.18 1736.27,1712.74 1737.98,1711.85C1738.32,1709.57 1738.49,1708.43 1738.83,1706.16C1739.17,1702.74 1739.34,1701.03 1739.69,1697.6L1739.69,1689.04C1739.35,1683.56 1739.17,1680.82 1738.83,1675.34L1738.83,1666.21C1739.51,1653.9 1739.85,1647.74 1740.54,1635.42L1740.54,1596.04C1741.23,1593.08 1741.57,1591.59 1742.25,1588.62L1771.45,1567.88C1772.03,1568.1 1772.59,1568.3 1773.35,1568.58C1774.88,1570.92 1775.65,1572.08 1777.17,1574.4C1779.62,1577.26 1780.84,1578.69 1783.29,1581.55C1793.38,1591.7 1798.43,1596.79 1808.52,1607.03C1811.58,1610.18 1813.11,1611.76 1816.17,1614.92C1828.09,1625.22 1834.05,1630.4 1845.98,1640.85C1848.73,1643.78 1850.1,1645.25 1852.86,1648.19C1861.28,1658.6 1865.97,1664.44 1873.55,1673.92C1874.51,1675.12 1875.49,1676.35 1876.55,1677.69C1879.3,1680.93 1880.68,1682.56 1883.43,1685.82C1888.9,1691.27 1892.98,1695.35 1897.08,1699.48C1901,1703.42 1904.95,1707.41 1910.18,1712.72C1912.92,1714.72 1914.6,1717.23 1917.35,1719.23C1921.02,1719.71 1922.86,1719.95 1926.53,1720.44ZM1333.23,1722.66C1354.4,1721.5 1364.98,1720.97 1386.16,1720.03C1403.58,1719.48 1412.3,1719.24 1429.73,1718.84C1434.51,1718.44 1436.9,1718.24 1441.68,1717.85C1444.42,1717.06 1445.78,1716.67 1448.52,1715.88C1449.55,1714.7 1450.05,1714.1 1451.08,1712.92L1451.08,1706.57C1451.42,1693.87 1451.59,1687.52 1451.94,1674.83L1451.94,1665.6C1453.3,1653.11 1453.99,1646.87 1455.36,1634.4L1455.36,1625.17C1454.33,1612.74 1453.82,1606.52 1452.79,1594.07L1452.79,1543.9C1453.48,1531.45 1453.82,1525.22 1454.5,1512.77L1454.5,1503.54C1454.16,1491.09 1453.99,1484.86 1453.65,1472.4L1453.65,1463.18C1453.99,1450.5 1454.16,1444.15 1454.5,1431.48L1454.5,1422.25C1454.16,1409.8 1453.99,1403.56 1453.65,1391.1L1453.65,1334.6C1453.64,1334.54 1453.64,1334.5 1453.63,1334.45C1453.3,1330.85 1453.13,1328.99 1452.79,1325.35C1452.11,1319.33 1451.76,1316.32 1451.08,1310.29C1450.74,1307.75 1450.57,1306.48 1450.23,1303.92C1449.55,1302.52 1449.2,1301.82 1448.52,1300.41C1444.76,1299.83 1442.88,1299.53 1439.12,1298.94C1417.93,1298.21 1407.34,1297.79 1386.16,1296.84C1370.45,1296.6 1362.6,1296.45 1346.88,1296.11C1341.42,1295.83 1338.69,1295.67 1333.23,1295.38C1325.03,1294.69 1320.93,1294.34 1312.74,1293.62C1307.62,1293.56 1305.06,1293.52 1299.94,1293.45C1297.2,1293.28 1295.84,1293.19 1293.11,1293.02C1289.7,1293.05 1287.99,1293.05 1284.58,1293.08C1282.53,1293.9 1281.5,1294.32 1279.46,1295.15C1278.43,1297.72 1277.92,1299.01 1276.9,1301.59C1277.58,1314.84 1277.92,1321.46 1278.6,1334.7L1278.6,1366.35C1278.61,1368.33 1278.6,1370.34 1278.6,1372.44C1278.6,1374.53 1278.61,1376.71 1278.61,1379.01L1278.61,1386.31C1278.27,1399.26 1278.1,1405.73 1277.75,1418.7L1277.75,1428.3C1278.1,1441.51 1278.27,1448.12 1278.61,1461.32L1278.61,1512.93C1278.95,1525.89 1279.12,1532.37 1279.46,1545.32C1279.46,1548.2 1279.46,1550 1279.46,1552.35L1279.46,1554.92C1280.49,1568.1 1281,1574.69 1282.02,1587.85C1281.68,1591.7 1281.51,1593.62 1281.17,1597.47C1280.14,1610.45 1279.63,1616.95 1278.61,1629.95C1278.27,1633.8 1278.1,1635.73 1277.75,1639.58C1278.78,1652.5 1279.29,1658.96 1280.31,1671.86L1280.31,1680.86C1280.65,1684.45 1280.82,1686.23 1281.17,1689.81L1281.17,1699.4C1281.85,1705.36 1282.19,1708.34 1282.87,1714.29L1282.87,1720.28C1283.9,1720.93 1284.4,1721.26 1285.43,1721.91C1287.48,1722.27 1288.5,1722.44 1290.55,1722.79C1304.4,1722.7 1312.66,1722.67 1324.4,1722.67C1325.7,1722.66 1327.01,1722.66 1328.42,1722.66L1333.23,1722.66ZM2652.73,1546.18L2652.08,1555.42L2652.03,1556.16L2651.9,1556.88L2651.79,1557.51L2650.21,1566.45L2649.75,1569.08L2648.35,1571.35L2644.96,1576.85L2643.28,1579.56L2640.59,1581.28L2634.64,1585.08L2632.13,1586.67L2629.19,1587.1L2620.73,1588.35L2619.43,1588.55L2618.12,1588.49L2601.23,1587.8L2600.52,1587.77L2599.81,1587.67C2584.74,1585.52 2577.15,1584.45 2562.17,1582.4L2549.73,1581.25C2523.18,1581.81 2509.63,1582.09 2482.78,1582.61L2482.21,1582.62L2481.64,1582.59C2459.97,1581.26 2449.13,1580.62 2427.8,1579.39L2418,1579.09L2414.24,1578.97L2413.8,1578.96L2413.38,1578.92C2400.08,1577.69 2393.3,1577.08 2380.23,1575.91L2370.69,1576.1L2366.83,1576.18L2362.75,1576.34L2362.4,1580.52L2362.36,1580.98L2362.29,1581.43L2362.15,1582.36L2359.81,1597.81L2359.48,1602.03L2359.05,1607.57L2359.05,1621.07L2359.35,1623.51L2361.51,1623.81L2362.82,1623.99C2370.43,1624.72 2376.47,1625.3 2382.24,1625.87C2382.38,1624.93 2382.52,1624.03 2382.68,1622.94C2383.02,1618.88 2383.19,1616.85 2383.53,1612.78C2384.55,1610.91 2385.06,1609.98 2386.08,1608.1C2387.78,1607.33 2388.63,1606.95 2390.33,1606.17C2394.4,1606.01 2396.44,1605.93 2400.52,1605.78C2406.3,1605.66 2409.18,1605.6 2414.96,1605.48C2428.54,1606.69 2435.33,1607.3 2448.91,1608.56C2454.34,1608.73 2457.05,1608.81 2462.48,1608.98C2484.2,1610.23 2495.05,1610.87 2516.74,1612.2C2543.86,1611.67 2557.4,1611.4 2584.47,1610.83C2589.89,1611.32 2592.59,1611.57 2598,1612.08C2613.23,1614.15 2620.83,1615.22 2636.04,1617.4C2642.8,1617.67 2646.18,1617.8 2652.93,1618.08C2656.31,1617.59 2658,1617.34 2661.38,1616.84C2663.74,1615.34 2664.92,1614.59 2667.29,1613.08C2668.64,1610.89 2669.31,1609.8 2670.66,1607.6C2671.34,1603.78 2671.68,1601.86 2672.35,1598.04C2673.03,1588.43 2673.36,1583.62 2674.04,1574C2673.36,1566.6 2673.03,1562.9 2672.35,1555.52L2672.35,1529.05C2672.01,1523.61 2671.85,1520.88 2671.5,1515.44C2670.83,1510 2670.49,1507.29 2669.82,1501.86C2669.48,1498.35 2669.31,1496.6 2668.97,1493.09C2667.96,1491.2 2667.46,1490.26 2666.44,1488.38C2664.42,1486.87 2663.4,1486.11 2661.38,1484.6C2657.66,1484.12 2655.8,1483.88 2652.09,1483.41L2652.04,1483.41L2652.09,1484.6L2652.11,1485.03L2652.11,1511.28L2652.76,1518.31L2653.75,1529.13L2653.85,1530.25L2653.77,1531.38L2652.73,1546.18ZM2128.27,1327.46C2115.31,1328.75 2108.83,1329.37 2095.86,1330.57C2092.15,1330.85 2089.68,1331.03 2086.77,1331.24C2084.28,1333.38 2081.62,1335.66 2078.59,1338.25L2070.46,1345.73C2058.61,1357.56 2052.62,1363.47 2040.7,1375.1L2040.48,1375.31L2040.26,1375.51L2031.7,1383.15L2031.49,1383.33L2031.27,1383.51C2017.98,1394.41 2011.3,1399.83 1998.07,1410.41L1989.68,1417.68C1977.01,1428.54 1970.67,1433.91 1958.04,1444.53L1957.5,1444.98L1949.57,1451.68C1937.24,1462.27 1931.08,1467.52 1918.75,1477.94L1918.46,1478.18L1918.15,1478.42L1908.74,1485.51L1908.3,1485.85L1907.83,1486.15C1905.61,1487.55 1903.67,1488.78 1901.87,1489.92C1905.8,1494.4 1909.79,1498.97 1914.95,1504.9L1922.67,1512.21C1924.71,1514 1926.57,1515.62 1928.35,1517.17C1930.23,1515.98 1932.23,1514.72 1934.56,1513.23C1938.32,1510.41 1940.2,1508.99 1943.95,1506.15C1956.25,1495.76 1962.39,1490.53 1974.69,1479.97C1978.11,1477.09 1979.81,1475.65 1983.23,1472.75C1995.87,1462.14 2002.18,1456.78 2014.81,1445.96C2018.23,1443.01 2019.93,1441.53 2023.35,1438.57C2036.66,1427.9 2043.32,1422.51 2056.62,1411.6C2060.04,1408.56 2061.75,1407.05 2065.16,1403.99C2077.1,1392.34 2083.07,1386.45 2095.01,1374.53C2098.42,1371.4 2100.13,1369.83 2103.54,1366.68C2116.5,1355.6 2122.98,1349.99 2135.94,1338.59C2138.67,1336.15 2140.03,1334.93 2142.76,1332.48C2143.1,1331.7 2143.26,1331.32 2143.61,1330.55C2142.93,1330.1 2142.59,1329.88 2141.9,1329.44C2140.2,1328.59 2139.35,1328.16 2137.64,1327.31C2133.89,1327.37 2132.02,1327.4 2128.27,1327.46ZM2651.5,1369.24L2648.32,1370.05L2638.16,1372.63L2637.12,1372.9L2631.22,1373.45L2629.68,1373.59L2616.55,1375.58L2616.01,1375.66L2615.47,1375.7C2583.68,1377.98 2567.76,1379.07 2536.18,1381.12L2522.85,1382.23C2505.71,1384.25 2497.05,1385.24 2479.81,1387.16L2479.35,1387.2L2465.3,1388.27C2447.66,1389.03 2438.83,1389.4 2420.84,1390.11C2405.69,1390.37 2398.04,1390.5 2383,1390.73L2371.33,1391.53L2365.59,1392.5L2362.59,1393.17L2361.44,1398.31L2360.45,1407.85L2359.9,1413.15L2359.9,1422.76L2360.48,1430.6L2360.69,1433.46L2361.15,1437.55L2363.49,1437.99L2382.11,1438.38C2382.61,1436.16 2382.96,1434.63 2383.53,1432.07C2383.87,1430.42 2384.04,1429.59 2384.38,1427.94C2386.08,1426.47 2386.93,1425.73 2388.63,1424.26C2392.03,1423.49 2393.72,1423.11 2397.12,1422.34C2399.84,1421.88 2401.2,1421.65 2403.92,1421.19C2409.01,1420.84 2411.56,1420.67 2416.65,1420.31C2431.94,1420.08 2439.58,1419.96 2454.85,1419.7C2472.5,1418.99 2481.32,1418.62 2498.95,1417.87C2504.37,1417.45 2507.08,1417.25 2512.51,1416.83C2529.79,1414.9 2538.43,1413.91 2555.7,1411.88C2561.12,1411.44 2563.83,1411.21 2569.25,1410.75C2601.06,1408.68 2616.96,1407.59 2648.71,1405.32C2654.12,1404.51 2656.82,1404.1 2662.22,1403.28C2664.92,1403.02 2666.28,1402.9 2668.97,1402.64C2673.03,1401.62 2675.05,1401.1 2679.1,1400.07C2680.79,1398.62 2681.63,1397.89 2683.32,1396.43C2684.67,1394.03 2685.35,1392.83 2686.7,1390.42C2687.37,1386.47 2687.71,1384.5 2688.38,1380.53C2688.72,1375.63 2688.89,1373.18 2689.22,1368.28C2688.89,1363.46 2688.72,1361.05 2688.38,1356.23C2688.04,1348.17 2687.88,1344.14 2687.54,1336.08L2687.54,1322.31C2688.21,1314.12 2688.55,1310.02 2689.22,1301.8L2689.22,1279.91C2688.55,1275.81 2688.21,1273.77 2687.54,1269.68C2686.86,1267.53 2686.53,1266.45 2685.85,1264.31C2683.83,1263.07 2682.81,1262.44 2680.79,1261.21C2676.06,1261.11 2673.7,1261.06 2668.97,1260.96C2668.91,1260.98 2668.87,1260.98 2668.81,1260.99L2667.3,1279.3L2667.3,1292.2L2667.85,1305.14L2668.11,1311.65L2668.66,1319.43L2668.95,1323.71L2669.03,1324.68L2668.96,1325.65L2668.67,1329.86L2668.11,1337.91L2668.06,1338.6L2667.95,1339.28L2666.99,1344.94L2666.26,1349.18L2665.86,1351.57L2664.67,1353.69L2661.94,1358.55L2661.28,1359.71L2660.03,1361.89L2658.18,1363.48L2653.99,1367.1L2651.5,1369.24ZM808.204,1277.97C803.804,1276.7 801.6,1276.06 797.196,1274.78C794.133,1274.12 791.967,1273.65 789.638,1273.15L789.638,1277.49L789.596,1278.03L787.796,1301.17L787.058,1310.68L786.588,1317.14L786.238,1321.96L785.808,1346.18L785.4,1369.03L785.4,1428.64L785.708,1431.86L785.913,1433.96L788.833,1434.31L800.254,1435.4L810.75,1435.76C812.242,1435.6 813.642,1435.46 814.983,1435.33L814.983,1403.28C815.325,1384.18 815.492,1374.64 815.829,1355.57C816.171,1350.9 816.338,1348.57 816.679,1343.91C817.696,1330.8 818.2,1324.26 819.217,1311.19L819.217,1300.19C818.879,1298.09 818.708,1297.04 818.371,1294.94C817.017,1290.93 816.338,1288.92 814.983,1284.89C812.271,1282.14 810.917,1280.75 808.204,1277.97ZM1773.93,1363.9C1774.28,1360.92 1774.44,1359.43 1774.78,1356.46C1774.44,1354.18 1774.28,1353.05 1773.93,1350.77C1772.9,1348.95 1772.39,1348.05 1771.36,1346.23C1769.66,1345.56 1768.8,1345.23 1767.09,1344.56C1763.33,1344.38 1761.45,1344.29 1757.69,1344.1C1755.38,1344.02 1753.28,1343.94 1751.25,1343.88L1751.05,1345.43L1750.44,1351.88L1750.33,1353.03L1751.56,1367.54L1752.79,1382L1752.84,1382.6L1752.84,1383.19L1752.84,1387.74L1752.84,1391.92L1753.26,1407.05L1753.37,1410.69C1759.56,1404.9 1764.28,1400.48 1770.73,1394.42C1770.65,1393.59 1770.59,1392.78 1770.51,1391.89C1770.85,1388.23 1771.02,1386.4 1771.37,1382.75C1772.39,1375.21 1772.9,1371.44 1773.93,1363.9ZM1650,813.629C1650.49,813.758 1651.38,813.854 1651.88,813.963L1649.1,818.946L1636.15,795.692L1649.83,795.692L1607.9,720.433L1605.99,720.433L1581.73,763.979C1564.82,745.458 1540.75,735.238 1529.4,710.529L1534.94,710.529L1516.61,677.637L1526.47,677.637L1496.25,623.404L1494.88,623.404L1473.62,661.571L1466.17,648.221L1476.04,648.221L1445.82,593.983L1444.45,593.983L1414.23,648.221L1424.09,648.221L1417.14,660.7C1417.09,660.662 1417.04,660.625 1417,660.583C1416.85,660.454 1416.7,660.321 1416.56,660.192C1415.96,659.658 1415.38,659.117 1414.8,658.554C1414.7,658.454 1414.6,658.35 1414.49,658.25C1413.87,657.633 1413.25,657 1412.65,656.35C1412.6,656.3 1412.56,656.25 1412.51,656.2C1411.3,654.888 1410.14,653.5 1409.03,652.05L1401.06,637.75C1401.39,637.846 1401.73,637.962 1402.06,638.008C1401.99,637.863 1401.99,637.792 1401.91,637.721C1400.76,635.042 1399.74,632.221 1398.73,629.329C1403.07,632.004 1405.82,631.717 1411.25,628.75C1410.53,628.342 1409.83,627.904 1409.14,627.442C1409.03,627.375 1408.93,627.308 1408.83,627.237C1408.16,626.783 1407.51,626.3 1406.88,625.796C1406.79,625.725 1406.7,625.65 1406.61,625.579C1405.97,625.058 1405.34,624.512 1404.73,623.942C1404.72,623.933 1404.71,623.929 1404.71,623.921C1404.13,623.367 1403.56,622.779 1403.01,622.179C1402.88,622.033 1402.75,621.892 1402.61,621.746C1402.11,621.179 1401.62,620.592 1401.15,619.983C1400.98,619.775 1400.83,619.563 1400.67,619.35C1400.32,618.887 1399.98,618.408 1399.65,617.921C1399.4,617.558 1399.15,617.188 1398.91,616.808C1398.63,616.371 1398.36,615.921 1398.09,615.462C1397.86,615.079 1397.64,614.696 1397.42,614.3C1397.25,613.963 1397.07,613.612 1396.88,613.271C1396.51,612.554 1396.15,611.821 1395.81,611.062C1395.72,610.862 1395.62,610.658 1395.54,610.454C1395.07,609.387 1394.61,608.292 1394.19,607.15C1391.72,600.467 1390.08,592.5 1389.33,583.163C1388.84,591.958 1387.01,600.512 1383.25,608.496C1379.41,615.992 1371.88,623.817 1364.65,629.975C1368.12,631.204 1371.53,631.133 1374.72,630.267C1374.79,630.196 1374.86,630.05 1374.93,629.904C1375,629.975 1375,630.121 1375.08,630.192C1376.24,629.829 1377.4,629.396 1378.55,628.888C1377.68,630.913 1376.81,632.942 1375.87,634.967C1376.62,634.746 1377.58,634.4 1378.61,633.963C1372.98,645.675 1364.78,656.7 1353.3,666.583C1353.28,666.6 1353.28,666.621 1353.27,666.642C1353.01,666.862 1352.76,667.088 1352.5,667.308C1352.78,667.408 1353.06,667.492 1353.35,667.579C1353.35,667.583 1353.36,667.592 1353.37,667.596C1353.47,667.629 1353.58,667.654 1353.67,667.687C1353.94,667.771 1354.22,667.85 1354.48,667.925C1354.82,668.021 1355.16,668.104 1355.5,668.183C1355.64,668.217 1355.78,668.254 1355.92,668.283C1358.83,668.917 1361.71,669.033 1364.52,668.754C1364.57,668.742 1364.62,668.725 1364.69,668.708C1364.84,668.692 1365,668.675 1365.16,668.658L1364.63,669.596C1362.08,672.287 1359.38,674.925 1356.41,677.437C1360.88,679.021 1365.2,679.171 1369.38,678.387C1364.13,687.192 1357.67,695.625 1349.87,703.613C1323.81,706.538 1229.92,720.75 1174.02,777.613L1152.12,738.317L1150.75,738.317L1129.66,776.175C1126.07,772.383 1122.9,767.929 1120.18,762.796C1123.33,763.804 1126.78,763.754 1130.32,761.842C1127.83,760.404 1125.58,758.729 1123.48,756.675C1123.49,756.679 1123.5,756.679 1123.5,756.683C1123.55,756.696 1123.58,756.712 1123.62,756.725C1126.59,757.25 1129.7,756.917 1132.95,755.146C1132.4,754.838 1131.86,754.513 1131.33,754.175C1131.22,754.104 1131.11,754.033 1131,753.958C1130.58,753.688 1130.17,753.413 1129.76,753.121C1129.64,753.033 1129.52,752.942 1129.4,752.854C1129,752.567 1128.62,752.283 1128.24,751.983C1128.12,751.892 1128.01,751.796 1127.9,751.7C1127.51,751.388 1127.13,751.071 1126.75,750.746C1126.66,750.658 1126.56,750.571 1126.47,750.488C1126.07,750.133 1125.68,749.775 1125.3,749.404C1125.23,749.338 1125.17,749.267 1125.1,749.204C1124.68,748.796 1124.28,748.375 1123.88,747.946C1123.85,747.912 1123.82,747.879 1123.79,747.846C1120.66,744.446 1117.99,740.346 1115.78,735.533C1116.14,735.675 1116.51,735.771 1116.88,735.821C1116.83,735.725 1116.83,735.679 1116.78,735.629C1116.02,733.858 1115.35,731.996 1114.68,730.083C1117.55,731.85 1119.36,731.662 1122.95,729.7C1122.48,729.429 1122.01,729.142 1121.55,728.833C1121.49,728.792 1121.42,728.746 1121.35,728.7C1120.91,728.4 1120.48,728.079 1120.06,727.746C1120,727.7 1119.95,727.65 1119.89,727.604C1119.46,727.258 1119.05,726.9 1118.65,726.521C1118.64,726.517 1118.63,726.513 1118.63,726.508C1118.25,726.142 1117.88,725.754 1117.51,725.354C1117.42,725.258 1117.33,725.167 1117.25,725.071C1116.91,724.696 1116.59,724.304 1116.27,723.904C1116.17,723.767 1116.06,723.625 1115.96,723.483C1115.73,723.179 1115.5,722.862 1115.28,722.542C1115.12,722.3 1114.96,722.054 1114.8,721.804C1114.61,721.517 1114.43,721.217 1114.25,720.917C1114.1,720.663 1113.96,720.408 1113.82,720.146C1113.7,719.925 1113.58,719.692 1113.46,719.467C1113.21,718.992 1112.97,718.508 1112.75,718.008C1112.68,717.875 1112.62,717.737 1112.57,717.604C1112.25,716.9 1111.96,716.175 1111.68,715.421C1110.04,711 1108.96,705.733 1108.46,699.562C1108.14,705.375 1106.93,711.033 1104.45,716.308C1101.91,721.267 1096.93,726.438 1092.15,730.508C1094.45,731.321 1096.7,731.275 1098.8,730.704C1098.85,730.654 1098.9,730.558 1098.94,730.463C1098.99,730.508 1098.99,730.604 1099.04,730.654C1099.8,730.413 1100.57,730.125 1101.34,729.792C1100.76,731.129 1100.19,732.471 1099.57,733.808C1100.06,733.663 1100.7,733.433 1101.38,733.146C1097.65,740.887 1092.23,748.179 1084.64,754.713C1084.63,754.721 1084.62,754.737 1084.62,754.75C1084.45,754.896 1084.29,755.046 1084.11,755.192C1084.3,755.258 1084.49,755.312 1084.67,755.371C1084.68,755.375 1084.68,755.379 1084.69,755.383L1085.42,755.6C1085.65,755.663 1085.87,755.717 1086.1,755.771C1086.19,755.792 1086.28,755.817 1086.38,755.833C1088.3,756.254 1090.2,756.333 1092.06,756.146C1092.09,756.137 1092.13,756.129 1092.17,756.117C1092.37,756.096 1092.58,756.079 1092.78,756.05C1090.91,758.058 1088.9,760.021 1086.7,761.887C1089.65,762.933 1092.51,763.033 1095.28,762.517C1090.55,770.433 1084.36,777.908 1076.44,784.792C1076.16,785.033 1075.89,785.275 1075.6,785.521C1075.7,785.554 1075.8,785.583 1075.89,785.617C1076.03,785.662 1076.17,785.758 1076.32,785.85C1079.66,786.904 1083.01,787.192 1086.21,786.858C1087,786.804 1087.92,786.667 1088.89,786.463C1089.64,786.317 1090.37,786.15 1091.1,785.95C1086.22,793.029 1080.19,799.771 1072.83,806.038C1074.79,806.754 1076.8,807.138 1078.81,807.233C1074.93,810.917 1070.62,814.408 1065.85,817.804C1065.88,817.817 1065.92,817.825 1065.96,817.838C1065.95,817.846 1065.95,817.85 1065.94,817.854C1065.75,817.954 1066.33,818.046 1066.51,818.142C1070.53,819.408 1074.53,819.763 1078.44,819.533L1074.05,827.404L1076.1,827.404C1070.65,835.008 1063.62,842.075 1053.65,846.887C1057.27,848.004 1060.51,848.604 1063.72,848.8C1061.36,850.458 1058.91,851.996 1056.37,853.396C1059.16,854.858 1063.25,856.058 1067.62,856.642L1065.59,860.296L1067.42,860.296C1066.63,861.029 1065.81,861.754 1064.98,862.483C986.15,902.071 889.896,933.808 867.858,970.867C847.358,1005.35 822.038,1065.02 830.242,1112.78C796.7,1123.86 763.217,1135.12 729.692,1146.26C730.013,1149.48 730.333,1152.71 730.654,1155.93C747.637,1159.39 764.483,1163.9 781.629,1166.11C819.008,1170.94 856.558,1174.46 893.967,1179.09C902.492,1181.53 911.883,1183.42 922.479,1184.56L1074.83,1199.82C1141.95,1200.89 1135.13,1185.64 1122.21,1160.88C1122.18,1160.83 1122.21,1160.77 1122.18,1160.71C1093.86,1129.15 1067.77,1098.13 1062.3,1085.3C1056.44,1073.4 1059.71,1057.08 1075.16,1050.91C1082.25,1048.08 1089.86,1045.17 1098,1042.2C1202.44,1004.12 1418.34,992.496 1487.21,990.654C1554.25,988.862 1684.79,979.767 1734.57,978.208C1751.21,977.692 1766.64,978.192 1780.56,978.208C1787.78,978.217 1789.08,967.854 1782.1,966.05C1759.52,960.225 1762.12,952.904 1705.92,948.675L1692.57,928.425C1692.57,928.425 1776.76,935.917 1840.35,956.429C1888.58,971.988 1869.92,984.429 1854.36,990.654C1830.45,1000.22 1560.45,1016.83 1484.1,1023.33C1333.9,1036.09 1185.19,1056.12 1212.92,1093.87L1213.38,1093.94C1222.75,1102.38 1234.01,1108.42 1246.23,1111.56C1276.19,1119.23 1339.27,1135.7 1411.3,1156.28C1498.09,1181.08 1715.31,1184.78 1772.95,1185.33C1805.31,1185.23 1837.9,1186.32 1873.39,1185.43C1924.69,1184.14 2181.55,1194.31 2309.36,1180.91C2313.81,1180.45 2317.86,1179.86 2321.72,1179.2C2359.43,1174.52 2397.29,1170.98 2434.97,1166.11C2452.11,1163.9 2468.96,1159.39 2485.95,1155.93C2486.27,1152.71 2486.59,1149.48 2486.91,1146.26C2447.25,1133.08 2407.66,1119.7 2367.94,1106.73C2364.87,1085.91 2362.66,1060.34 2357.21,1031.13C2353.95,1013.69 2350.05,974.992 2336.83,963.146C2288.52,919.829 2223.32,869.1 2188.61,869.758L2167.25,865.021C2167.7,864.833 2168.14,864.642 2168.52,864.442C2164.41,862.175 2160.63,859.417 2157.18,856.167C2158.69,855.838 2160.24,855.271 2161.76,854.438C2154.92,850.571 2149.16,845.029 2144.55,837.767C2146.32,838.804 2148.63,839.192 2150.97,839.146C2153.38,839.242 2155.87,838.8 2158.42,837.592C2158.75,837.45 2159.05,837.3 2159.33,837.146C2159.32,837.146 2159.32,837.142 2159.32,837.142C2159.33,837.125 2159.35,837.117 2159.35,837.117C2151.92,832.896 2145.89,826.537 2141.31,817.913C2143.99,818.762 2146.9,818.721 2149.89,817.104C2147.79,815.887 2145.89,814.471 2144.11,812.733C2144.11,812.733 2144.12,812.733 2144.13,812.738C2144.13,812.738 2144.2,812.762 2144.23,812.775C2146.74,813.221 2149.37,812.933 2152.12,811.437C2151.66,811.175 2151.2,810.9 2150.75,810.617C2150.66,810.558 2150.57,810.496 2150.47,810.429C2150.12,810.2 2149.77,809.971 2149.43,809.725C2149.32,809.65 2149.22,809.571 2149.12,809.496C2148.78,809.254 2148.46,809.012 2148.13,808.758C2148.04,808.679 2147.94,808.6 2147.84,808.521C2147.52,808.258 2147.2,807.987 2146.88,807.713C2146.8,807.638 2146.71,807.567 2146.63,807.492C2146.3,807.196 2145.97,806.892 2145.65,806.575C2145.59,806.521 2145.54,806.462 2145.47,806.408C2145.13,806.062 2144.78,805.708 2144.45,805.342C2144.45,805.342 2144.4,805.288 2144.37,805.258C2141.72,802.379 2139.45,798.908 2137.59,794.837C2137.9,794.954 2138.21,795.037 2138.52,795.079C2138.48,794.996 2138.48,794.958 2138.43,794.917C2137.79,793.417 2137.22,791.842 2136.65,790.221C2139.08,791.717 2140.62,791.558 2143.66,789.896C2143.26,789.671 2142.86,789.425 2142.48,789.167C2142.43,789.129 2142.37,789.092 2142.31,789.05C2141.94,788.796 2141.57,788.525 2141.22,788.246C2141.17,788.204 2141.11,788.162 2141.07,788.125C2140.71,787.833 2140.35,787.525 2140.02,787.208L2140,787.196C2139.68,786.887 2139.36,786.554 2139.05,786.221C2138.97,786.138 2138.9,786.058 2138.82,785.979C2138.55,785.662 2138.27,785.333 2138.01,784.992C2137.91,784.875 2137.82,784.758 2137.74,784.637C2137.55,784.379 2137.36,784.113 2137.17,783.838C2137.03,783.633 2136.89,783.425 2136.76,783.217C2136.6,782.971 2136.45,782.721 2136.3,782.462C2136.18,782.246 2136.05,782.033 2135.93,781.813C2135.82,781.621 2135.72,781.425 2135.62,781.238C2135.42,780.833 2135.22,780.425 2135.02,780C2134.97,779.888 2134.92,779.775 2134.87,779.658C2134.6,779.063 2134.35,778.45 2134.12,777.808C2132.73,774.071 2131.82,769.613 2131.4,764.388C2131.12,769.308 2130.1,774.096 2128,778.563C2125.85,782.758 2121.63,787.137 2117.59,790.583C2119.53,791.271 2121.44,791.233 2123.22,790.746C2123.26,790.708 2123.3,790.625 2123.34,790.542C2123.38,790.583 2123.38,790.667 2123.42,790.704C2124.07,790.5 2124.72,790.258 2125.37,789.975C2124.88,791.108 2124.39,792.242 2123.87,793.375C2124.28,793.254 2124.82,793.058 2125.4,792.812C2124.34,795.021 2123.05,797.163 2121.65,799.271L2093.61,748.954L2091.15,748.954L2071.88,783.521C2061.26,776.771 2052.19,767.617 2044.81,755.958C2047.96,757.813 2052.09,758.5 2056.27,758.421C2060.57,758.592 2065.03,757.8 2069.57,755.646C2070.16,755.392 2070.71,755.125 2071.2,754.85C2071.2,754.846 2071.19,754.838 2071.19,754.838C2071.19,754.838 2071.25,754.796 2071.28,754.775C2057.96,747.25 2047.19,735.892 2039,720.479C2043.78,722 2048.99,721.925 2054.35,719.033C2050.58,716.862 2047.18,714.329 2044,711.221C2044.01,711.225 2044.03,711.225 2044.03,711.225C2044.1,711.25 2044.16,711.275 2044.21,711.296C2048.7,712.092 2053.4,711.583 2058.32,708.908C2057.49,708.442 2056.68,707.95 2055.88,707.442C2055.71,707.333 2055.54,707.221 2055.38,707.108C2054.75,706.7 2054.12,706.283 2053.5,705.846C2053.32,705.713 2053.13,705.571 2052.95,705.437C2052.36,705.008 2051.78,704.575 2051.2,704.121C2051.02,703.983 2050.85,703.837 2050.68,703.696C2050.1,703.225 2049.52,702.746 2048.95,702.25C2048.81,702.121 2048.66,701.987 2048.51,701.858C2047.92,701.325 2047.33,700.783 2046.76,700.221C2046.65,700.121 2046.55,700.017 2046.45,699.917C2045.82,699.3 2045.2,698.667 2044.6,698.017C2044.55,697.967 2044.51,697.917 2044.47,697.867C2039.73,692.721 2035.69,686.521 2032.35,679.242C2032.9,679.454 2033.46,679.6 2034.01,679.675C2033.95,679.529 2033.95,679.458 2033.87,679.388C2032.71,676.708 2031.7,673.888 2030.69,670.996C2035.03,673.671 2037.78,673.383 2043.2,670.417C2042.48,670.008 2041.78,669.571 2041.09,669.108C2040.99,669.042 2040.89,668.975 2040.78,668.904C2040.12,668.45 2039.47,667.967 2038.83,667.463C2038.74,667.392 2038.65,667.317 2038.56,667.246C2037.92,666.725 2037.3,666.179 2036.69,665.608C2036.69,665.608 2036.67,665.596 2036.66,665.587C2036.08,665.033 2035.52,664.446 2034.96,663.846C2034.83,663.7 2034.7,663.558 2034.57,663.412C2034.07,662.846 2033.58,662.258 2033.1,661.65C2032.94,661.442 2032.78,661.229 2032.62,661.017C2032.27,660.554 2031.93,660.075 2031.6,659.587C2031.35,659.225 2031.11,658.854 2030.87,658.475C2030.59,658.037 2030.32,657.588 2030.05,657.129C2029.82,656.746 2029.6,656.363 2029.38,655.967C2029.2,655.629 2029.02,655.279 2028.84,654.937C2028.47,654.221 2028.1,653.488 2027.76,652.729C2027.67,652.529 2027.58,652.325 2027.49,652.121C2027.02,651.054 2026.57,649.958 2026.15,648.817C2023.67,642.133 2022.03,634.167 2021.29,624.829C2020.8,633.625 2018.97,642.179 2015.21,650.163C2011.37,657.658 2003.84,665.483 1996.61,671.642C2000.08,672.871 2003.49,672.8 2006.67,671.933C2006.74,671.863 2006.82,671.717 2006.88,671.571C2006.96,671.642 2006.96,671.788 2007.03,671.858C2008.19,671.496 2009.35,671.062 2010.51,670.554C2009.63,672.579 2008.77,674.608 2007.83,676.633C2008.58,676.412 2009.54,676.067 2010.57,675.629C2008.29,680.371 2005.56,684.992 2002.4,689.475L1971.03,633.187L1969.4,633.187L1934.49,695.862L1921.53,672.592L1919.9,672.592L1885.01,735.208L1875.3,717.771L1873.67,717.771L1855.7,750.017L1835.36,713.517L1833.67,713.517L1815.39,746.325C1808.06,741.987 1801.69,736.375 1796.46,729.304C1798.89,730.533 1802.08,730.988 1805.3,730.933C1808.62,731.046 1812.06,730.525 1815.57,729.1C1816.02,728.929 1816.44,728.754 1816.83,728.571C1816.82,728.571 1816.81,728.563 1816.8,728.558C1816.83,728.546 1816.86,728.537 1816.88,728.525C1806.61,723.55 1798.3,716.042 1791.99,705.85C1795.67,706.858 1799.69,706.808 1803.82,704.896C1800.92,703.458 1798.29,701.783 1795.84,699.729C1795.85,699.733 1795.86,699.733 1795.87,699.738C1795.91,699.75 1795.96,699.767 1796,699.779C1799.47,700.304 1803.09,699.971 1806.89,698.2C1806.25,697.892 1805.62,697.567 1805,697.229C1804.87,697.158 1804.75,697.083 1804.62,697.012C1804.13,696.742 1803.65,696.467 1803.17,696.175C1803.03,696.088 1802.88,695.996 1802.74,695.908C1802.28,695.621 1801.83,695.338 1801.39,695.037C1801.26,694.946 1801.12,694.85 1800.99,694.754C1800.54,694.446 1800.1,694.125 1799.66,693.8C1799.55,693.712 1799.43,693.625 1799.32,693.542C1798.86,693.187 1798.41,692.829 1797.97,692.458C1797.88,692.392 1797.81,692.321 1797.73,692.258C1797.25,691.85 1796.77,691.429 1796.3,691C1796.27,690.967 1796.23,690.933 1796.2,690.9C1792.55,687.5 1789.43,683.4 1786.85,678.587C1787.28,678.729 1787.71,678.825 1788.13,678.875C1788.08,678.779 1788.08,678.733 1788.02,678.683C1787.13,676.913 1786.35,675.046 1785.57,673.138C1788.92,674.904 1791.03,674.717 1795.22,672.754C1794.67,672.483 1794.12,672.196 1793.59,671.887C1793.52,671.846 1793.43,671.8 1793.36,671.754C1792.85,671.454 1792.34,671.133 1791.85,670.8C1791.78,670.754 1791.71,670.704 1791.65,670.658C1791.15,670.313 1790.67,669.954 1790.2,669.575C1790.19,669.571 1790.18,669.567 1790.18,669.563C1789.73,669.196 1789.3,668.804 1788.87,668.408C1788.77,668.312 1788.66,668.221 1788.56,668.125C1788.17,667.75 1787.8,667.362 1787.43,666.958C1787.3,666.821 1787.18,666.679 1787.06,666.537C1786.79,666.233 1786.53,665.917 1786.28,665.596C1786.08,665.354 1785.9,665.108 1785.71,664.858C1785.49,664.571 1785.28,664.271 1785.07,663.971C1784.9,663.717 1784.73,663.462 1784.56,663.2C1784.42,662.979 1784.28,662.746 1784.14,662.521C1783.85,662.046 1783.58,661.562 1783.31,661.062C1783.24,660.929 1783.17,660.792 1783.1,660.658C1782.74,659.954 1782.39,659.229 1782.07,658.475C1780.15,654.054 1778.89,648.788 1778.32,642.617C1777.93,648.429 1776.53,654.083 1773.62,659.363C1770.66,664.321 1764.85,669.492 1759.28,673.562C1761.96,674.375 1764.58,674.329 1767.04,673.754C1767.09,673.708 1767.15,673.612 1767.2,673.517C1767.26,673.562 1767.26,673.658 1767.32,673.704C1768.21,673.467 1769.1,673.179 1770,672.846C1769.33,674.183 1768.66,675.525 1767.93,676.862C1768.51,676.717 1769.25,676.487 1770.04,676.2C1765.7,683.942 1759.38,691.233 1750.52,697.767C1750.5,697.775 1750.5,697.792 1750.49,697.804C1750.29,697.95 1750.1,698.1 1749.9,698.246C1750.12,698.313 1750.33,698.367 1750.55,698.425C1750.56,698.425 1750.56,698.433 1750.58,698.438L1751.43,698.654C1751.69,698.717 1751.95,698.771 1752.21,698.825C1752.32,698.846 1752.43,698.871 1752.54,698.888C1754.78,699.308 1757.01,699.387 1759.17,699.2C1759.21,699.192 1759.25,699.179 1759.3,699.171C1759.53,699.15 1759.78,699.133 1760.01,699.104C1757.83,701.112 1755.48,703.075 1752.92,704.942C1756.36,705.988 1759.7,706.087 1762.92,705.571C1757.41,713.487 1750.2,720.963 1740.95,727.846C1740.62,728.087 1740.3,728.329 1739.97,728.571C1740.08,728.608 1740.19,728.637 1740.3,728.671C1740.47,728.717 1740.63,728.813 1740.8,728.908C1744.71,729.958 1748.62,730.246 1752.35,729.912C1753.27,729.858 1754.34,729.721 1755.48,729.513C1756.34,729.371 1757.2,729.204 1758.05,729.004C1752.36,736.083 1745.33,742.825 1736.73,749.092C1739.02,749.808 1741.36,750.192 1743.71,750.288C1739.18,753.971 1734.16,757.462 1728.58,760.858C1728.62,760.871 1728.67,760.879 1728.72,760.892C1728.71,760.9 1728.7,760.904 1728.69,760.908C1728.47,761.004 1729.14,761.1 1729.36,761.196C1734.5,762.583 1739.63,762.917 1744.6,762.533C1745.35,762.4 1746.08,762.258 1746.8,762.108C1746.81,762.108 1746.82,762.104 1746.83,762.104C1739.69,772.675 1730.2,783.392 1714.34,789.942C1718.58,791.058 1722.36,791.658 1726.1,791.854C1723.34,793.512 1720.48,795.05 1717.53,796.45C1721.6,798.279 1728.03,799.75 1734.54,800.038C1730.39,803.512 1725.88,806.904 1721.04,810.221L1709.55,800.954L1714.93,800.608L1704.62,791.129C1707.43,791.408 1710.4,791.021 1713.42,789.625C1710.52,788.188 1707.89,786.513 1705.44,784.458C1705.45,784.462 1705.46,784.462 1705.47,784.462C1705.51,784.475 1705.56,784.492 1705.6,784.508C1709.07,785.033 1712.69,784.7 1716.49,782.929C1715.85,782.621 1715.22,782.296 1714.6,781.958C1714.47,781.888 1714.35,781.813 1714.22,781.742C1713.73,781.471 1713.25,781.192 1712.77,780.904C1712.62,780.817 1712.48,780.725 1712.34,780.637C1711.88,780.35 1711.43,780.062 1710.99,779.767C1710.85,779.675 1710.73,779.579 1710.59,779.483C1710.14,779.171 1709.7,778.854 1709.26,778.529C1709.15,778.442 1709.03,778.354 1708.92,778.271C1708.46,777.917 1708.01,777.558 1707.57,777.183C1707.48,777.121 1707.41,777.05 1707.33,776.987C1706.85,776.575 1706.37,776.158 1705.9,775.729C1705.87,775.696 1705.83,775.662 1705.8,775.629C1702.15,772.225 1699.03,768.129 1696.45,763.317C1696.88,763.454 1697.31,763.554 1697.73,763.604C1697.68,763.508 1697.68,763.458 1697.62,763.412C1696.73,761.642 1695.95,759.779 1695.17,757.867C1698.52,759.633 1700.63,759.446 1704.82,757.483C1704.27,757.212 1703.72,756.925 1703.19,756.617C1703.12,756.575 1703.03,756.529 1702.96,756.483C1702.45,756.183 1701.94,755.863 1701.45,755.529C1701.38,755.483 1701.31,755.433 1701.25,755.383C1700.75,755.042 1700.26,754.683 1699.8,754.304C1699.79,754.3 1699.78,754.296 1699.78,754.287C1699.33,753.921 1698.9,753.533 1698.47,753.137C1698.37,753.042 1698.26,752.95 1698.16,752.854C1697.77,752.479 1697.4,752.088 1697.03,751.687C1696.9,751.55 1696.78,751.408 1696.66,751.267C1696.39,750.962 1696.13,750.646 1695.88,750.325C1695.68,750.083 1695.5,749.837 1695.31,749.588C1695.09,749.3 1694.88,749 1694.67,748.7C1694.5,748.442 1694.33,748.192 1694.16,747.929C1694.02,747.708 1693.88,747.475 1693.74,747.25C1693.45,746.775 1693.17,746.292 1692.91,745.788C1692.84,745.658 1692.77,745.521 1692.7,745.388C1692.34,744.683 1691.99,743.958 1691.67,743.204C1689.75,738.783 1688.49,733.517 1687.91,727.346C1687.53,733.158 1686.12,738.813 1683.23,744.092C1680.26,749.046 1674.45,754.221 1668.88,758.292C1671.55,759.104 1674.18,759.058 1676.64,758.487C1676.69,758.437 1676.75,758.342 1676.8,758.246C1676.86,758.292 1676.86,758.388 1676.92,758.433C1677.81,758.196 1678.7,757.908 1679.6,757.571C1678.92,758.913 1678.26,760.254 1677.53,761.592C1678.11,761.446 1678.85,761.217 1679.64,760.929C1675.3,768.671 1668.98,775.958 1660.12,782.496C1660.1,782.504 1660.1,782.521 1660.09,782.533C1659.89,782.679 1659.7,782.825 1659.5,782.975C1659.72,783.042 1659.93,783.096 1660.15,783.154C1660.16,783.154 1660.16,783.158 1660.17,783.163L1661.03,783.383C1661.29,783.446 1661.55,783.5 1661.81,783.55C1661.92,783.575 1662.03,783.596 1662.14,783.617C1664.33,784.025 1666.5,784.1 1668.6,783.933L1667.76,785.45C1666.1,786.892 1664.39,788.313 1662.52,789.671C1663.38,789.929 1664.23,790.133 1665.07,790.279L1655.12,800.262L1661.03,800.175L1650,813.629ZM1124.04,786.263L1124.03,786.279C1124.03,786.267 1124.02,786.263 1124.01,786.25C1124.02,786.258 1124.03,786.258 1124.04,786.263Z" style="fill:rgb(138,182,200);fill-rule:nonzero;"/>
            </g>
        </g>
    </g>
</svg>
