<?xml version="1.0" encoding="UTF-8" standalone="no"?>
<!DOCTYPE svg PUBLIC "-//W3C//DTD SVG 1.1//EN" "http://www.w3.org/Graphics/SVG/1.1/DTD/svg11.dtd">
<svg width="100%" height="100%" viewBox="0 0 826 400" version="1.1" xmlns="http://www.w3.org/2000/svg" xmlns:xlink="http://www.w3.org/1999/xlink" xml:space="preserve" xmlns:serif="http://www.serif.com/" style="fill-rule:evenodd;clip-rule:evenodd;stroke-linejoin:round;stroke-miterlimit:2;">
    <g transform="matrix(1,0,0,1,0,-0.512505)">
        <g transform="matrix(4.16667,0,0,4.16667,0,0)">
            <g transform="matrix(0.24,0,0,0.24,0,0)">
                <path d="M615,348.8L650.3,385.783L650.3,351.046L656.163,351.046L656.163,400L620.858,363.021L620.858,398.067L615,398.067L615,348.8ZM599.25,374.558C599.25,388.525 588.208,399.067 574.621,399.067C561.021,399.067 549.983,388.525 549.983,374.558C549.983,361.088 561.15,350.05 574.621,350.05C588.088,350.05 599.25,361.088 599.25,374.558ZM349.312,374.558C349.312,388.525 338.275,399.067 324.679,399.067C311.083,399.067 300.046,388.525 300.046,374.558C300.046,361.088 311.208,350.05 324.679,350.05C338.15,350.05 349.312,361.088 349.312,374.558ZM399.688,360.025C396.321,357.033 391.7,355.408 387.275,355.408C376.737,355.408 368.692,364.204 368.692,374.621C368.692,384.908 376.675,393.704 387.15,393.704C391.767,393.704 396.192,391.958 399.688,388.838L399.688,395.758C396.067,397.879 391.454,399.067 387.337,399.067C373.929,399.067 362.829,388.404 362.829,374.808C362.829,360.896 373.988,350.05 387.838,350.05C391.95,350.05 396.133,351.046 399.688,353.229L399.688,360.025ZM237.425,359.962C235.679,357.033 233.433,355.533 229.879,355.533C226.133,355.533 222.021,358.092 222.021,362.208C222.021,365.887 225.637,367.821 228.567,368.942L231.938,370.254C238.612,372.871 243.6,376.55 243.6,384.408C243.6,392.954 236.987,399.067 228.567,399.067C220.958,399.067 215.033,393.454 214.037,385.908L219.963,384.658C219.9,389.838 224.017,393.575 229.067,393.575C234.121,393.575 237.737,389.337 237.737,384.408C237.737,379.358 233.683,377.179 229.629,375.492L226.388,374.121C221.021,371.808 216.158,368.754 216.158,362.208C216.158,354.6 222.892,350.05 230.004,350.05C235.242,350.05 239.546,352.604 242.104,357.158L237.425,359.962ZM280.846,359.962C279.104,357.033 276.858,355.533 273.3,355.533C269.558,355.533 265.446,358.092 265.446,362.208C265.446,365.887 269.062,367.821 271.992,368.942L275.362,370.254C282.033,372.871 287.021,376.55 287.021,384.408C287.021,392.954 280.413,399.067 271.992,399.067C264.387,399.067 258.458,393.454 257.463,385.908L263.388,384.658C263.325,389.838 267.442,393.575 272.488,393.575C277.542,393.575 281.158,389.337 281.158,384.408C281.158,379.358 277.108,377.179 273.054,375.492L269.808,374.121C264.446,371.808 259.583,368.754 259.583,362.208C259.583,354.6 266.321,350.05 273.429,350.05C278.662,350.05 282.971,352.604 285.525,357.158L280.846,359.962ZM170.275,386.279L164.912,398.067L158.613,398.067L181.067,349.05L203.517,398.067L197.217,398.067L191.854,386.279L170.275,386.279ZM446.733,386.279L441.367,398.067L435.071,398.067L457.521,349.05L479.971,398.067L473.675,398.067L468.308,386.279L446.733,386.279ZM421.296,398.067L415.438,398.067L415.438,351.046L421.296,351.046L421.296,398.067ZM534.1,398.067L528.238,398.067L528.238,351.046L534.1,351.046L534.1,398.067ZM502.971,398.067L497.112,398.067L497.112,356.412L485.946,356.412L485.946,351.046L514.137,351.046L514.137,356.412L502.971,356.412L502.971,398.067ZM593.383,374.558C593.383,364.204 585.658,355.533 574.621,355.533C563.579,355.533 555.842,364.204 555.842,374.558C555.842,385.283 564.458,393.575 574.621,393.575C584.779,393.575 593.383,385.283 593.383,374.558ZM343.45,374.558C343.45,364.204 335.717,355.533 324.679,355.533C313.638,355.533 305.908,364.204 305.908,374.558C305.908,385.283 314.513,393.575 324.679,393.575C334.842,393.575 343.45,385.283 343.45,374.558ZM181.067,361.896L172.708,380.913L189.421,380.913L181.067,361.896ZM457.521,361.896L449.163,380.913L465.879,380.913L457.521,361.896ZM0,324.158L0,319.117L825.642,319.117L825.642,324.158L0,324.158ZM599.346,265.375C599.213,272.571 598.692,278.725 594.308,284.875C589.462,291.612 582.196,294.558 573.954,294.558C558.442,294.558 547.65,284.025 547.65,268.517C547.65,252.479 558.512,241.942 574.412,241.942C584.558,241.942 592.408,246.525 596.658,255.754L584.487,260.858C582.721,256.146 578.988,253.004 573.825,253.004C565.379,253.004 560.996,261.054 560.996,268.579C560.996,276.233 565.579,284.025 574.025,284.025C579.583,284.025 583.833,281.146 584.354,275.45L573.883,275.45L573.883,265.375L599.346,265.375ZM652.217,243.583L652.217,271.329C652.217,277.675 651.954,283.958 647.05,288.738C642.929,292.792 636.446,294.233 630.683,294.233C624.925,294.233 618.454,292.792 614.325,288.738C609.417,283.958 609.154,277.675 609.154,271.329L609.154,243.583L621.979,243.583L621.979,269.562C621.979,275.975 622.442,282.979 630.683,282.979C638.938,282.979 639.388,275.975 639.388,269.562L639.388,243.583L652.217,243.583ZM813.808,256.279C811.454,254.312 808.442,253.004 805.3,253.004C802.942,253.004 799.804,254.379 799.804,257.129C799.804,260.008 803.275,261.121 805.496,261.837L808.771,262.821C815.638,264.85 820.942,268.321 820.942,276.304C820.942,281.208 819.758,286.25 815.837,289.583C811.979,292.858 806.804,294.233 801.833,294.233C795.613,294.233 789.533,292.138 784.487,288.608L789.988,278.263C793.192,281.079 796.992,283.367 801.375,283.367C804.383,283.367 807.587,281.867 807.587,278.396C807.587,274.796 802.55,273.55 799.804,272.767C791.754,270.479 786.458,268.383 786.458,258.829C786.458,248.817 793.583,242.271 803.475,242.271C808.442,242.271 814.529,243.842 818.913,246.329L813.808,256.279ZM758.421,254.442L758.421,262.692L772.883,262.692L772.883,273.55L758.421,273.55L758.421,282.058L773.671,282.058L773.671,292.925L745.596,292.925L745.596,243.583L773.671,243.583L773.671,254.442L758.421,254.442ZM341.063,254.442L341.063,262.692L355.521,262.692L355.521,273.55L341.063,273.55L341.063,282.058L356.304,282.058L356.304,292.925L328.233,292.925L328.233,243.583L356.304,243.583L356.304,254.442L341.063,254.442ZM151.279,254.442L151.279,262.692L165.738,262.692L165.738,273.55L151.279,273.55L151.279,282.058L166.525,282.058L166.525,292.925L138.454,292.925L138.454,243.583L166.525,243.583L166.525,254.442L151.279,254.442ZM502.296,254.442L502.296,262.692L516.758,262.692L516.758,273.55L502.296,273.55L502.296,282.058L517.542,282.058L517.542,292.925L489.479,292.925L489.479,243.583L517.542,243.583L517.542,254.442L502.296,254.442ZM20.871,292.925L8.042,292.925L8.042,243.583L20.871,243.583L20.871,292.925ZM677.737,292.925L664.908,292.925L664.908,243.583L677.737,243.583L677.737,292.925ZM117.896,292.925L105.071,292.925L105.071,254.442L94.471,254.442L94.471,243.583L128.496,243.583L128.496,254.442L117.896,254.442L117.896,292.925ZM389.437,292.925L376.613,292.925L376.613,254.442L366.013,254.442L366.013,243.583L400.038,243.583L400.038,254.442L389.437,254.442L389.437,292.925ZM422.821,292.925L409.992,292.925L409.992,243.583L422.821,243.583L422.821,292.925ZM35.204,243.583L48.029,243.583L71.521,273.75L71.65,273.75L71.65,243.583L84.479,243.583L84.479,292.925L71.65,292.925L48.158,262.692L48.029,262.692L48.029,292.925L35.204,292.925L35.204,243.583ZM692.071,243.583L710.262,243.583C724.004,243.583 735.329,254.379 735.329,268.254C735.329,282.125 723.942,292.925 710.262,292.925L692.071,292.925L692.071,243.583ZM230.904,243.583L250.533,243.583C261.138,243.583 268.467,248.492 268.467,259.812C268.467,271.458 262.183,276.563 250.996,276.563L243.733,276.563L243.733,292.925L230.904,292.925L230.904,243.583ZM456.042,273.55L468.021,243.583L481.967,243.583L460.887,292.925L450.946,292.925L430.204,243.583L444.138,243.583L456.042,273.55ZM318.804,292.925L302.837,292.925L290.729,273.946L290.6,273.946L290.6,292.925L277.775,292.925L277.775,243.583L296.946,243.583C306.696,243.583 314.092,248.229 314.092,258.763C314.092,265.571 310.296,271.458 303.296,272.7L318.804,292.925ZM221.475,292.925L205.508,292.925L193.404,273.946L193.271,273.946L193.271,292.925L180.446,292.925L180.446,243.583L199.621,243.583C209.371,243.583 216.762,248.229 216.762,258.763C216.762,265.571 212.967,271.458 205.967,272.7L221.475,292.925ZM704.896,282.058L707.779,282.058C715.429,282.058 721.979,277.871 721.979,268.254C721.979,259.417 716.154,254.442 707.908,254.442L704.896,254.442L704.896,282.058ZM243.733,266.225L245.888,266.225C250.533,266.225 255.117,266.225 255.117,260.204C255.117,253.988 250.863,253.921 245.888,253.921L243.733,253.921L243.733,266.225ZM193.271,265.7L194.512,265.7C198.704,265.7 203.413,264.917 203.413,259.55C203.413,254.183 198.704,253.4 194.512,253.4L193.271,253.4L193.271,265.7ZM290.6,265.7L291.842,265.7C296.029,265.7 300.742,264.917 300.742,259.55C300.742,254.183 296.029,253.4 291.842,253.4L290.6,253.4L290.6,265.7ZM270.681,134.684L270.778,134.559L270.681,134.684C270.648,134.725 270.616,134.767 270.583,134.808C274.137,132.925 277.821,130.875 281.662,128.654C279.354,130.275 274.8,133.217 269.117,136.692C265.367,141.408 261.5,145.917 257.579,149.471C282.225,139.167 310.1,123.979 310.1,123.979C305.329,127.571 277.317,144.579 250.575,154.667C248.679,155.708 246.833,156.358 244.971,156.683C244.583,156.833 244.183,156.979 243.804,157.079C249.813,156.392 266.663,155.925 276.937,155.096C287.204,154.304 320.975,144.425 341.742,137.608C326.862,145.992 292.908,152.304 292.908,152.304C302.846,155.096 330.538,155.663 333.854,155.817C337.192,155.925 350.788,154.121 359.179,151.946C367.533,149.758 380.971,144.487 388.15,139.842C395.329,135.171 403.688,130.129 419.858,123.204C408.096,128.483 397.404,139.425 389.762,149.046C382.187,158.675 367.154,166.021 367.154,166.021C380.971,166.996 402.087,158.571 410.217,156.45C418.329,154.338 435.233,154.588 443.275,155.342C451.346,156.112 456.371,151.925 466.138,149.392C475.921,146.846 473.783,147.208 478.933,144.154C484.071,141.1 473.358,149.462 467.425,154.875C461.496,160.263 438.304,159.875 432.542,164.225C456.171,160.917 474.704,169.796 499.513,160.508C510.646,156.363 570.092,121.137 570.092,121.137C531.904,149.279 515.017,158.979 488.146,167.687C516.546,161.95 517.662,173.021 564.954,152.35C573.012,148.838 586.771,149.4 594.308,147.417C601.888,145.454 609.846,142.842 625.417,145.375C641.962,148.071 656.321,139.075 658.704,135.158C658.704,135.158 665.4,128.942 676.117,129.646C590.421,103.05 497.283,83.675 399.417,81.525C296.388,79.233 160.588,109.063 91.783,128.137L81.813,130.787C83.717,135.492 87.079,139.733 103.583,144.546C108.342,145.942 120.104,150.975 133.183,151.646C146.275,152.321 154.508,146.962 165.733,140.542C162.783,144.104 153.896,149.479 145.279,153.4C148.529,153.442 152.363,154.508 163.167,154.35C173.95,154.196 198.092,145.421 198.092,145.421C193.313,149.129 181.496,152.513 175.808,154.708C179.363,154.5 190.354,155.796 198.279,155.708C206.238,155.654 216.392,152.217 235.362,144.288C228.108,149.525 215.087,154.346 202.142,162.075C205.292,161.246 212.942,157.975 220.787,155.933C227.654,154.146 245.2,148.421 270.583,134.808C270.616,134.767 270.648,134.725 270.681,134.684ZM462.342,56.55L457.688,50.35L453.558,42.692L454.438,38.029L453.925,34.296L470.958,41.054L463.579,34.421L454.537,28.7L445.833,16.746L439.279,10.433L440.525,22.892L441.267,31.317L445.292,40.708L446.896,45.396L452.067,53.837L454.583,60.688C457.596,65.25 455.75,70.504 454.025,71.587C453.312,71.533 452.642,71.496 451.937,71.433C449.146,67.242 427.058,41.017 412.808,31.013C400.75,20.533 377.904,8.008 376.958,7.942C375.038,7.821 412.346,43.829 420.988,69.213C414.296,68.908 409.158,68.896 402.408,68.775C393.042,68.55 376.442,68.804 366.75,69.079C366.75,69.079 361.508,65.242 344.329,56.029C326.862,46.671 306.562,41.212 304.221,41.442C302.792,41.583 312.942,47.192 321.625,57.117C329.208,65.817 335.696,70.479 334.417,70.638C326.35,71.517 310.846,73.387 301.925,74.787C275.154,78.175 249.371,82.479 223.946,87.821L221.75,86.012L205.696,71.329C205.696,71.329 207.092,68.913 215.617,72.712C224.142,76.512 200.279,61.296 200.279,61.296C200.279,61.296 205.342,60.621 214.625,61.488C216.592,61.675 188.237,52.421 188.237,52.421L185.975,57.362L190.312,64.896L192.408,74.879L212.967,88.208L215.271,89.762C212.15,90.442 209.054,91.133 205.983,91.838C192.425,82.8 166.012,76.196 163.637,76.846C161.833,77.383 185.583,88.233 190.596,95.075C157.504,103.267 125.542,113.446 102.467,122.412C89.363,126.717 82.175,129.554 81.142,129.992C76.8,120.575 99.317,102.95 111.092,97.492L133.375,67.867C155.254,75.175 183.063,47.004 183.063,47.004C191.054,46.033 215.204,55.429 219.192,51.492C221.092,49.646 232.896,36.079 234.775,35.163C234.775,35.163 251.213,37.212 253.783,35.829C256.342,34.475 260.187,18.754 260.187,18.754L281.721,27.342C281.721,27.342 306.317,28.825 309.229,27.121C312.154,25.4 308.629,17.413 312.7,17.529C316.763,17.662 343.171,27.946 343.171,27.946C343.171,27.946 346.55,26.888 349.575,19.408C352.625,11.946 362.371,12.296 364.225,10.65C366.075,8.954 371.388,0.513 371.388,0.513C371.388,0.513 384.579,6.9 389.117,9.333C393.662,11.771 405.562,19.021 405.562,19.021L417.833,27.571C417.833,27.571 425.846,15.746 428.108,13.463C430.387,11.167 438.8,5.217 438.8,5.217L450.5,15.913C450.5,15.913 457.004,26.533 458.842,27.429C460.642,28.325 463.346,16.733 466.871,15.112C470.4,13.458 491.562,25.079 491.562,25.079L498.467,18.629L505.471,11.733L518.688,20.746C518.688,20.746 526.45,24.246 527.912,24.721C529.446,25.217 533.121,28.358 534.054,29.433C535.175,30.708 538.821,32.517 540.888,35.1C540.888,35.1 544.517,37.425 546.058,37.942L550.579,39.633L556.921,36.913L562.783,31.863C562.783,31.863 576.55,44.883 579.913,45.696C587.408,47.508 596.375,61.796 596.375,61.796L611.375,77.846C611.375,77.846 626.137,74.821 632.879,72.617C639.571,70.454 647.175,78.463 653.446,85.158C659.712,91.854 663.879,108.983 676.246,117.358L747.146,142.221C747.146,142.221 748.362,143.533 749.517,147.417C750.613,151.3 760.837,158.179 760.837,158.179C754.737,155.721 749.179,153.433 744.042,151.317C724.387,141.692 701.888,131.938 677.033,122.675L658.058,115.85C635.875,108.154 612.025,100.975 586.963,94.6C580.992,88.467 554.729,60.704 523.842,46.213L555.887,87.25C554.421,86.933 553.025,86.575 551.554,86.279L541.525,82.217C541.525,82.217 486.362,28.858 479.85,26.046C479.85,26.046 498.771,49.571 503.037,56.942C508.538,66.433 516.833,78.742 516.833,78.742L480.171,73.608L468.929,63.142L462.342,56.55ZM182.526,149.249C182.568,149.249 182.61,149.248 182.654,149.248L182.664,149.248L182.733,149.246C182.963,149.242 183.193,149.234 183.425,149.222L183.449,149.22C183.72,149.206 183.992,149.186 184.263,149.161C184.307,149.157 184.35,149.152 184.395,149.148C184.488,149.139 184.581,149.129 184.672,149.119L184.742,149.111C184.626,149.124 184.51,149.137 184.395,149.148L184.325,149.155L184.263,149.161C183.992,149.186 183.72,149.206 183.449,149.22L183.425,149.222C183.171,149.235 182.917,149.244 182.664,149.248L182.654,149.248C182.589,149.249 182.523,149.249 182.457,149.25L182.526,149.249ZM638.287,83.525L635.921,98.438L639.296,92.246C639.296,92.246 641.417,87.562 644.263,87.821C647.108,88.079 650.208,90.921 650.371,89.913C650.992,86.054 638.058,76.45 638.058,76.45L638.287,83.525ZM589.892,67.908L595.242,82.921L606.017,78.258L582.763,50.35L589.892,67.908ZM264.975,25.142C264.975,25.142 281.783,63.025 286.729,66.063C291.675,69.104 288.679,44.667 288.679,44.667L293.462,43.504C293.462,43.504 301,38.429 295.5,35.837C295.5,35.837 281.962,36.587 264.975,25.142ZM254.379,41.333L240.267,39.429L244.496,50.029L250.233,62.617L252.283,50.804L254.379,41.333ZM507.654,16.35L506.721,25.675L509.938,35.058L514.033,38.85L512.504,27.629L521.633,24.946L507.654,16.35ZM182.181,149.249L182.25,149.25L182.319,149.25C182.273,149.25 182.227,149.249 182.181,149.249C181.983,149.247 181.785,149.242 181.588,149.234C181.488,149.23 181.386,149.226 181.285,149.22C181.256,149.218 181.229,149.217 181.202,149.215C180.979,149.202 180.757,149.185 180.535,149.163C180.305,149.141 180.076,149.115 179.847,149.085L179.811,149.08C179.594,149.051 179.377,149.017 179.16,148.98L179.228,148.992C179.422,149.024 179.617,149.054 179.811,149.08L179.847,149.085C180.076,149.115 180.306,149.142 180.535,149.163C180.757,149.185 180.98,149.202 181.202,149.215L181.217,149.216L181.285,149.22C181.386,149.226 181.487,149.23 181.588,149.234C181.785,149.242 181.983,149.247 182.181,149.249ZM184.95,149.086C184.997,149.08 185.045,149.074 185.089,149.068L185.091,149.068C185.293,149.041 185.494,149.012 185.699,148.979C185.738,148.973 185.778,148.967 185.816,148.96L185.854,148.954C185.877,148.95 185.9,148.946 185.924,148.942L185.993,148.93L186.034,148.923C186.097,148.912 186.161,148.901 186.224,148.889L186.272,148.881L186.341,148.868L186.393,148.858C186.429,148.851 186.465,148.844 186.5,148.837L186.55,148.827C186.574,148.823 186.597,148.818 186.62,148.814L186.674,148.803C186.713,148.795 186.752,148.787 186.791,148.779L186.829,148.771C186.852,148.766 186.876,148.761 186.899,148.756L186.969,148.741L187.038,148.726C187.062,148.721 187.085,148.716 187.108,148.711L187.16,148.699C187.6,148.601 188.04,148.49 188.481,148.367L188.505,148.361L188.567,148.343C188.85,148.263 189.132,148.179 189.415,148.089L189.485,148.067C189.179,148.165 188.873,148.257 188.567,148.343L188.505,148.361L188.481,148.367C188.04,148.49 187.6,148.601 187.16,148.699L187.108,148.711C187.085,148.716 187.062,148.721 187.038,148.726L186.969,148.741L186.899,148.756C186.876,148.761 186.852,148.766 186.829,148.771L186.791,148.779C186.752,148.787 186.713,148.795 186.674,148.803L186.62,148.814C186.597,148.818 186.574,148.823 186.55,148.827L186.5,148.837C186.464,148.844 186.429,148.851 186.393,148.858L186.341,148.868L186.272,148.881L186.224,148.889C186.16,148.901 186.097,148.912 186.034,148.923L185.987,148.931L185.924,148.942C185.9,148.946 185.877,148.95 185.854,148.954L185.816,148.96C185.777,148.967 185.738,148.973 185.699,148.979C185.496,149.011 185.294,149.041 185.091,149.068L185.089,149.068C185.02,149.077 184.95,149.086 184.881,149.094L184.95,149.086ZM179.024,148.956C179.001,148.952 178.978,148.948 178.955,148.944L178.896,148.933C178.782,148.912 178.668,148.889 178.555,148.866L178.499,148.854C178.449,148.844 178.395,148.833 178.342,148.821C178.394,148.832 178.446,148.843 178.499,148.854L178.555,148.866C178.669,148.89 178.782,148.912 178.896,148.933L178.955,148.944C178.978,148.948 179.001,148.952 179.024,148.956ZM189.632,148.02C189.7,147.997 189.768,147.975 189.835,147.953L189.905,147.929C189.813,147.96 189.722,147.99 189.632,148.02ZM190.045,147.882L190.115,147.858L190.167,147.84C190.356,147.775 190.546,147.707 190.734,147.638C190.855,147.593 190.975,147.548 191.096,147.502L191.166,147.475C191.022,147.531 190.878,147.585 190.734,147.638C190.545,147.707 190.356,147.775 190.167,147.84L190.115,147.858L190.092,147.866C190.053,147.879 190.014,147.893 189.975,147.906L190.045,147.882ZM191.361,147.4C191.472,147.356 191.584,147.312 191.698,147.266L191.728,147.254C191.751,147.245 191.774,147.235 191.798,147.226L191.854,147.203C191.945,147.166 192.036,147.128 192.126,147.09C192.197,147.06 192.268,147.03 192.34,146.999L192.359,146.991L192.43,146.961C192.4,146.974 192.37,146.987 192.34,146.999C192.269,147.03 192.198,147.06 192.126,147.09C192.035,147.128 191.945,147.166 191.854,147.203L191.798,147.226C191.774,147.235 191.751,147.245 191.728,147.254L191.698,147.266C191.585,147.312 191.473,147.356 191.361,147.4C191.319,147.416 191.278,147.432 191.237,147.448L191.307,147.421L191.361,147.4ZM192.57,146.9C192.61,146.883 192.65,146.865 192.691,146.848L192.75,146.822C192.822,146.79 192.895,146.757 192.966,146.725L193.021,146.7L193.061,146.682L193.132,146.651L193.165,146.635C193.241,146.601 193.317,146.566 193.393,146.53C193.514,146.475 193.634,146.418 193.753,146.361L193.816,146.331C193.892,146.295 193.968,146.258 194.045,146.221L194.115,146.187C194.016,146.235 193.916,146.283 193.816,146.331L193.753,146.361C193.633,146.418 193.513,146.475 193.393,146.53C193.317,146.566 193.241,146.601 193.165,146.635L193.132,146.651L193.061,146.682L192.991,146.714L192.966,146.725C192.894,146.758 192.821,146.79 192.75,146.822L192.691,146.848C192.627,146.876 192.563,146.903 192.5,146.931L192.57,146.9ZM194.256,146.118L194.326,146.083L194.396,146.048C194.363,146.065 194.329,146.081 194.295,146.098L194.256,146.118L194.2,146.145L194.256,146.118ZM194.537,145.978C194.604,145.944 194.671,145.91 194.739,145.875C194.841,145.824 194.942,145.772 195.041,145.72L195.099,145.69C195.122,145.678 195.146,145.666 195.169,145.653L195.212,145.631C195.278,145.596 195.344,145.561 195.41,145.526C195.452,145.504 195.493,145.482 195.534,145.46C195.648,145.399 195.763,145.337 195.878,145.274L195.942,145.239L196.013,145.201L196.083,145.162L196.129,145.136C196.172,145.112 196.215,145.088 196.259,145.064L196.294,145.045L196.363,145.006C196.404,144.983 196.445,144.96 196.486,144.937L196.551,144.9C196.587,144.88 196.622,144.859 196.66,144.838C196.777,144.771 196.894,144.704 197.009,144.637L197.067,144.604L197.137,144.563L197.182,144.536C197.438,144.386 197.694,144.233 197.95,144.077L197.98,144.059L198.042,144.021C198.068,144.005 198.094,143.989 198.12,143.973L198.19,143.93C198.141,143.96 198.092,143.991 198.042,144.021L197.98,144.059L197.95,144.077C197.695,144.233 197.439,144.385 197.182,144.536L197.127,144.568L197.067,144.604L197.009,144.637C196.893,144.704 196.777,144.771 196.66,144.838C196.624,144.858 196.588,144.879 196.551,144.9L196.486,144.937C196.445,144.96 196.404,144.983 196.363,145.006L196.294,145.045L196.259,145.064C196.215,145.088 196.172,145.113 196.129,145.136L196.083,145.162L196.002,145.207L195.942,145.239L195.878,145.274C195.763,145.337 195.649,145.399 195.534,145.46C195.493,145.482 195.452,145.504 195.41,145.526C195.344,145.561 195.278,145.596 195.212,145.631L195.169,145.653C195.146,145.666 195.122,145.678 195.099,145.69L195.041,145.72C194.94,145.772 194.84,145.824 194.739,145.875C194.648,145.922 194.558,145.967 194.467,146.013L194.537,145.978ZM198.349,143.832C198.475,143.753 198.602,143.674 198.728,143.594L198.78,143.562C198.868,143.506 198.956,143.45 199.043,143.394C199.116,143.347 199.189,143.3 199.261,143.254L199.314,143.22L199.384,143.174L199.454,143.129C199.477,143.113 199.501,143.098 199.524,143.083L199.594,143.037L199.664,142.991C199.688,142.975 199.711,142.96 199.735,142.945L199.805,142.898L199.875,142.852L199.945,142.805C199.913,142.827 199.881,142.848 199.85,142.868L199.788,142.91L199.735,142.945C199.711,142.96 199.688,142.975 199.664,142.991L199.588,143.041L199.524,143.083C199.501,143.098 199.477,143.113 199.454,143.129L199.384,143.174L199.314,143.22L199.261,143.254C199.188,143.301 199.115,143.348 199.043,143.394C198.955,143.45 198.868,143.506 198.78,143.562L198.728,143.594C198.602,143.674 198.476,143.753 198.349,143.832ZM200.085,142.712C200.17,142.655 200.254,142.598 200.339,142.541L200.366,142.523C200.389,142.507 200.412,142.491 200.436,142.476L200.506,142.428L200.569,142.385C200.969,142.112 201.369,141.833 201.767,141.549L201.837,141.499C201.415,141.801 200.992,142.096 200.569,142.385L200.499,142.432L200.436,142.476C200.412,142.491 200.389,142.507 200.366,142.523L200.339,142.541C200.231,142.614 200.124,142.686 200.015,142.759L200.085,142.712ZM202.041,141.353C202.09,141.318 202.138,141.283 202.187,141.248L202.257,141.197C202.185,141.249 202.113,141.301 202.041,141.353C201.997,141.385 201.952,141.417 201.907,141.449L201.977,141.399L202.041,141.353ZM202.333,141.142C202.475,141.038 202.618,140.934 202.76,140.829L202.816,140.788L202.875,140.744C202.901,140.725 202.928,140.705 202.956,140.684L203.026,140.632C202.975,140.67 202.925,140.707 202.875,140.744L202.816,140.788L202.76,140.829C202.618,140.934 202.476,141.038 202.333,141.142ZM203.165,140.528C203.24,140.472 203.315,140.416 203.387,140.362C203.511,140.269 203.634,140.175 203.758,140.081L203.794,140.054L203.863,140.001L203.924,139.955C204.106,139.816 204.288,139.675 204.47,139.534C204.509,139.504 204.547,139.473 204.586,139.443L204.649,139.394C204.69,139.362 204.73,139.331 204.77,139.3L204.839,139.245L204.909,139.19C204.863,139.226 204.817,139.262 204.77,139.3C204.729,139.331 204.689,139.363 204.649,139.394L204.586,139.443C204.547,139.473 204.509,139.503 204.47,139.534C204.288,139.675 204.106,139.816 203.924,139.955L203.845,140.015L203.794,140.054L203.758,140.081C203.634,140.176 203.51,140.269 203.387,140.362C203.29,140.435 203.193,140.507 203.095,140.58L203.165,140.528ZM205.059,139.072C205.192,138.966 205.327,138.86 205.461,138.752L205.477,138.739C205.576,138.66 205.675,138.581 205.773,138.502L205.814,138.469L205.883,138.413C205.846,138.443 205.81,138.472 205.773,138.502C205.675,138.581 205.576,138.66 205.477,138.739L205.461,138.752C205.327,138.859 205.193,138.966 205.059,139.072ZM205.962,138.349C206.006,138.314 206.05,138.278 206.093,138.243L206.133,138.211C206.188,138.166 206.244,138.12 206.3,138.075L206.369,138.018C206.392,137.999 206.416,137.98 206.439,137.961L206.508,137.904L206.558,137.863C208.161,136.546 209.754,135.157 211.335,133.722L211.472,133.598C209.846,135.077 208.207,136.507 206.558,137.863L206.488,137.921L206.439,137.961C206.416,137.98 206.392,137.999 206.369,138.018L206.3,138.075C206.244,138.12 206.189,138.165 206.133,138.211L206.093,138.243C206.05,138.278 206.007,138.313 205.962,138.349ZM270.973,134.309C271.107,134.137 271.24,133.964 271.373,133.792C271.434,133.714 271.495,133.635 271.555,133.558L271.652,133.432C271.559,133.552 271.466,133.672 271.373,133.792C271.207,134.007 271.041,134.221 270.875,134.434L270.973,134.309ZM211.745,133.349C212.474,132.682 213.2,132.006 213.923,131.323L214.059,131.195C213.245,131.965 212.428,132.726 211.608,133.473L211.745,133.349ZM272.041,132.927C272.593,132.208 273.143,131.488 273.69,130.767C273.982,130.383 274.272,129.998 274.562,129.615L274.619,129.538C274.683,129.455 274.746,129.371 274.809,129.288L274.997,129.037L274.809,129.288C274.746,129.371 274.683,129.455 274.619,129.538L274.562,129.615C274.272,129.999 273.982,130.383 273.69,130.767C273.143,131.487 272.594,132.208 272.041,132.927C271.943,133.054 271.846,133.18 271.748,133.307L271.942,133.056L272.041,132.927ZM214.465,130.809C214.375,130.895 214.284,130.981 214.194,131.066L214.33,130.938L214.465,130.809ZM214.6,130.68C214.741,130.547 214.881,130.413 215.02,130.28C215.195,130.112 215.37,129.944 215.545,129.775L215.679,129.645C215.46,129.857 215.24,130.069 215.02,130.28C214.88,130.413 214.74,130.547 214.6,130.68ZM216.082,129.255C215.992,129.342 215.902,129.429 215.814,129.515L215.948,129.385L216.082,129.255ZM216.219,129.122C216.363,128.982 216.506,128.843 216.648,128.704C216.78,128.575 216.913,128.445 217.044,128.316C217.474,127.895 217.902,127.473 218.33,127.049C218.493,126.887 218.656,126.725 218.819,126.563L218.883,126.499C218.927,126.455 218.971,126.411 219.015,126.367L219.104,126.278C219.268,126.115 219.432,125.951 219.596,125.787L219.676,125.707L219.753,125.63C219.99,125.392 220.226,125.155 220.461,124.919C220.855,124.522 221.248,124.126 221.638,123.73C221.771,123.596 221.903,123.462 222.036,123.327C222.287,123.073 222.537,122.819 222.787,122.564L222.938,122.411C223.024,122.324 223.11,122.236 223.196,122.149L223.351,121.991C223.657,121.68 223.962,121.369 224.267,121.057C224.978,120.333 225.683,119.614 226.382,118.903C226.823,118.454 227.262,118.008 227.697,117.567L227.757,117.505L227.951,117.309C228.251,117.006 228.55,116.704 228.848,116.404C229.052,116.198 229.255,115.993 229.459,115.789C229.659,115.588 229.859,115.388 230.059,115.188C230.112,115.136 230.165,115.083 230.217,115.03L230.339,114.909C230.379,114.869 230.42,114.829 230.46,114.788L230.519,114.73C230.674,114.575 230.83,114.421 230.984,114.269L231.065,114.189C231.105,114.149 231.145,114.109 231.185,114.07L231.247,114.009C231.386,113.871 231.526,113.734 231.665,113.596L231.785,113.479L231.848,113.418C232.058,113.211 232.268,113.006 232.478,112.802C232.556,112.726 232.634,112.65 232.712,112.575L232.737,112.551L232.855,112.436L232.973,112.322L233.041,112.257C233.168,112.135 233.295,112.013 233.422,111.891C233.565,111.753 233.709,111.616 233.852,111.48L233.912,111.422C233.951,111.385 233.99,111.348 234.029,111.311L234.145,111.201C234.282,111.072 234.417,110.944 234.553,110.817L234.61,110.763L234.649,110.727C234.835,110.552 235.021,110.379 235.206,110.207C235.363,110.062 235.519,109.918 235.676,109.774C236.494,109.024 237.299,108.307 238.09,107.63C238.171,107.56 238.253,107.49 238.334,107.421L238.444,107.328L238.457,107.317C238.583,107.21 238.709,107.105 238.834,107C238.971,106.886 239.108,106.773 239.244,106.661C239.349,106.575 239.453,106.49 239.557,106.406L239.599,106.372C239.63,106.347 239.662,106.322 239.693,106.296L239.747,106.253C239.766,106.238 239.786,106.222 239.805,106.207C239.888,106.14 239.97,106.074 240.053,106.009C240.193,105.898 240.332,105.789 240.471,105.682C240.65,105.542 240.829,105.405 241.007,105.271C241.034,105.251 241.061,105.23 241.088,105.21C241.258,105.082 241.428,104.957 241.596,104.834C241.654,104.792 241.713,104.749 241.771,104.708L241.804,104.684C241.821,104.671 241.838,104.659 241.855,104.647L241.907,104.61L241.936,104.589C241.992,104.549 242.047,104.51 242.103,104.47C242.175,104.42 242.247,104.369 242.319,104.319C242.247,104.369 242.175,104.42 242.103,104.47C242.047,104.51 241.992,104.549 241.936,104.589L241.907,104.61L241.855,104.647C241.838,104.659 241.821,104.671 241.804,104.684L241.771,104.708C241.73,104.737 241.69,104.766 241.648,104.796L241.596,104.834C241.428,104.957 241.258,105.082 241.088,105.21C241.061,105.23 241.034,105.251 241.007,105.271C240.829,105.405 240.651,105.542 240.471,105.682C240.332,105.789 240.193,105.898 240.053,106.009C239.97,106.075 239.887,106.141 239.805,106.207C239.785,106.223 239.765,106.239 239.747,106.253L239.693,106.296C239.662,106.322 239.63,106.347 239.599,106.372L239.557,106.406C239.453,106.49 239.349,106.575 239.244,106.661C239.108,106.773 238.971,106.886 238.834,107C238.709,107.105 238.583,107.21 238.457,107.317L238.444,107.328L238.334,107.421C238.253,107.49 238.172,107.559 238.09,107.63C237.299,108.306 236.495,109.023 235.676,109.774C235.519,109.917 235.363,110.062 235.206,110.207C235.021,110.379 234.835,110.552 234.649,110.727L234.61,110.763L234.553,110.817C234.417,110.945 234.281,111.073 234.145,111.201L234.029,111.311C233.99,111.348 233.951,111.385 233.912,111.422L233.852,111.48C233.709,111.616 233.566,111.753 233.422,111.891C233.295,112.012 233.168,112.135 233.041,112.257L232.973,112.322L232.855,112.436L232.737,112.551L232.712,112.575C232.634,112.65 232.556,112.726 232.478,112.802C232.269,113.006 232.058,113.211 231.848,113.418L231.785,113.479L231.665,113.596C231.525,113.734 231.385,113.872 231.247,114.009L231.185,114.07C231.145,114.109 231.105,114.149 231.065,114.189L230.984,114.269C230.829,114.422 230.674,114.575 230.519,114.73C230.459,114.789 230.399,114.849 230.339,114.909L230.217,115.03C230.165,115.083 230.112,115.135 230.059,115.188C229.86,115.387 229.66,115.588 229.459,115.789C229.256,115.993 229.053,116.197 228.848,116.404C228.55,116.703 228.252,117.005 227.951,117.309L227.757,117.505L227.697,117.567C227.261,118.008 226.823,118.454 226.382,118.903C225.682,119.615 224.977,120.334 224.267,121.057C223.963,121.368 223.657,121.679 223.351,121.991L223.196,122.149C223.11,122.236 223.024,122.324 222.938,122.411L222.787,122.564C222.538,122.818 222.287,123.073 222.036,123.327C221.904,123.461 221.772,123.594 221.638,123.73C221.247,124.126 220.855,124.522 220.461,124.919C220.225,125.156 219.989,125.394 219.753,125.63L219.676,125.707L219.596,125.787C219.432,125.951 219.268,126.116 219.104,126.278L219.015,126.367C218.971,126.411 218.927,126.455 218.883,126.499L218.819,126.563C218.656,126.725 218.493,126.887 218.33,127.049C217.903,127.472 217.474,127.895 217.044,128.316C216.913,128.445 216.781,128.575 216.648,128.704C216.505,128.844 216.362,128.983 216.219,129.122ZM275.427,128.466C276.416,127.152 277.392,125.848 278.353,124.571C278.554,124.303 278.755,124.037 278.955,123.771C279.434,123.135 279.909,122.507 280.381,121.887C280.484,121.751 280.586,121.617 280.688,121.483C281.297,120.685 281.898,119.903 282.493,119.14C282.622,118.973 282.752,118.807 282.881,118.643L282.936,118.572C283.074,118.397 283.21,118.223 283.347,118.05L283.392,117.993C283.421,117.957 283.45,117.921 283.478,117.885L283.54,117.807C283.744,117.55 283.946,117.296 284.149,117.044C284.246,116.923 284.343,116.802 284.439,116.683C284.74,116.311 285.038,115.945 285.334,115.588C285.038,115.946 284.739,116.311 284.439,116.683C284.343,116.802 284.246,116.922 284.149,117.044C283.946,117.295 283.743,117.55 283.54,117.807L283.478,117.885C283.45,117.921 283.421,117.957 283.392,117.993L283.347,118.05C283.211,118.223 283.074,118.397 282.936,118.572L282.881,118.643C282.752,118.808 282.622,118.973 282.493,119.14C281.898,119.903 281.297,120.685 280.688,121.483C280.586,121.617 280.483,121.752 280.381,121.887C279.909,122.506 279.434,123.135 278.955,123.771C278.755,124.036 278.554,124.303 278.353,124.571L278.341,124.586C277.384,125.859 276.412,127.157 275.427,128.466ZM285.5,115.387L285.417,115.487C285.574,115.297 285.731,115.109 285.887,114.923C286.096,114.675 286.303,114.43 286.509,114.19C286.783,113.869 287.056,113.556 287.326,113.25C287.375,113.195 287.423,113.141 287.471,113.087C287.575,112.97 287.678,112.854 287.781,112.74C288.009,112.487 288.235,112.24 288.459,111.999C288.534,111.918 288.61,111.837 288.686,111.757C288.93,111.498 289.171,111.246 289.41,111.002L289.334,111.081C289.119,111.3 288.903,111.526 288.686,111.757C288.61,111.837 288.535,111.918 288.459,111.999C288.235,112.24 288.009,112.487 287.781,112.74C287.678,112.854 287.575,112.97 287.471,113.087C287.423,113.141 287.374,113.195 287.326,113.25C287.056,113.556 286.783,113.869 286.509,114.19C286.303,114.43 286.096,114.675 285.887,114.923C285.758,115.076 285.629,115.231 285.5,115.387ZM289.563,110.847L289.487,110.925C289.762,110.645 290.034,110.377 290.303,110.119C290.409,110.018 290.514,109.918 290.619,109.821L290.637,109.803C290.656,109.785 290.676,109.767 290.695,109.749C290.793,109.658 290.891,109.568 290.989,109.48C290.891,109.568 290.793,109.658 290.695,109.749C290.676,109.767 290.657,109.785 290.637,109.803C290.527,109.907 290.415,110.012 290.303,110.119C290.059,110.353 289.812,110.596 289.563,110.847ZM292.523,108.194L292.54,108.181L292.523,108.194C292.501,108.21 292.48,108.227 292.459,108.243C292.415,108.277 292.371,108.311 292.327,108.345L292.292,108.373C292.202,108.444 292.112,108.517 292.021,108.591C291.9,108.689 291.779,108.79 291.658,108.893C291.638,108.909 291.619,108.926 291.6,108.942C291.545,108.989 291.491,109.036 291.436,109.083C291.349,109.159 291.261,109.236 291.173,109.315L291.136,109.348C291.107,109.374 291.077,109.401 291.047,109.427C291.077,109.4 291.107,109.374 291.136,109.348C291.236,109.258 291.336,109.17 291.436,109.083C291.491,109.036 291.545,108.989 291.6,108.942C291.619,108.926 291.638,108.909 291.658,108.893C291.78,108.789 291.901,108.689 292.021,108.591C292.111,108.517 292.202,108.445 292.292,108.373C292.347,108.33 292.403,108.286 292.459,108.243C292.481,108.226 292.502,108.21 292.523,108.194ZM242.463,104.22L242.421,104.248L242.37,104.284C242.402,104.261 242.432,104.24 242.463,104.22C242.483,104.205 242.505,104.19 242.527,104.176C242.687,104.066 242.848,103.957 243.009,103.851C243.1,103.791 243.192,103.731 243.283,103.672C243.192,103.731 243.1,103.791 243.009,103.851C242.849,103.957 242.688,104.065 242.527,104.176C242.505,104.19 242.484,104.205 242.463,104.22ZM244.522,102.915C244.5,102.928 244.479,102.94 244.457,102.953L244.424,102.972C244.408,102.981 244.391,102.991 244.375,103L244.313,103.037L244.277,103.058C244.26,103.068 244.244,103.077 244.228,103.087L244.178,103.116C244.145,103.136 244.112,103.156 244.08,103.175L244.03,103.205C243.87,103.301 243.709,103.401 243.548,103.503C243.508,103.528 243.468,103.554 243.428,103.579C243.396,103.599 243.364,103.62 243.333,103.64L243.383,103.607L243.428,103.579C243.468,103.553 243.508,103.528 243.548,103.503C243.71,103.401 243.871,103.301 244.03,103.205C244.08,103.175 244.129,103.145 244.178,103.116L244.228,103.087C244.256,103.07 244.285,103.053 244.313,103.037L244.375,103C244.391,102.991 244.408,102.981 244.424,102.972L244.457,102.953C244.478,102.941 244.5,102.928 244.522,102.915Z" style="fill:rgb(138,182,200);fill-rule:nonzero;"/>
            </g>
        </g>
    </g>
</svg>
