<?xml version="1.0" encoding="UTF-8" standalone="no"?>
<!DOCTYPE svg PUBLIC "-//W3C//DTD SVG 1.1//EN" "http://www.w3.org/Graphics/SVG/1.1/DTD/svg11.dtd">
<svg width="100%" height="100%" viewBox="0 0 1500 413" version="1.1" xmlns="http://www.w3.org/2000/svg" xmlns:xlink="http://www.w3.org/1999/xlink" xml:space="preserve" xmlns:serif="http://www.serif.com/" style="fill-rule:evenodd;clip-rule:evenodd;stroke-linejoin:round;stroke-miterlimit:2;">
    <g>
        <path d="M1421.35,215.95C1394.53,215.95 1377.9,199.517 1377.98,173.083C1378.44,139.421 1392.8,106.8 1392.94,106.496C1404.67,79.992 1428.62,63.688 1455.5,63.688C1482.19,63.688 1498.71,79.992 1498.62,106.25L1498.53,106.846C1498.56,106.846 1498.08,139.858 1483.62,173.075C1472.18,199.517 1448.29,215.95 1421.35,215.95ZM1297.37,67.064C1297.34,67.154 1297.28,67.351 1297.19,67.608C1293.58,77.883 1281.66,114.142 1279,148.987C1276.43,183.229 1294.28,190.933 1300.74,190.933C1311.11,190.933 1318.42,183.696 1324.9,177.304C1327.54,174.692 1331.49,167.396 1334.96,158.725C1336.78,155 1340.11,150.787 1343.77,150.787L1353.3,150.787C1354.8,150.787 1356.08,151.517 1356.92,152.817C1358.02,154.575 1358.13,157.104 1357.17,159.6C1352.75,174.013 1344.38,187.479 1332.95,198.454C1321.25,209.412 1307.12,215.95 1295.13,215.95C1268.13,215.95 1253.16,192.717 1256.05,155.346C1259.06,111.913 1274.22,69.025 1277.22,60.867C1291.07,23.592 1316.41,0.529 1343.45,0.529C1355.44,0.529 1366.64,7.067 1373.42,18C1379.89,28.358 1382.3,42.208 1380.21,56.996C1380.06,59.279 1378.94,61.579 1377.16,63.233C1375.76,64.529 1374.07,65.271 1372.49,65.271L1362.96,65.271C1359.77,65.271 1357.76,62.267 1357.7,57.421C1358.02,49.625 1355.7,40.233 1354.37,36.942C1350.49,27.229 1344.23,26.454 1336.45,26.454C1328.22,26.454 1309.43,34.942 1297.37,67.071L1297.37,67.064C1297.38,67.031 1297.39,67.013 1297.39,67.013C1297.39,67.013 1297.38,67.027 1297.37,67.064ZM133.204,8.217L82.621,8.217C79.037,8.217 75.592,11.021 74.787,14.6L72.487,24.846C71.687,28.437 73.871,31.254 77.454,31.254L111.4,31.254L81.862,162.896C81.838,162.971 79.758,170.779 74.571,178.113C67.592,187.542 58.637,191.925 46.383,191.925C34.425,191.925 27.608,187.638 24.921,178.4C23.771,174.779 23.346,170.908 23.754,167.6C23.75,164.017 21.437,161.521 18.125,161.521L7.908,161.521C6.079,161.521 4.213,162.25 2.775,163.538C1.396,164.779 0.521,166.379 0.338,168.104C-0.15,173.583 -0.421,180.838 1.808,188.421C3.962,196.25 7.758,202.221 13.425,206.671C20.625,212.167 29.967,214.967 41.212,214.967C52.662,214.967 63.362,212.167 73.029,206.658C80.658,202.237 87.125,196.258 92.829,188.4C102.004,175.508 104.783,163.454 104.892,162.946L138.171,14.6C138.979,11.021 136.796,8.217 133.204,8.217ZM262.65,101.508L262.75,100.879C262.842,73.575 245.671,56.621 217.908,56.621C189.971,56.621 165.05,73.575 152.842,101.15C152.696,101.471 137.762,135.492 137.3,170.4C137.217,197.896 154.479,214.967 182.383,214.967C210.417,214.967 235.25,197.875 247.171,170.383C262.304,135.608 262.687,101.508 262.65,101.508ZM321.696,214.967C293.8,214.967 276.512,197.896 276.613,170.4C277.071,135.379 292.004,101.454 292.163,101.146C304.358,73.575 329.275,56.621 357.213,56.621C384.975,56.621 402.167,73.575 402.058,100.879L402,101.317C402.05,103.692 401.492,118.821 397.021,138.746C396.233,142.267 392.579,145.138 388.871,145.138L302.258,145.138C301.133,151.721 300.487,158.65 300.321,165.775C300.083,189.383 318.808,191.925 326.867,191.925C333.083,191.925 348.746,190.275 359.779,175.033C361.738,172.325 365.567,169.583 369.117,169.583L379.975,169.583C381.867,169.583 383.329,170.367 384.004,171.729C384.642,173.046 384.471,174.721 383.517,176.438C370.912,200.187 347.213,214.967 321.696,214.967ZM860.037,214.967C832.129,214.967 814.854,197.896 814.933,170.4C815.413,135.379 830.35,101.454 830.5,101.146C842.7,73.575 867.604,56.621 895.558,56.621C923.296,56.621 940.496,73.575 940.404,100.879L940.333,101.317C940.4,103.692 939.808,118.854 935.342,138.746C934.55,142.267 930.9,145.138 927.213,145.138L840.592,145.138C839.471,151.704 838.825,158.642 838.654,165.775C838.429,189.383 857.146,191.925 865.2,191.925C871.408,191.925 887.075,190.275 898.117,175.033C900.442,171.833 904.283,169.583 907.438,169.583L918.304,169.583C920.192,169.583 921.667,170.367 922.329,171.717C922.987,173.046 922.821,174.717 921.867,176.438C909.246,200.187 885.55,214.967 860.037,214.967ZM527.729,214.967C499.808,214.967 482.546,197.896 482.629,170.4C483.096,135.504 498.017,101.471 498.175,101.15C510.383,73.575 535.3,56.621 563.25,56.621C590.992,56.621 608.179,73.575 608.087,100.879L608.017,101.317C608.075,103.692 607.508,118.804 603.038,138.746C602.246,142.267 598.6,145.138 594.904,145.138L508.271,145.138C507.15,151.733 506.504,158.667 506.333,165.775C506.108,189.383 524.833,191.925 532.9,191.925C539.108,191.925 554.758,190.275 565.804,175.033C568.129,171.833 571.962,169.583 575.138,169.583L585.996,169.583C587.879,169.583 589.35,170.367 590.025,171.717C590.679,173.046 590.508,174.717 589.554,176.438C576.933,200.187 553.233,214.967 527.729,214.967ZM778.117,214.967L767.875,214.967C754.958,214.967 744.242,208.938 737.687,197.992C731.758,188.296 729.992,175.513 732.796,162.946L751.004,81.837L732.262,81.837C728.733,81.837 726.533,78.833 727.371,75.129L729.596,65.187C730.4,61.604 733.833,58.796 737.425,58.796L756.183,58.796L763.788,24.846C764.592,21.267 768.025,18.446 771.612,18.446L781.867,18.446C785.454,18.446 787.638,21.267 786.821,24.846L779.208,58.796L813.142,58.796C816.742,58.796 818.925,61.604 818.133,65.187L815.888,75.129C815.063,78.833 811.508,81.837 807.975,81.837L774.046,81.837L755.85,162.946C754.183,170.367 755.213,177.829 758.679,183.433C760.079,185.512 764.388,191.925 773.042,191.925L783.279,191.925C786.892,191.925 789.058,194.737 788.258,198.329L786.025,208.258C785.2,211.967 781.638,214.967 778.117,214.967ZM680.696,214.967L670.45,214.967C657.542,214.967 646.821,208.938 640.262,197.992C634.346,188.296 632.567,175.508 635.379,162.946L653.579,81.837L634.833,81.837C631.312,81.837 629.112,78.833 629.942,75.129L632.158,65.187C632.971,61.604 636.425,58.796 639.992,58.796L658.75,58.796L666.358,24.846C667.163,21.267 670.604,18.446 674.2,18.446L684.433,18.446C688.021,18.446 690.2,21.267 689.396,24.846L681.779,58.796L715.721,58.796C719.321,58.796 721.496,61.604 720.692,65.187L718.458,75.129C717.629,78.833 714.079,81.837 710.563,81.837L676.617,81.837L658.429,162.946C656.758,170.367 657.783,177.829 661.25,183.433C662.65,185.512 666.962,191.925 675.621,191.925L685.862,191.925C689.45,191.925 691.629,194.737 690.825,198.329L688.588,208.258C687.767,211.967 684.217,214.967 680.696,214.967ZM448.471,212.792L442.896,212.792C421.246,212.792 411.292,192.317 415.583,173.192L451.158,14.6C451.963,11.021 455.404,8.217 458.987,8.217L469.229,8.217C472.812,8.217 474.988,11.021 474.188,14.6L438.612,173.192C436.896,180.838 440.646,189.75 448.063,189.75L453.633,189.75C457.229,189.75 459.408,192.558 458.604,196.154L456.3,206.396C455.5,209.975 452.054,212.792 448.471,212.792ZM1197.54,199.825C1197.17,201.317 1195.62,202.538 1194.09,202.538L977.842,202.538C976.308,202.538 975.35,201.317 975.717,199.825L978.892,186.854C979.258,185.367 980.808,184.146 982.342,184.146L1198.59,184.146C1200.13,184.146 1201.08,185.367 1200.72,186.854L1197.54,199.825ZM1450.52,85.833C1442.78,85.833 1423.67,88.296 1413.7,111.021C1413.53,111.388 1401.17,140.196 1400.79,168.633C1400.58,191.346 1418.56,193.796 1426.31,193.796C1434.05,193.796 1453.15,191.346 1463.13,168.625C1468.05,157.342 1474.25,138.433 1475.94,112.467C1476.01,111.488 1476.06,110.892 1476.1,110.725C1475.98,88.296 1458.17,85.833 1450.52,85.833ZM187.558,191.925C179.496,191.925 160.775,189.383 161,165.758C161.412,136.254 174.258,106.212 174.442,105.842C184.817,82.213 204.679,79.654 212.737,79.654C220.696,79.654 239.208,82.213 239.325,105.533C239.292,105.704 239.237,106.325 239.167,107.354C237.408,134.354 230.95,154.013 225.858,165.754C215.458,189.383 195.612,191.925 187.558,191.925ZM1008.11,172.071L1005.17,172.071C991.192,172.071 982.383,160.704 985.512,146.729L985.921,144.883C988.788,132.104 997.279,123.671 1011.15,119.783L1039.98,112.092C1040.1,112.033 1040.26,111.963 1040.44,111.9C1042.43,111.083 1044.53,109.946 1045.03,107.721L1045.58,105.329C1047.63,96.179 1046.97,91.854 1032.19,91.854C1018.82,91.854 1015.47,95.288 1013.37,102.479C1012.55,104.954 1010.19,106.763 1007.86,106.763L1001.8,106.763C1000.55,106.763 999.504,106.254 998.917,105.367C998.342,104.504 998.233,103.404 998.629,102.238C1000.74,94.458 1004.51,88.492 1010.14,84.067C1016.6,79.267 1024.65,77.05 1035.5,77.05C1046.23,77.05 1053.22,79.267 1057.52,84.033C1061.65,88.875 1062.56,95.642 1060.39,105.329L1046.69,166.408C1046.13,168.858 1043.79,170.779 1041.33,170.779L1035.26,170.779C1032.81,170.779 1031.32,168.858 1031.88,166.408L1032.19,165.008C1030.55,165.963 1028.94,166.771 1027.5,167.487C1017.35,171.946 1008.2,172.071 1008.11,172.071ZM1167.58,172.071C1150.67,172.071 1140.33,161.783 1140.59,145.171C1140.89,124.275 1149.76,104.071 1149.86,103.875C1157.01,87.35 1171.98,77.05 1188.9,77.05C1195.83,77.05 1201.66,78.9 1206.62,82.708L1213.35,52.713C1213.89,50.296 1216.38,48.337 1218.89,48.337L1224.78,48.337C1227.23,48.337 1228.71,50.267 1228.16,52.713L1202.66,166.408C1202.11,168.858 1199.76,170.779 1197.3,170.779L1191.42,170.779C1188.91,170.779 1187.3,168.829 1187.84,166.408L1187.85,166.358C1180.9,170.246 1174.39,172.071 1167.58,172.071ZM1119.69,170.779L1113.61,170.779C1111.17,170.779 1109.68,168.858 1110.23,166.408L1123.1,109.008C1124.74,101.75 1123.47,96.917 1119.24,94.258C1115.76,92.021 1111.48,91.854 1111.43,91.854L1109.8,91.854C1102.9,91.854 1097.42,95.083 1090.87,100.292C1089.7,101.138 1088.51,102.921 1088.22,104.221L1074.27,166.408C1073.71,168.858 1071.36,170.779 1068.91,170.779L1062.84,170.779C1060.39,170.779 1058.89,168.858 1059.45,166.408L1078.22,82.696C1078.77,80.25 1081.12,78.325 1083.58,78.325L1089.65,78.325C1092.14,78.325 1093.63,80.133 1093.09,82.517L1093.08,82.596C1099.8,78.863 1106.39,77.05 1113.13,77.05L1114.77,77.05C1115.08,77.05 1122.42,77.083 1128.9,81.079C1135.04,84.754 1141.6,92.592 1137.92,109.008L1125.05,166.408C1124.49,168.858 1122.14,170.779 1119.69,170.779ZM1040.53,126.25L1012.07,134.112C1004.13,136.267 1001.9,139.688 1000.74,144.883L1000.33,146.729C999.046,152.437 1002.79,157.254 1008.49,157.254L1011.43,157.254C1011.46,157.254 1017.66,157.037 1024.21,154.087C1032.17,150.283 1036.87,144.133 1038.97,134.763L1040.89,126.204C1040.77,126.225 1040.65,126.237 1040.53,126.25ZM1185.58,91.854C1180.94,91.854 1169.53,93.325 1163.73,106.904C1161.88,111.492 1156.09,126.958 1155.82,142.204C1155.51,155.787 1166.26,157.254 1170.91,157.254C1177.95,157.254 1183.73,153.808 1190.25,148.638C1191.23,147.833 1192.46,145.817 1192.75,144.512L1201.75,104.412C1202.03,103.171 1201.7,101.275 1201.02,100.183C1196.67,95.092 1192.53,91.854 1185.58,91.854ZM308.058,122.092L376.992,122.092C378.058,115.075 378.371,109.65 378.5,107.254C378.55,106.296 378.6,105.704 378.638,105.533C378.521,82.213 360.004,79.654 352.046,79.654C343.992,79.654 324.137,82.213 313.754,105.842C313.771,105.779 313.646,106.167 313.217,107.254C312.279,109.65 310.133,115.075 308.058,122.092ZM514.087,122.092L583.013,122.092C584.092,115.075 584.388,109.65 584.525,107.254C584.575,106.296 584.625,105.704 584.663,105.533C584.546,82.213 566.033,79.654 558.079,79.654C550.017,79.654 530.154,82.213 519.767,105.842C519.796,105.779 519.675,106.167 519.25,107.254C518.296,109.65 516.162,115.075 514.087,122.092ZM846.387,122.092L915.325,122.092C916.396,115.083 916.692,109.654 916.833,107.254C916.879,106.296 916.938,105.704 916.979,105.533C916.842,82.213 898.342,79.654 890.392,79.654C882.325,79.654 862.471,82.213 852.079,105.842C852.113,105.779 851.988,106.167 851.554,107.254C850.604,109.65 848.471,115.075 846.387,122.092ZM386.254,43.354L376.329,43.354C372.738,43.354 370.554,40.542 371.358,36.954L373.658,26.708C374.458,23.125 377.9,20.312 381.496,20.312L391.421,20.312C395.125,20.312 397.483,23.196 396.704,26.708L394.404,36.954C393.621,40.483 389.954,43.354 386.254,43.354ZM344.058,43.354L333.808,43.354C330.225,43.354 328.046,40.542 328.842,36.954L331.142,26.708C331.942,23.125 335.392,20.312 338.971,20.312L349.229,20.312C352.813,20.312 354.992,23.125 354.192,26.708L351.892,36.954C351.092,40.542 347.642,43.354 344.058,43.354Z" style="fill:rgb(138,182,200);fill-rule:nonzero;"/>
    </g>
</svg>
