<?xml version="1.0" encoding="UTF-8"?>
<svg width="18px" height="16px" viewBox="0 0 18 16" version="1.1" xmlns="http://www.w3.org/2000/svg" xmlns:xlink="http://www.w3.org/1999/xlink">
    <title>Mask</title>
    <defs>
        <path d="M9.70363782,0 C9.79708609,0.0122465167 9.87384232,0.0658980182 9.95069533,0.113815003 C10.1297606,0.22558896 10.3053283,0.342805787 10.482547,0.457592754 C10.5109176,0.475865337 10.5429803,0.489569799 10.5680478,0.511632973 C10.8412607,0.752384292 11.104077,1.00198035 11.2925667,1.31932109 C11.3917667,1.4862044 11.5018486,1.64657571 11.6020203,1.81297308 C11.6673115,1.92134517 11.7232755,2.0353546 11.7840001,2.14664253 C11.832094,2.23499253 11.8810627,2.32295373 11.9262421,2.40479168 C11.9825942,2.40673561 12.0029006,2.38020143 12.0031924,2.34453097 C12.0037755,2.28611696 12.0045526,2.22585624 11.9913387,2.16967767 C11.9636485,2.05197486 11.9670489,1.93495241 11.9823029,1.81724965 C11.9841489,1.80247601 11.9989171,1.77924649 12.009605,1.77798298 C12.0323401,1.77555312 12.0642083,1.77701102 12.0785883,1.79090986 C12.2328775,1.94029816 12.337713,2.1254541 12.426031,2.31702488 C12.5391248,2.56195555 12.635507,2.81446745 12.7405365,3.06318872 C12.7740568,3.14259681 12.7835785,3.22375441 12.7867843,3.30986889 C12.7929057,3.46985143 12.7985407,3.6320694 12.8293404,3.78835852 C12.877143,4.03047057 12.9637122,4.25936409 13.1486071,4.43557812 C13.230707,4.38795273 13.230707,4.38795273 13.3264089,4.43897994 C13.5798985,4.28599548 13.7181565,4.03338641 13.8514593,3.78223523 C13.8870202,3.80322928 13.9086863,3.80808905 13.9132529,3.8196552 C13.9469677,3.90615849 13.9860257,3.99198142 14.0067206,4.08188654 C14.0407267,4.22913653 14.0832823,4.37716411 14.0543286,4.5320925 C14.0497621,4.55687713 14.0481105,4.58321692 14.0512196,4.60800156 C14.0743437,4.7928659 14.0472361,4.97462001 14.0322734,5.15851244 C14.018477,5.3281172 13.9731036,5.49091837 13.9574606,5.65780168 C13.9446358,5.79416588 13.9184026,5.92654507 13.8780811,6.05455052 C13.7705256,6.39722996 13.7274837,6.74740309 13.7355483,7.1045548 C13.7372972,7.17951134 13.7573117,7.25385561 13.7671252,7.3287733 C13.7850997,7.46489449 13.8507795,7.56534522 13.9778642,7.62413831 C14.0082754,7.63818295 14.0340223,7.66177211 14.0623928,7.68018077 C14.1103899,7.71120535 14.1623705,7.70867827 14.2062863,7.67952958 C14.4805682,7.49812537 14.7793339,7.35194451 15.0071729,7.10452562 C15.150192,6.94921819 15.3091454,6.80838303 15.4495408,6.65094706 C15.595863,6.48665882 15.7087627,6.29705133 15.8139868,6.10373106 C15.8543077,6.0295715 15.8945319,5.95512034 15.9374766,5.88251589 C15.9443746,5.87094969 15.9698307,5.85821719 15.9791578,5.86249376 C15.9990756,5.87153289 16.0205477,5.88825036 16.0298754,5.90759212 C16.0482384,5.94540085 16.0578574,5.98544511 16.0324986,6.02782201 C16.0018934,6.07826607 15.9779921,6.13279227 15.9488439,6.18420829 C15.8943374,6.28052824 15.8420655,6.37683852 15.8434258,6.49244187 C15.8438144,6.51750843 15.8382766,6.54315808 15.8315727,6.5674665 C15.7421857,6.8925634 15.6493983,7.21674665 15.5628291,7.54265999 C15.4884048,7.822503 15.3769626,8.08546329 15.2270455,8.33282388 C15.1875984,8.39799295 15.153107,8.46613612 15.1124942,8.53056652 C15.0498263,8.63015222 14.9838547,8.72760939 14.9149686,8.83248248 C14.929251,8.86718098 14.9596621,8.84552598 14.98813,8.83476654 C15.2233533,8.74519188 15.3451916,8.72650135 15.5552507,8.74848681 C15.5658409,8.83622449 15.5413565,8.90615606 15.467418,8.96246098 C15.3378073,9.06101641 15.2409392,9.18798186 15.1646688,9.33139268 C15.1289139,9.39868056 15.0861638,9.4624695 15.053907,9.53129303 C14.9232274,9.81082505 14.7304624,10.0460655 14.5276903,10.2743078 C14.4322798,10.3816399 14.3381322,10.4903814 14.2370861,10.5923872 C14.1106812,10.7199359 13.9616386,10.8122028 13.7889859,10.8701017 C13.6298384,10.9236462 13.4753548,10.9912938 13.3245628,11.0504465 C13.3154302,11.121593 13.3640099,11.131711 13.3986958,11.1493713 C13.5264604,11.2148999 13.6564602,11.2759577 13.7837395,11.3421862 C13.8096809,11.3557351 13.8287243,11.3824345 13.8503909,11.4039048 C13.8032682,11.394749 13.7534255,11.3916874 13.7100923,11.3735703 C13.593695,11.3245259 13.4806985,11.2679197 13.3656614,11.2154442 C13.3042564,11.1875396 13.2427547,11.1591491 13.179115,11.137737 L13.1597083,11.1389567 L13.1597083,11.1389567 L13.1150868,11.15877 L13.1150868,11.15877 C13.1212077,11.1731062 13.1236369,11.1956748 13.1342275,11.2007387 C13.4079257,11.3306686 13.6813331,11.4615413 13.9577524,11.5853382 C14.0156592,11.6112308 14.0846426,11.6122125 14.148768,11.6236523 C14.1617874,11.6540111 14.1844499,11.6711052 14.210015,11.6837612 L14.2886776,11.7172411 L14.2886776,11.7172411 C14.3786477,11.763292 14.4760989,11.7946567 14.566457,11.8400369 C14.8608507,11.9874716 15.1584507,12.1307658 15.4088308,12.3503287 C15.5165808,12.4447824 15.623845,12.5402471 15.7234336,12.6429625 C15.7996067,12.7214278 15.8617893,12.8132768 15.9325215,12.8970781 C16.0646581,13.0526577 16.1805696,13.2201339 16.2559656,13.408886 C16.3625499,13.6749955 16.4538798,13.947199 16.5522054,14.2166713 C16.6164276,14.3927007 16.6411065,14.5770499 16.6553888,14.7616615 C16.6721003,14.9798929 16.6725862,15.1992711 16.683079,15.4180077 C16.6900748,15.5641983 16.7502168,15.6950321 16.8174508,15.8211423 C16.8289159,15.8423599 16.8777874,15.8583776 16.9039233,15.8526042 C16.9294761,15.8468503 16.9640648,15.8124239 16.9674657,15.7869395 L16.978821,15.6534049 L16.978821,15.6534049 L16.984857,15.5191486 L16.984857,15.5191486 C16.9986535,15.5368574 17.0181827,15.5543234 17.0187658,15.5724405 C17.0225548,15.6903085 17.0209032,15.8083709 17.0210005,15.9353461 C16.9753353,15.9572635 16.9315162,15.978277 16.8862401,16 C16.7295214,15.8983927 16.6619955,15.7405679 16.6027284,15.5843662 C16.5747464,15.5106343 16.593304,15.420078 16.5848507,15.3377249 C16.5526912,15.0282764 16.5444325,14.7159606 16.4693283,14.4117897 C16.4430951,14.3054198 16.4209426,14.1992929 16.3650759,14.1011651 C16.3282525,14.0364918 16.3129013,13.9590762 16.2905543,13.8865494 C16.1975729,13.5843225 16.0564972,13.302001 15.8667445,13.0539601 C15.6879705,12.8201096 15.4930686,12.5938014 15.2527928,12.415313 C15.2256852,12.3951257 15.1995493,12.3730916 15.175648,12.3492498 C14.9244903,12.0995857 14.6118309,11.9553584 14.2875119,11.8311728 L14.2153222,11.8075156 L14.2153222,11.8075156 L13.6176935,11.5314631 L13.6176935,11.5314631 C13.4264833,11.4439199 13.2342046,11.3580192 13.0278377,11.2646345 C13.0146238,11.3102868 13.0004383,11.3392314 12.9987868,11.3687592 C12.9846985,11.5969724 12.9725536,11.825312 12.9607972,12.0537195 C12.9521504,12.2160541 12.8968663,12.3656076 12.8493555,12.5192433 C12.7577339,12.8156581 12.5635119,13.0537462 12.4184527,13.3193405 C12.3710387,13.406116 12.3046786,13.4833955 12.2130569,13.5393213 C12.1274593,13.5917676 12.0566299,13.6681432 11.9788052,13.7334484 C11.944022,13.7626651 11.9005915,13.7789743 11.8636709,13.7502631 C11.8413244,13.7328166 11.8231554,13.692714 11.8252928,13.6643915 C11.8307338,13.5893475 11.8455024,13.5147408 11.8615335,13.4409797 C11.8762049,13.3751206 11.897871,13.3108652 11.9153601,13.2456766 C11.9169144,13.2397283 11.9101132,13.2314959 11.9047695,13.2189287 C11.8335515,13.201939 11.7767131,13.2460751 11.7295909,13.2852252 C11.6389409,13.3606191 11.5530516,13.4436428 11.4754214,13.5322553 C11.3252125,13.7039692 11.182388,13.8818647 11.0363571,14.0569707 C10.9372544,14.1759662 10.8137645,14.2636067 10.6781293,14.3357154 C10.591366,14.3815622 10.5569713,14.3721829 10.4893482,14.284037 C10.4793407,14.2708768 10.4724427,14.2552674 10.4622406,14.2421655 C10.4579658,14.2368392 10.449124,14.2352161 10.429498,14.2255161 C10.3719797,14.2789245 10.3099916,14.3352878 10.2495583,14.3930797 C10.0600001,14.5745617 9.86840135,14.7519615 9.64980196,14.9008735 C9.54108026,14.9749651 9.42905545,15.0296079 9.30490469,15.0502812 C9.0640653,15.0904033 8.82083612,15.1164125 8.57841327,15.1471844 C8.55367649,15.1502558 8.5276957,15.1475634 8.50277412,15.1438895 C8.45113399,15.1361625 8.40276779,15.0534887 8.4272619,15.0047261 C8.45326165,14.953174 8.48633497,14.903663 8.52356634,14.8593908 C8.61064086,14.7562089 8.7044388,14.6588782 8.7905222,14.5549867 C8.85063503,14.4824794 8.89292852,14.3980755 8.89432767,14.3009003 C8.89548366,14.2217351 8.93049059,14.1555359 8.95794785,14.0843115 C9.03680257,13.8797167 9.1427746,13.6864742 9.20302311,13.4738607 C9.22702165,13.389554 9.24447138,13.3120023 9.21727624,13.2266362 C9.20456816,13.186903 9.20067175,13.1436028 9.19762105,13.1016438 C9.18330956,12.9067101 9.06513424,12.7928951 8.89202494,12.7404294 C8.78333241,12.7074317 8.67600013,12.6456159 8.54974117,12.6872444 C8.50708828,12.7013279 8.45158092,12.6718779 8.40169934,12.6694869 C8.28554469,12.6641412 8.17283953,12.645995 8.05195393,12.6620224 C7.87771734,12.6852325 7.69709776,12.6671737 7.51973266,12.6571432 C7.33978372,12.6468989 7.16686846,12.672879 6.99479892,12.7221373 C6.88145229,12.7545809 6.76771758,12.7835158 6.64583065,12.7771884 C6.57188244,12.7733103 6.49673934,12.8014093 6.42149898,12.8096223 C6.22887989,12.8307427 6.0360084,12.8482377 5.84325363,12.8683182 C5.7640974,12.8764825 5.69628026,12.8469451 5.63028925,12.8097875 C5.6244208,12.8064926 5.61776548,12.7946543 5.6195532,12.789503 C5.62464451,12.7748655 5.63091126,12.7525495 5.64188998,12.7489728 C5.77753448,12.7045937 5.9147143,12.6649674 6.05004804,12.6196163 C6.09044682,12.6061257 6.12381144,12.5775699 6.10899466,12.5090185 C5.91997047,12.4654461 5.72526263,12.4128832 5.52750409,12.3781944 C5.40333436,12.3564033 5.27414092,12.3632847 5.15632548,12.3074269 C4.92985594,12.3033641 4.73142676,12.2052558 4.53118068,12.1168086 C4.32244342,12.0246292 4.11657156,11.9260154 3.91096232,11.8269351 C3.89405679,11.8187707 3.87782141,11.7841014 3.88122178,11.7652747 C3.88494311,11.7447181 3.90998141,11.7154042 3.92886919,11.712673 C3.99526773,11.7032354 4.06297837,11.703595 4.13019345,11.7001154 C4.18631308,11.6972676 4.2423836,11.6943615 4.34806433,11.6888797 C4.25926044,11.6452587 4.21584937,11.6212322 4.1705436,11.6021529 C3.98353083,11.5236973 3.79648889,11.4455625 3.60845582,11.3696534 C3.45854846,11.3091788 3.31946469,11.2308788 3.19046579,11.1335091 C2.92041059,10.9298764 2.65131734,10.7249608 2.37831843,10.5254395 C2.26236804,10.4407538 2.14171491,10.3604126 2.01540779,10.2924735 C1.79053193,10.1715341 1.59230652,10.0133691 1.38756244,9.86392253 C1.36086287,9.84441556 1.33353156,9.82141928 1.31723831,9.79365077 C1.30638554,9.77503796 1.3058608,9.74003813 1.31662603,9.722096 C1.32679843,9.70525218 1.36249497,9.68812644 1.37926482,9.69385123 C1.43469436,9.7123182 1.48953108,9.73646137 1.53976281,9.7666792 C1.9263802,9.99952861 2.34780026,10.1497528 2.77391333,10.2892855 C2.789925,10.2945049 2.80579126,10.3032232 2.822085,10.3046228 C3.16687527,10.3360848 3.5072546,10.4152013 3.85604779,10.40173 C3.88689618,10.4005151 3.91718092,10.3831561 3.96652804,10.367294 C3.90164488,10.295088 3.8459143,10.237714 3.79691637,10.175072 C3.78511187,10.1601817 3.78760865,10.1235394 3.7979853,10.1046836 C3.80785667,10.0865859 3.8358484,10.0776731 3.85690275,10.0667096 C3.86336402,10.0633175 3.87376013,10.0651253 3.88172706,10.0671567 C3.97980026,10.0913096 4.07907758,10.1114483 4.17546032,10.141326 C4.40188074,10.2113645 4.63553035,10.2481527 4.86764463,10.2896257 C5.04383381,10.3211168 5.22118919,10.2885371 5.39468706,10.2491149 C5.41425472,10.2446731 5.42864402,10.2167005 5.45381849,10.1910022 C5.37108682,10.1017775 5.28869558,10.0173249 5.21234737,9.9277406 C5.19431454,9.90668819 5.19639406,9.86843239 5.18930105,9.83807844 C5.21999381,9.83084717 5.25529205,9.81025162 5.28091296,9.81863951 C5.43288038,9.86910303 5.58524609,9.92015942 5.73241351,9.9825973 C5.93681813,10.0693533 6.15247381,10.1173286 6.36833327,10.1454665 L6.80671989,10.2097996 C6.95310785,10.2300526 7.10017837,10.2455381 7.24920184,10.2455284 C7.57358846,10.245577 7.86282275,10.1437655 8.13259637,9.97359703 C8.17545351,9.94668382 8.1871515,9.87416686 8.14796706,9.83998347 C8.05944475,9.7622666 7.97140828,9.6815075 7.87281083,9.61820455 C7.60780804,9.44789996 7.3244422,9.3275146 7.00834299,9.27401863 C6.71797168,9.22486726 6.43372171,9.1388694 6.14659564,9.07033741 C5.98246384,9.03122621 5.817516,8.99583762 5.65357825,8.95643492 C5.60453217,8.94454799 5.55547637,8.92866636 5.51023868,8.90667122 C5.49363418,8.89851657 5.48320889,8.8684445 5.47941023,8.84665347 C5.47751551,8.83610782 5.4950236,8.81394743 5.50769327,8.81032209 C5.56430798,8.79347822 5.622565,8.78311728 5.67949096,8.76737172 C5.72812901,8.75392973 5.77688378,8.73928248 5.82304402,8.71932839 C5.84352548,8.71041561 5.87453874,8.68328856 5.87164366,8.67101291 C5.8649684,8.64194193 5.84738251,8.60361809 5.82299588,8.59187696 C5.52654214,8.44907847 5.22974895,8.30680486 4.92965168,8.17170417 C4.45934117,7.96022794 3.98969108,7.74739093 3.5374129,7.49877656 C3.41153278,7.4295059 3.28324342,7.3613724 3.18926068,7.24855849 C3.17050907,7.22617454 3.15726603,7.18358381 3.16587442,7.15857561 C3.17472597,7.13216783 3.21183089,7.09898553 3.2381808,7.09754704 C3.32137837,7.0931733 3.4078698,7.09041294 3.48855114,7.10799548 C3.82482056,7.18191207 4.09984062,7.07645578 4.34023308,6.84875774 C4.31473861,6.71189787 4.23306615,6.62726069 4.14707029,6.54525748 C4.05553618,6.457792 3.96671284,6.36748839 3.87208913,6.28336632 C3.77115004,6.19373335 3.67392208,6.09488632 3.55908925,6.02714164 C3.31694798,5.8843626 3.11356366,5.6925974 2.8922146,5.5239646 C2.8042467,5.45680302 2.71897934,5.38857235 2.61803053,5.34327961 C2.5007977,5.29079446 2.40069412,5.21381622 2.30565266,5.1295484 C2.29661679,5.12148124 2.29407089,5.09582186 2.29992962,5.08415849 C2.30631308,5.07152316 2.32696913,5.05704117 2.34015381,5.05820747 C2.39846919,5.06306723 2.46247795,5.05995701 2.51292317,5.08396411 C2.62989339,5.13994826 2.72689764,5.07803521 2.8289932,5.04693291 C2.87051928,5.03420041 2.8976264,4.95848569 2.88198384,4.91572002 C2.85278749,4.83611754 2.81740171,4.76050009 2.75667709,4.69771229 C2.49218931,4.42401196 2.24889205,4.12941476 1.95637363,3.8837065 C1.88592305,3.82461213 1.80004342,3.78417911 1.7258039,3.72906971 C1.70372925,3.71254663 1.68094554,3.66929498 1.68815478,3.6489813 C1.69581096,3.62789004 1.73857083,3.60981179 1.7673008,3.60757632 C1.86713254,3.59970354 1.96885849,3.62293311 2.06614433,3.59610733 C2.06949655,3.57297503 2.07954251,3.55217532 2.07305254,3.54245588 C1.86513083,3.23366823 1.62368937,2.95180357 1.36106664,2.68928063 C1.00650226,2.33490869 0.61099442,2.03399387 0.155850347,1.81695805 C0.110117581,1.79518643 0.0644815934,1.77127655 0.0239077332,1.74153493 C0.00817764201,1.72987156 -0.0029085586,1.69721415 0.000676608573,1.67699764 C0.00713788517,1.64035526 0.0397253624,1.62266582 0.0760142378,1.62509568 C0.100789922,1.62674796 0.124516609,1.63977206 0.149369618,1.6450206 C0.372807916,1.6924516 0.587491441,1.76554203 0.793800499,1.86370869 C1.22869655,2.07073347 1.6657008,2.27357884 2.09814871,2.48565773 C2.28266469,2.57614599 2.47769302,2.62532649 2.67505327,2.67071645 C2.70715491,2.67820046 2.74241424,2.67363229 2.77614798,2.67256316 C2.81842202,2.6712996 2.85498323,2.61628742 2.83417156,2.58178329 C2.79932074,2.52424399 2.75959211,2.46971779 2.72257424,2.41353921 C2.70226785,2.38253413 2.70294773,2.38214531 2.75285898,2.30788858 C2.76858907,2.30837452 2.78799187,2.30332041 2.79946615,2.31070721 C2.92762956,2.39264238 3.05682251,2.4730224 3.18126457,2.56030327 C3.36178737,2.68704516 3.54577861,2.80610869 3.75619709,2.8778384 C3.83567333,2.9048585 3.91186591,2.93168428 4.00160257,2.90281741 C4.07217959,2.88017104 4.15206384,2.88833542 4.22681886,2.8760889 C4.27765266,2.86773014 4.31622482,2.81611973 4.30959868,2.76382901 C4.3024867,2.70609532 4.28876755,2.64807008 4.26857789,2.59364105 C4.24498737,2.53056165 4.2095729,2.47195326 4.18250421,2.40984584 C4.16090567,2.36027652 4.16872719,2.31167917 4.19825375,2.26055475 C4.22458421,2.27348163 4.2496901,2.27999368 4.26663454,2.29544764 C4.29782287,2.32382852 4.32576597,2.35619433 4.35242664,2.38904618 C4.62112159,2.72077174 4.95201813,2.98446098 5.28824865,3.24173539 C5.47068512,3.38120982 5.67323393,3.48705488 5.88615892,3.5716143 C6.00435369,3.61865653 6.12663892,3.65034198 6.25603612,3.6501476 C6.35750968,3.65005043 6.45932317,3.65471577 6.56068974,3.66249133 C6.65020269,3.66939215 6.72659953,3.63722072 6.80091685,3.59523258 C6.87958676,3.55091181 6.92467855,3.48773525 6.93278165,3.39277602 C6.94309071,3.27196299 6.93608524,3.15649566 6.88534871,3.04520768 C6.85734725,2.98378062 6.8249543,2.92361712 6.80512402,2.85956576 C6.79741922,2.83478113 6.81843466,2.80105454 6.82584816,2.77325685 C6.85600646,2.77675589 6.87575892,2.77354845 6.88809837,2.78151844 C7.10143138,2.91885457 7.31654287,3.05395521 7.48142263,3.25281561 C7.53550165,3.31783888 7.59455527,3.37887718 7.65036415,3.44263689 C7.73953716,3.54430259 7.81941168,3.6507308 7.88568427,3.77134945 C8.01577156,4.00811574 8.16892415,4.23185799 8.27759722,4.48116246 C8.30078944,4.53423076 8.34218907,4.57942629 8.37592281,4.62938441 C8.41315418,4.58797943 8.3918377,4.54706047 8.38060561,4.50798818 C8.36928694,4.46823557 8.38780561,4.44218738 8.41723491,4.4236232 C8.45180463,4.40185157 8.48585886,4.4156532 8.50381387,4.44665833 C8.58834299,4.5928392 8.67984792,4.73620139 8.7500067,4.8891859 C8.88796366,5.18971195 9.03819199,5.48051852 9.22218275,5.75713469 C9.34334117,5.93937478 9.46097229,6.12511392 9.57879746,6.31038648 C9.64214579,6.4099236 9.69709922,6.51550619 9.74763199,6.62227458 C9.80272159,6.73940396 9.88132342,6.83731793 9.97022457,6.92862264 C9.99373728,6.95273663 10.0184157,6.97919305 10.0478552,6.99325709 C10.1879593,7.06004931 10.3218452,7.04600467 10.3765463,6.87741072 C10.4497071,6.65166629 10.4845876,6.41367528 10.4559252,6.17721026 C10.411135,5.806704 10.3140724,5.44815271 10.1499697,5.11030385 L10.1278173,5.06462235 L10.1278173,5.06462235 C9.99286287,4.72463523 9.8068991,4.41361211 9.59193351,4.11882052 C9.56865424,4.08694069 9.55810251,4.04456379 9.54747345,4.00539429 C9.54028366,3.97866578 9.59581047,3.93560851 9.61657302,3.95047927 C9.67799746,3.99441128 9.74141387,4.03707978 9.79689156,4.08810699 C9.86519503,4.150992 9.93087478,4.21815353 9.98955928,4.29007762 C10.063595,4.3806631 10.1564796,4.39796377 10.2630635,4.38007995 C10.3091172,4.37220717 10.3422489,4.3445067 10.3470095,4.29853359 C10.3540052,4.23137201 10.362458,4.16216939 10.3537134,4.09607698 C10.3096031,3.75803375 10.2223539,3.43223708 10.0352245,3.14347156 L9.95495973,3.03550982 L9.95495973,3.03550982 L9.77668244,2.83118492 L9.77668244,2.83118492 C9.73898469,2.78589218 9.69623454,2.7430293 9.6675819,2.69239086 C9.654796,2.6695501 9.66276293,2.62620129 9.67613193,2.5995699 C9.69463114,2.56263591 9.73840159,2.56788445 9.76521789,2.58625425 C9.89055381,2.67246595 10.0153066,2.75974682 10.1352016,2.85324815 C10.2059338,2.90845471 10.2680186,2.89970719 10.3464264,2.86996562 C10.4891542,2.81563375 10.5729057,2.63349087 10.5518221,2.50013972 C10.543952,2.45027881 10.5373453,2.39896 10.5406484,2.34900192 C10.5526965,2.16812255 10.5086829,1.99754582 10.4590348,1.82609435 C10.4076373,1.64803365 10.3770316,1.46346086 10.3185417,1.28812158 C10.2651041,1.12843069 10.2013672,0.968545362 10.1158669,0.824308377 C9.99121083,0.614562188 9.88511284,0.391014371 9.71291685,0.211204134 C9.65554396,0.15142935 9.63873521,0.0801856292 9.70363782,0 Z" id="path-1"></path>
    </defs>
    <g id="Mockups" stroke="none" stroke-width="1" fill="none" fill-rule="evenodd">
        <g id="Rectangle">
            <mask id="mask-2" fill="white">
                <use xlink:href="#path-1"></use>
            </mask>
            <use id="Mask" fill="#EF3D43" fill-rule="nonzero" xlink:href="#path-1"></use>
        </g>
    </g>
</svg>