<?xml version="1.0" encoding="UTF-8"?>
<svg width="1440px" height="142px" viewBox="0 0 1440 142" version="1.1" xmlns="http://www.w3.org/2000/svg" xmlns:xlink="http://www.w3.org/1999/xlink">
    <title>Mountain Divider</title>
    <g id="Mockups" stroke="none" stroke-width="1" fill="none" fill-rule="evenodd">
        <g id="Home" transform="translate(0.000000, -3980.000000)" fill="#f8fafc">
            <g id="Courses-Section" transform="translate(0.000000, 3980.089866)">
                <path d="M0,119.973568 C9.73534829,114.214537 14.6030224,111.335022 14.6030224,111.335022 C14.6030224,111.335022 16.4176841,112.136232 20.0470075,113.738653 C31.0981379,101.863098 37.5326921,95.9253212 39.35067,95.9253212 C42.0776369,95.9253212 43.282437,98.3160185 44.811568,98.3160185 C46.340699,98.3160185 47.8748045,95.9253212 49.4238331,95.9253212 C50.9728617,95.9253212 56.1561881,102.292555 60.6162365,102.292555 C65.0762849,102.292555 68.159419,98.3160185 69.7701302,98.3160185 C71.3808414,98.3160185 84.059596,100.449042 86.1647628,100.449042 C88.2699295,100.449042 111.307378,86.2242433 113.783635,86.2242433 C116.259892,86.2242433 122.469935,89.6963756 125.657531,89.6963756 C128.845128,89.6963756 131.209958,89.6963756 133.839427,89.6963756 C136.468896,89.6963756 138.641714,94.10668 140.760809,94.10668 C142.879904,94.10668 173.148143,94.10668 174.892168,94.10668 C176.636193,94.10668 184.362433,86.2242433 186.391989,86.2242433 C188.421545,86.2242433 192.724402,86.2242433 194.828574,86.2242433 C196.932746,86.2242433 196.203499,76.3379465 198.977225,75.0159218 C201.750951,73.6938971 204.911686,73.6938971 206.466684,73.6938971 C208.021682,73.6938971 210.03333,64.7547263 213.074679,64.7547263 C216.116028,64.7547263 223.595538,70.5986533 225.499739,70.5986533 C227.40394,70.5986533 230.036393,67.6070482 230.036393,67.6070482 C230.036393,67.6070482 234.276573,73.6938971 236.734922,73.6938971 C239.193272,73.6938971 243.311081,73.6938971 245.758487,73.6938971 C248.205892,73.6938971 257.852252,80.1793506 260.070835,80.1793506 C261.54989,80.1793506 266.485823,80.1793506 274.878633,80.1793506 C297.431243,95.1144937 309.431821,101.871057 310.880367,100.449042 C313.053186,98.3160185 321.417144,95.9253212 324.928077,95.9253212 C328.439009,95.9253212 331.944968,98.3160185 334.387399,98.3160185 C336.82983,98.3160185 344.430715,95.9253212 347.384515,95.9253212 C350.338315,95.9253212 353.814427,98.3160185 356.521496,98.3160185 C359.228565,98.3160185 365.781842,94.10668 369.061962,94.10668 C372.342082,94.10668 376.451933,95.9253212 379.542031,95.9253212 C382.632129,95.9253212 391.054786,92.3641471 391.054786,92.3641471 C391.054786,92.3641471 395.528763,94.10668 396.973329,94.10668 C397.936373,94.10668 400.873923,92.6365785 405.785979,89.6963756 C424.162286,101.569643 433.940834,107.506277 435.121621,107.506277 C436.892801,107.506277 444.640972,104.023443 446.185412,104.023443 C447.215038,104.023443 449.946397,104.023443 454.379489,104.023443 C465.694914,95.6789255 472.137473,91.506667 473.707166,91.506667 C476.061705,91.506667 481.259441,95.9253212 482.880723,95.9253212 C484.502005,95.9253212 493.203681,89.6963756 496.304464,89.6963756 C499.405248,89.6963756 502.031985,92.3641471 504.751259,92.3641471 C507.470532,92.3641471 517.627357,100.449042 521.334228,100.449042 C525.041098,100.449042 539.248964,90.6467813 544.01811,90.6467813 C548.787256,90.6467813 560.724461,106.505693 562.96103,106.505693 C564.452075,106.505693 569.82334,106.505693 579.074822,106.505693 C586.585609,113.621802 591.246345,117.179856 593.057029,117.179856 C595.773056,117.179856 599.021032,112.191004 601.071446,112.191004 C603.121859,112.191004 610.955532,117.179856 612.831695,117.179856 C614.707858,117.179856 623.191992,112.191004 625.66829,112.191004 C628.144587,112.191004 648.460402,119.973568 659.184892,119.973568 C666.334552,119.973568 671.179279,118.139153 673.719071,114.470323 L683.987914,115.586714 C688.409101,107.877866 691.138115,104.023443 692.174957,104.023443 C693.211798,104.023443 694.243769,104.850859 695.27087,106.505693 C716.228848,84.6311624 727.224454,73.6938971 728.257687,73.6938971 C729.290921,73.6938971 730.661652,74.3958708 732.369878,75.7998182 C737.004278,70.3379715 740.484227,67.6070482 742.809724,67.6070482 C745.135222,67.6070482 754.01259,73.3285411 769.44183,84.7715269 C772.631001,76.6579001 775.226171,71.6189013 777.22734,69.6545305 C780.229093,66.7079744 798.478801,57.1502013 802.540124,53.6246158 C805.247673,51.2742254 809.450777,45.4031199 815.149436,36.0112992 C826.134399,30.955164 832.584534,27.6552376 834.499841,26.11152 C836.415147,24.5678024 841.928553,20.3425112 851.040059,13.4356466 C855.459082,8.18938771 858.086901,5.56625828 858.923517,5.56625828 C860.178442,5.56625828 867.583524,8.66866531 869.843903,8.66866531 C872.104283,8.66866531 884.690325,0 887.077875,0 C888.669574,0 896.883855,6.4111722 911.720716,19.2335166 L918.388213,19.2335166 C930.292047,32.3181379 937.6551,39.2269867 940.477372,39.9600632 C943.299645,40.6931397 946.948071,41.9464407 951.422651,43.7199662 L977.908105,65.5813022 C980.846183,64.0628382 982.960092,63.3036062 984.24983,63.3036062 C985.539568,63.3036062 990.763099,66.7670365 999.920422,73.6938971 C1019.5396,51.2046745 1030.504,39.9600632 1032.81362,39.9600632 C1036.27806,39.9600632 1047.41003,51.6532101 1054.76208,53.6246158 C1062.11413,55.5960215 1072.22496,56.869345 1072.22496,56.869345 C1072.22496,56.869345 1079.9329,63.1795027 1095.3488,75.7998182 C1105.17859,68.9874742 1111.48604,65.5813022 1114.27115,65.5813022 C1117.05626,65.5813022 1124.02789,68.7261754 1135.18602,75.0159218 C1146.42424,68.7261754 1152.77841,65.5813022 1154.24853,65.5813022 C1156.45371,65.5813022 1174.63361,72.3835448 1182.76438,72.3835448 C1190.89514,72.3835448 1206.08627,71.0731924 1207.16532,72.3835448 C1208.24438,73.6938971 1218.15065,81.2459414 1220.30226,81.2459414 C1222.45386,81.2459414 1241.69496,79.1127598 1244.43696,80.1793506 C1246.26496,80.8904111 1253.85584,86.3776571 1267.20959,96.6410884 C1278.1675,97.1182665 1283.64645,97.1182665 1283.64645,96.6410884 C1283.64645,95.9253212 1291.65221,87.3571367 1292.7713,87.3571367 C1293.8904,87.3571367 1295.09554,88.5119486 1296.43921,88.5119486 C1297.78288,88.5119486 1319.69238,67.6070482 1321.52038,67.6070482 C1323.34838,67.6070482 1336.43607,75.7998182 1339.28955,75.7998182 C1342.14303,75.7998182 1358.62589,75.8777436 1360.7131,77.0352613 C1362.80031,78.1927789 1370.95055,84.7715269 1375.91072,84.7715269 C1380.8709,84.7715269 1386.2997,79.2907702 1388.39828,79.2907702 C1390.49685,79.2907702 1403.51636,82.4364691 1405.76754,82.4364691 C1408.01872,82.4364691 1417.81784,82.028984 1420.53603,83.4002554 C1423.25422,84.7715269 1428.45142,92.3641471 1430.45529,92.3641471 C1431.79121,92.3641471 1434.97278,90.6951436 1440,87.3571367 L1440,141.910134 L0,141.910134 L0,119.973568 Z" id="Mountain-Divider"></path>
            </g>
        </g>
    </g>
</svg>