<?xml version="1.0" encoding="UTF-8"?>
<svg width="1441px" height="372px" viewBox="0 0 1441 372" version="1.1" xmlns="http://www.w3.org/2000/svg" xmlns:xlink="http://www.w3.org/1999/xlink">
    <title>Mountains</title>
    <g id="Mockups" stroke="none" stroke-width="1" fill="none" fill-rule="evenodd">
        <g id="Home" transform="translate(0.000000, -6707.000000)">
            <g id="Group-7" transform="translate(0.000000, 6067.000000)">
                <g id="Mountains" transform="translate(0.000000, 640.372109)">
                    <path d="M0.158385144,161.726802 L13.7421223,151.74165 L18.881672,151.74165 C29.5374524,136.908536 36.3932846,129.49198 39.4491687,129.49198 C42.5050527,129.49198 46.2570814,129.49198 50.7052546,129.49198 C55.1219583,135.441458 57.9787736,138.416197 59.2757005,138.416197 C61.2210908,138.416197 72.2762008,133.002339 74.2981194,133.002339 C76.320038,133.002339 85.6736465,134.723217 87.7205977,134.723217 C89.7675489,134.723217 106.556554,118.497104 109.792196,116.949183 C113.027838,115.401263 142.549852,127.965316 160.41955,127.965316 C178.289248,127.965316 186.429848,115.027327 187.783754,115.027327 C189.13766,115.027327 193.308091,116.949183 194.538979,116.949183 C195.769868,116.949183 207.849168,87.9503078 213.813363,87.9503078 C219.777558,87.9503078 255.496928,107.515756 257.819953,107.515756 C260.142978,107.515756 275.041664,107.515756 276.091603,107.515756 C277.141542,107.515756 306.229419,134.723217 308.449453,134.723217 C310.669486,134.723217 364.21135,136.444096 368.695046,134.723217 C373.178741,133.002339 404.518837,119.266233 405.930676,119.266233 C407.342514,119.266233 432.914384,143.448389 445.881985,143.448389 C458.849585,143.448389 470.477584,124.838555 472.653989,124.838555 C474.830395,124.838555 481.09212,127.965316 483.353636,127.965316 C485.615153,127.965316 492.433317,121.594878 498.52482,121.594878 C504.616324,121.594878 518.716828,133.002339 521.652794,133.002339 C524.58876,133.002339 541.369898,121.594878 543.543442,121.594878 C545.716987,121.594878 559.552861,141.543925 562.9623,143.448389 C566.37174,145.352853 576.19024,143.448389 578.400975,143.448389 C580.611711,143.448389 589.734305,158.450273 592.194651,158.450273 C594.654998,158.450273 598.760344,150.23721 599.861063,150.23721 C600.961782,150.23721 610.546406,156.13902 612.957402,156.13902 C615.368399,156.13902 621.9956,150.23721 624.793529,150.23721 C627.591458,150.23721 646.028323,161.726802 655.98486,161.726802 C665.941396,161.726802 670.677564,151.74165 672.656569,151.74165 C674.635575,151.74165 682.266941,153.688629 683.964866,153.688629 C685.662791,153.688629 688.548692,140.3854 690.542717,140.3854 C692.536742,140.3854 694.765359,143.448389 696.46543,143.448389 C698.165501,143.448389 730.870946,89.6161102 743.47307,89.6161102 C756.075195,89.6161102 765.709168,113.778941 768.090126,113.778941 C770.471083,113.778941 775.064207,95.0956725 776.953811,93.3689968 C778.843414,91.6423211 791.955488,80.9556771 801.841218,68.7955129 C811.726948,56.6353487 811.259196,51.9529366 812.412126,50.6011631 C813.565056,49.2493896 836.106552,36.8689221 843.039866,28.6375007 C849.97318,20.4060792 851.178321,8.46718464 852.684568,7.07579518 C854.190815,5.68440571 867.548924,12.2480923 869.931312,12.2480923 C872.3137,12.2480923 883.793649,0 886.97994,0 C890.166232,0 907.503809,25.1242423 910.082166,25.1242423 C912.660524,25.1242423 916.05995,25.1242423 917.486808,25.1242423 C918.913666,25.1242423 937.477125,51.0311411 941.191962,53.2786216 C944.9068,55.5261021 951.917357,57.3580982 954.2318,59.6819119 C956.546242,62.0057255 973.343114,87.9503078 976.424985,87.9503078 C979.506855,87.9503078 980.812126,84.7249898 983.846792,84.7249898 C985.869902,84.7249898 991.480065,90.0476986 1000.67728,100.693116 C1018.42992,70.587571 1028.88806,55.5347983 1032.05171,55.5347983 C1036.79717,55.5347983 1045.28894,67.0446811 1051.698,70.464214 C1058.10706,73.8837468 1070.52109,77.001812 1074.32175,80.8634009 C1076.85552,83.4377935 1083.69848,90.7517675 1094.85062,102.805323 C1102.82434,92.9019795 1108.74515,87.9503078 1112.61304,87.9503078 C1116.48093,87.9503078 1123.87985,91.7119448 1134.8098,99.2352186 C1144.53914,90.6014098 1150.75437,86.8397729 1153.45551,87.9503078 C1157.50721,89.6161102 1176.69577,99.2352186 1180.4335,99.2352186 C1184.17122,99.2352186 1205.17214,95.6651143 1209.51064,99.2352186 C1213.84915,102.805323 1216.47757,106.142725 1219.33916,107.515756 C1221.24688,108.43111 1230.69561,108.43111 1247.68535,107.515756 C1257.46428,122.166572 1266.58902,129.49198 1275.05957,129.49198 C1287.7654,129.49198 1289.99116,121.583283 1291.68551,119.266233 C1293.37986,116.949183 1295.44898,121.583283 1297.05536,119.266233 C1298.66173,116.949183 1313.88656,95.1555795 1319.14126,93.3689968 C1324.39596,91.5824141 1335.17213,102.805323 1337.6897,102.805323 C1340.20726,102.805323 1357.74152,102.514484 1360.38282,104.368704 C1363.02412,106.222923 1369.42245,113.778941 1373.2224,113.778941 C1377.02234,113.778941 1387.9573,107.515756 1395.32117,107.515756 C1402.68505,107.515756 1427.07609,124.838555 1429.95341,124.838555 C1431.87162,124.838555 1435.27328,122.981114 1440.15839,119.266233 L1440.15839,371 L0.158385144,371 L0.158385144,161.726802 Z" id="Path-3" fill="#8AB6C8" transform="translate(720.158385, 185.500000) scale(-1, 1) translate(-720.158385, -185.500000) "></path>
                    <path d="M0,182.225097 L13.5837372,174.841063 L18.7232869,174.841063 C29.3790673,163.871954 36.2348995,158.387399 39.2907835,158.387399 C42.3466676,158.387399 46.0986962,158.387399 50.5468694,158.387399 C54.9635731,162.787047 57.8203884,164.986871 59.1173153,164.986871 C61.0627057,164.986871 72.1178156,160.983315 74.1397342,160.983315 C76.1616528,160.983315 85.5152614,162.255907 87.5622126,162.255907 C89.6091638,162.255907 106.398169,150.256672 109.633811,149.111983 C112.869453,147.967293 142.391467,157.258429 160.261165,157.258429 C178.130863,157.258429 186.271463,147.690767 187.625369,147.690767 C188.979275,147.690767 193.149705,149.111983 194.380594,149.111983 C195.611482,149.111983 207.690783,127.667272 213.654978,127.667272 C219.619173,127.667272 255.338543,142.135949 257.661568,142.135949 C259.984593,142.135949 274.883279,142.135949 275.933218,142.135949 C276.983157,142.135949 306.071034,162.255907 308.291068,162.255907 C310.511101,162.255907 364.052965,163.528499 368.53666,162.255907 C373.020356,160.983315 404.360452,150.825445 405.77229,150.825445 C407.184129,150.825445 432.755999,168.708184 445.723599,168.708184 C458.6912,168.708184 470.319199,154.946185 472.495604,154.946185 C474.67201,154.946185 480.933735,157.258429 483.195251,157.258429 C485.456767,157.258429 492.274932,152.547481 498.366435,152.547481 C504.457939,152.547481 518.558443,160.983315 521.494409,160.983315 C524.430375,160.983315 541.211512,152.547481 543.385057,152.547481 C545.558602,152.547481 559.394475,167.29983 562.803915,168.708184 C566.213355,170.116538 576.031854,168.708184 578.24259,168.708184 C580.453326,168.708184 589.57592,179.802099 592.036266,179.802099 C594.496613,179.802099 598.601959,173.728527 599.702678,173.728527 C600.803397,173.728527 610.388021,178.092925 612.799017,178.092925 C615.210014,178.092925 621.837215,173.728527 624.635144,173.728527 C627.433073,173.728527 645.869938,182.225097 655.826475,182.225097 C665.783011,182.225097 670.519179,174.841063 672.498184,174.841063 C674.47719,174.841063 682.108556,176.280856 683.806481,176.280856 C685.504406,176.280856 688.390307,166.443099 690.384332,166.443099 C692.378357,166.443099 694.606974,168.708184 696.307045,168.708184 C698.007115,168.708184 730.712561,128.899135 743.314685,128.899135 C755.916809,128.899135 765.550783,146.767584 767.931741,146.767584 C770.312698,146.767584 774.905822,132.95128 776.795426,131.6744 C778.685029,130.397521 791.797103,122.494732 801.682833,113.502273 C811.568563,104.509814 811.100811,101.047163 812.253741,100.047525 C813.406671,99.0478865 835.948167,89.8925127 842.881481,83.8053645 C849.814795,77.7182163 851.019936,68.8893863 852.526183,67.8604518 C854.03243,66.8315172 867.390539,71.685373 869.772927,71.685373 C872.155315,71.685373 883.635263,62.6278909 886.821555,62.6278909 C890.007847,62.6278909 907.345424,81.2073048 909.923781,81.2073048 C912.502139,81.2073048 915.901565,81.2073048 917.328423,81.2073048 C918.755281,81.2073048 937.31874,100.365494 941.033577,102.027509 C944.748415,103.689525 951.758972,105.044288 954.073414,106.762752 C956.387857,108.481216 973.184729,127.667272 976.266599,127.667272 C979.34847,127.667272 980.653741,125.282145 983.688407,125.282145 C985.711517,125.282145 991.32168,129.218296 1000.51889,137.090598 C1018.27154,114.827503 1028.72968,103.695955 1031.89332,103.695955 C1036.63879,103.695955 1045.13056,112.207531 1051.53962,114.73628 C1057.94868,117.26503 1070.3627,119.570843 1074.16336,122.426494 C1076.69714,124.330261 1083.5401,129.738956 1094.69224,138.652577 C1102.66595,131.32904 1108.58676,127.667272 1112.45465,127.667272 C1116.32255,127.667272 1123.72147,130.449008 1134.65141,136.01248 C1144.38075,129.627766 1150.59599,126.84603 1153.29712,127.667272 C1157.34883,128.899135 1176.53739,136.01248 1180.27511,136.01248 C1184.01283,136.01248 1205.01375,133.372383 1209.35226,136.01248 C1213.69077,138.652577 1216.31919,141.120591 1219.18077,142.135949 C1221.08849,142.812855 1230.53723,142.812855 1247.52697,142.135949 C1257.30589,152.970249 1266.43063,158.387399 1274.90119,158.387399 C1287.60702,158.387399 1289.83277,152.538906 1291.52712,150.825445 C1293.22147,149.111983 1295.29059,152.538906 1296.89697,150.825445 C1298.50335,149.111983 1313.72817,132.995581 1318.98287,131.6744 C1324.23757,130.35322 1335.01375,138.652577 1337.53131,138.652577 C1340.04888,138.652577 1357.58314,138.437501 1360.22443,139.8087 C1362.86573,141.179898 1369.26406,146.767584 1373.06401,146.767584 C1376.86396,146.767584 1387.79891,142.135949 1395.16279,142.135949 C1402.52666,142.135949 1426.91771,154.946185 1429.79503,154.946185 C1431.71324,154.946185 1435.1149,153.572605 1440,150.825445 L1440,371 L0,371 L0,182.225097 Z" id="Path-3" fill="#1C3252"></path>
                </g>
            </g>
        </g>
    </g>
</svg>