<?xml version="1.0" encoding="UTF-8"?>
<svg width="16px" height="16px" viewBox="0 0 16 16" version="1.1" xmlns="http://www.w3.org/2000/svg" xmlns:xlink="http://www.w3.org/1999/xlink">
    <title>play</title>
    <g id="Page-1" stroke="none" stroke-width="1" fill="none" fill-rule="evenodd">
        <g id="play">
            <path d="M8,16 C12.4183,16 16,12.4183 16,8 C16,3.58172 12.4183,0 8,0 C3.58172,0 0,3.58172 0,8 C0,12.4183 3.58172,16 8,16 Z" id="Shape" fill="#EF3D43"></path>
            <path d="M7.5547,5.16795 C7.24784,4.96338 6.8533,4.94431 6.52814,5.11833 C6.20298,5.29235 6,5.63121 6,6.00000106 L6,10.0000011 C6,10.3688 6.20298,10.7077 6.52814,10.8817 C6.8533,11.0557 7.24784,11.0366 7.5547,10.8321 L10.5547,8.8321 C10.8329,8.6466 11,8.3344 11,8.00000106 C11,7.66565 10.8329,7.35342 10.5547,7.16795 L7.5547,5.16795 Z" id="Path" fill="#FFFFFF"></path>
        </g>
    </g>
</svg>