<?xml version="1.0" encoding="UTF-8"?>
<svg width="138px" height="74px" viewBox="0 0 138 74" version="1.1" xmlns="http://www.w3.org/2000/svg" xmlns:xlink="http://www.w3.org/1999/xlink">
    <title>Fill 1</title>
    <g id="Mockups" stroke="none" stroke-width="1" fill="none" fill-rule="evenodd">
        <path d="M13.2167056,56.303087 C13.3801056,55.380087 13.4653056,54.433087 13.5896056,53.524187 C13.7791056,52.136687 13.9605056,50.748187 14.1450056,49.359787 C14.3465056,47.834887 14.5490056,46.310987 14.7505056,44.786087 C14.8017056,44.403887 14.8127056,42.813787 15.0182056,42.019187 C15.0413056,42.018187 15.0653056,42.016187 15.0884056,42.015187 C15.3069056,41.998187 15.5265056,41.987087 15.7461056,41.973087 C15.5075056,43.152887 15.6418056,44.459087 15.6378056,45.649887 C15.6338056,47.143687 15.6328056,48.638487 15.7340056,50.128287 C15.7431056,50.267687 15.9406056,50.267687 15.9506056,50.128287 C16.0518056,48.638487 16.0508056,47.143687 16.0468056,45.649887 C16.0428056,44.455087 16.1782056,43.143787 15.9365056,41.959987 C16.3887056,41.929887 16.8418056,41.897787 17.2950056,41.872787 C17.2338056,43.709687 17.1937056,45.581687 17.3782056,47.399487 C17.3922056,47.533887 17.5727056,47.533887 17.5867056,47.399487 C17.7712056,45.575587 17.7311056,43.696587 17.6699056,41.854687 C18.0168056,41.836587 18.3637056,41.822587 18.7106056,41.806587 C18.7416056,43.411687 18.8068056,45.038887 19.0534056,46.609987 C19.0755056,46.748387 19.2790056,46.704287 19.2860056,46.577887 C19.3773056,44.999787 19.2800056,43.379587 19.1527056,41.786487 C19.3281056,41.779487 19.5026056,41.769387 19.6780056,41.762387 C20.9733056,41.713287 22.2696056,41.690187 23.5649056,41.684187 C23.3644056,44.490187 23.2852056,47.322287 23.5218056,50.127287 C23.5298056,50.219587 23.6641056,50.221587 23.6661056,50.127287 C23.7233056,47.312187 23.6992056,44.497187 23.7904056,41.682187 C25.3303056,41.677087 26.8702056,41.699187 28.4091056,41.749387 C34.3602056,41.939987 40.2922056,42.561987 46.1581056,43.578187 C57.7895056,45.593687 69.0521056,49.330687 79.7091056,54.385887 C76.6653056,58.060687 73.6046056,61.723487 70.6180056,65.451387 C65.5482056,64.622787 60.4783056,63.793087 55.4085056,62.964487 C56.8251056,63.082787 58.2417056,63.205187 59.6553056,63.333587 C59.7605056,63.343687 59.7856056,63.163087 59.6803056,63.147987 C55.9088056,62.618287 52.1513056,62.165887 48.3717056,61.813787 C41.5685056,60.702187 34.7572056,59.649787 27.9460056,58.598387 C28.0643056,58.567287 28.1816056,58.537187 28.2999056,58.506087 C28.3861056,58.483087 28.3490056,58.356687 28.2638056,58.374687 C28.0021056,58.427887 27.7384056,58.474987 27.4768056,58.526187 C22.7217056,57.792887 17.9677056,57.058487 13.2167056,56.303087 Z M12.8547056,53.424787 C12.7254056,54.394987 12.5419056,55.394187 12.4617056,56.389387 C10.6812056,56.651187 8.90670563,57.274187 7.14630563,57.607287 C6.69510563,57.692487 6.23800563,57.757687 5.77780563,57.812887 C5.42290563,57.156787 5.04600563,56.512787 4.67300563,55.867687 C4.09860563,54.875487 3.57120563,53.860187 2.91260563,52.948287 C4.78630563,51.009087 6.39740563,48.771887 8.06760563,46.663087 C9.17340563,45.266687 10.2692056,43.862087 11.3589056,42.454587 C12.3434056,42.152687 13.4292056,42.111487 14.4638056,42.054287 C14.1661056,42.863887 14.1701056,43.883187 14.0528056,44.691787 C13.8322056,46.213687 13.6337056,47.738587 13.4242056,49.262487 C13.2337056,50.649887 13.0402056,52.036387 12.8547056,53.424787 Z M12.8668056,40.504387 C16.0298056,36.377087 19.1096056,32.183687 22.0681056,27.907887 C25.0486056,23.601087 27.8958056,19.202987 30.6237056,14.731687 C32.0644056,12.370087 33.4619056,9.982387 34.8294056,7.577687 C35.5051056,6.389887 36.1698056,5.196087 36.8305056,3.999187 C37.4731056,2.833487 38.3643056,1.603487 38.6380056,0.281287 C44.4247056,2.150287 50.5071056,3.301987 56.4983056,4.277087 C62.5265056,5.258287 68.6079056,5.912387 74.7034056,6.296587 C86.8391056,7.060987 99.0470056,6.686787 111.127006,5.315387 C106.398006,16.694987 100.181006,27.377187 93.0338056,37.399387 C89.5359056,42.305187 85.7874056,46.998187 81.9748056,51.639087 C81.9006056,51.624087 81.8134056,51.665187 81.8094056,51.766487 C81.8074056,51.792587 81.8064056,51.818687 81.8054056,51.845787 C81.2840056,52.480787 80.7607056,53.114787 80.2364056,53.747887 C69.2325056,48.444887 57.4858056,44.740987 45.4433056,42.715487 C39.5092056,41.718287 33.5050056,41.165487 27.4898056,41.044087 C24.6937056,40.987887 21.8966056,41.043087 19.1026056,41.180487 C19.0855056,40.978887 19.0695056,40.778287 19.0524056,40.578587 C19.0324056,40.349887 18.6885056,40.342887 18.6915056,40.578587 C18.6945056,40.784287 18.6975056,40.991887 18.7005056,41.198587 C18.5672056,41.205587 18.4339056,41.209587 18.3005056,41.217687 C18.0830056,41.228687 17.8664056,41.246787 17.6499056,41.259787 C17.6479056,41.214687 17.6459056,41.168487 17.6449056,41.123387 C17.6379056,40.913687 17.3271056,40.913687 17.3200056,41.123387 C17.3180056,41.176487 17.3160056,41.229687 17.3150056,41.281887 C16.1130056,41.360087 14.9119056,41.452387 13.7129056,41.563787 C13.0873056,41.621987 12.4647056,41.662087 11.8692056,41.794487 C12.2011056,41.364087 12.5359056,40.935787 12.8668056,40.504387 Z M111.581006,6.051787 C112.406006,10.167987 114.077006,14.111687 115.716006,17.952987 C117.939006,23.163687 120.233006,28.344287 122.496006,33.536987 C123.426006,35.668887 124.355006,37.801687 125.284006,39.933487 C125.278006,39.944587 125.270006,39.953587 125.265006,39.966587 C124.835006,41.270787 124.264006,42.344287 123.253006,43.291287 C123.137006,43.400687 123.012006,43.501987 122.884006,43.599287 C122.367006,42.423487 121.604006,41.341087 120.969006,40.228487 C120.206006,38.892187 119.501006,37.525787 118.767006,36.173487 C118.716006,36.079187 118.551006,36.144387 118.591006,36.247687 C119.547006,38.741687 120.828006,41.750387 122.696006,43.732687 C122.532006,43.847087 122.361006,43.952387 122.186006,44.047687 C122.178006,44.040687 122.173006,44.031687 122.163006,44.024687 C119.596006,42.104487 117.326006,40.291687 115.466006,37.633187 C113.536006,34.875287 112.373006,31.778387 111.399006,28.581087 C111.374006,28.500787 111.234006,28.511887 111.246006,28.602187 C111.668006,31.952887 113.091006,35.141187 114.967006,37.924087 C116.627006,40.386987 119.018006,42.993387 121.776006,44.254387 C121.652006,44.310587 121.528006,44.366787 121.403006,44.414887 C121.057006,44.546287 120.694006,44.555387 120.362006,44.668687 C120.324006,44.619587 120.284006,44.571387 120.241006,44.524287 C119.925006,44.175187 119.411006,43.966487 118.893006,43.783887 C118.936006,43.565187 118.982006,43.346487 119.024006,43.126787 C119.053006,42.972287 118.821006,42.905087 118.786006,43.061587 C118.749006,43.223087 118.706006,43.382587 118.664006,43.541087 C118.660006,43.541087 118.656006,43.541087 118.653006,43.540087 C118.640006,43.589287 118.628006,43.638387 118.615006,43.686587 C118.301006,43.578187 117.998006,43.471887 117.752006,43.341487 C117.620006,43.271287 117.492006,43.196987 117.364006,43.119787 C117.424006,42.842887 117.485006,42.565987 117.542006,42.289087 C117.582006,42.095487 117.300006,42.014187 117.244006,42.206787 C117.176006,42.440587 117.111006,42.675287 117.044006,42.909087 C116.653006,42.643187 116.285006,42.344287 115.936006,42.024287 C116.008006,41.724287 116.082006,41.425287 116.152006,41.125387 C116.198006,40.933787 115.908006,40.853487 115.859006,41.044087 C115.797006,41.286887 115.732006,41.528687 115.670006,41.771387 C115.433006,41.539687 115.202006,41.300887 114.980006,41.056087 C114.800006,40.858487 114.628006,40.654887 114.462006,40.448187 C114.557006,40.121087 114.654006,39.794087 114.744006,39.466987 C114.804006,39.247287 114.497006,39.180087 114.415006,39.375787 C114.323006,39.595487 114.235006,39.818187 114.146006,40.039887 C111.276006,36.175487 110.559006,30.945687 110.246006,26.284687 C110.105006,24.170987 110.070006,22.065187 110.115006,19.964487 C110.671006,15.352587 111.376006,10.686687 111.581006,6.051787 Z M125.943006,41.445387 C125.930006,41.461387 125.918006,41.480487 125.908006,41.501587 C124.929006,43.617387 123.564006,45.212487 121.458006,45.999987 C121.422006,45.852487 121.192006,45.868587 121.176006,46.037087 C121.175006,46.057187 121.172006,46.077287 121.170006,46.097287 C121.061006,46.133387 120.950006,46.167487 120.836006,46.199687 C120.841006,45.872587 120.798006,45.554587 120.687006,45.252587 C121.573006,45.222487 122.650006,44.555387 123.207006,44.084887 C124.319006,43.145887 125.171006,41.872787 125.509006,40.450187 C125.654006,40.781287 125.799006,41.113287 125.943006,41.445387 Z M129.315006,49.145087 C129.511006,49.593487 129.711006,50.040987 129.910006,50.488387 C129.864006,50.514487 129.828006,50.558587 129.817006,50.624887 C129.086006,55.008887 129.039006,59.641787 129.092006,64.111087 C124.941006,64.379987 120.791006,64.671887 116.643006,64.983887 C116.667006,64.970887 116.690006,64.952787 116.709006,64.925787 C117.303006,64.057987 117.867006,63.125987 118.296006,62.164887 C118.344006,62.056487 118.202006,61.915087 118.115006,62.025387 C117.464006,62.866087 116.900006,63.807187 116.411006,64.751187 C116.352006,64.865587 116.418006,64.962887 116.508006,64.993987 C115.773006,65.049087 115.040006,65.106287 114.306006,65.162487 C115.496006,62.901287 116.128006,60.179487 116.972006,57.778787 C117.918006,55.089187 118.863006,52.399487 119.807006,49.708887 C120.107006,48.851187 120.614006,47.800787 120.781006,46.785487 C120.888006,46.769487 120.997006,46.755387 121.103006,46.733387 C120.855006,49.146087 120.504006,51.529787 120.192006,53.935487 C120.176006,54.058887 120.365006,54.072887 120.400006,53.963587 C121.134006,51.661187 121.446006,49.082887 121.463006,46.646087 C121.864006,46.537687 122.253006,46.388287 122.627006,46.203687 C122.172006,47.709487 122.220006,49.254487 122.232006,50.822487 C122.250006,52.993487 121.853006,55.077087 121.371006,57.182887 C121.330006,57.359487 121.577006,57.422687 121.637006,57.256087 C122.233006,55.634887 122.496006,53.919387 122.618006,52.201887 C122.761006,50.154287 122.479006,48.110787 122.865006,46.079287 C124.392006,45.247587 125.633006,43.826987 126.289006,42.233887 C127.295006,44.539287 128.302006,46.843687 129.315006,49.145087 Z M111.764006,65.359087 C113.113006,61.769587 113.791006,57.856087 114.705006,54.138087 C115.546006,50.709087 116.451006,47.282087 117.212006,43.832087 C117.601006,44.060787 118.007006,44.256387 118.424006,44.425987 C118.418006,44.451987 118.411006,44.478087 118.404006,44.504187 C118.156006,45.467287 117.924006,46.435387 117.679006,47.399487 C117.233006,49.167187 116.780006,50.932787 116.319006,52.696487 C115.361006,56.360287 114.129006,60.023987 113.442006,63.748987 C113.406006,63.945587 113.670006,64.016787 113.740006,63.831187 C114.968006,60.604887 115.692006,57.130687 116.532006,53.785987 C117.301006,50.721187 118.099006,47.646287 118.741006,44.548387 C118.853006,44.590487 118.964006,44.634587 119.078006,44.674787 C121.012006,45.357887 119.737006,47.778687 119.290006,49.045787 C118.342006,51.734387 117.393006,54.423987 116.447006,57.113687 C116.002006,58.378687 115.557006,59.644787 115.112006,60.909887 C114.618006,62.311387 113.962006,63.742987 113.707006,65.208687 C113.060006,65.258787 112.412006,65.307987 111.764006,65.359087 Z M108.373006,65.634987 C108.731006,62.790887 109.253006,60.218587 110.381006,57.567087 C110.434006,57.441687 110.268006,57.334387 110.193006,57.457787 C108.734006,59.840387 107.880006,62.854087 108.058006,65.661087 C107.531006,65.705287 107.003006,65.746387 106.476006,65.790487 C106.768006,64.617787 106.936006,63.413887 107.229006,62.240087 C107.285006,62.013387 107.349006,61.788687 107.413006,61.564987 C107.446006,61.670287 107.604006,61.689387 107.656006,61.561987 C109.116006,57.997487 110.030006,54.161187 111.188006,50.489387 C112.161006,47.399487 113.288006,44.336687 114.229006,41.232687 C114.615006,41.689187 115.032006,42.120587 115.476006,42.520787 C114.597006,45.894687 113.657006,49.250387 112.673006,52.595187 C111.554006,56.393387 110.084006,60.148387 109.197006,64.006787 C109.168006,64.136187 109.360006,64.232487 109.420006,64.101087 C110.995006,60.646987 111.948006,56.840787 113.004006,53.203087 C114.008006,49.748987 114.909006,46.264887 115.755006,42.768587 C116.085006,43.049487 116.427006,43.317387 116.785006,43.565187 C116.804006,43.578187 116.825006,43.589287 116.845006,43.602287 C115.883006,47.044387 115.066006,50.534587 114.190006,53.996687 C113.469006,56.848787 112.574006,59.737087 111.972006,62.646387 C111.948006,62.639387 111.919006,62.640387 111.890006,62.655487 C110.991006,63.119987 110.826006,64.290687 111.015006,65.181587 C111.025006,65.227687 111.101006,65.217687 111.099006,65.169487 C111.049006,64.318787 111.409006,63.609487 111.908006,62.964487 C111.747006,63.767987 111.609006,64.573587 111.506006,65.380187 C110.461006,65.463487 109.417006,65.549787 108.373006,65.634987 Z M106.193006,65.813587 C105.702006,65.854687 105.212006,65.894887 104.720006,65.934987 C104.792006,65.447387 104.866006,64.960887 104.934006,64.473287 C104.903006,64.775287 104.883006,65.077187 104.877006,65.376187 C104.875006,65.457487 104.991006,65.468487 105.014006,65.394287 C105.738006,63.044687 106.288006,60.688187 107.122006,58.363687 C107.166006,58.245287 106.979006,58.168087 106.921006,58.278387 C106.084006,59.873487 105.378006,61.729487 105.058006,63.576387 C105.340006,61.525787 105.601006,59.471187 105.849006,57.414587 C106.940006,50.203487 109.874006,43.555187 111.513006,36.472387 C111.823006,37.274987 112.183006,38.060487 112.598006,38.822987 C112.278006,39.265387 112.148006,40.141187 112.050006,40.442187 C111.418006,42.374387 110.799006,44.309587 110.201006,46.252787 C109.010006,50.127287 107.668006,53.989687 106.688006,57.924287 C106.645006,58.094787 106.888006,58.155987 106.947006,57.995487 C108.064006,54.981787 108.923006,51.864787 109.874006,48.795987 C110.122006,47.996387 111.969006,41.012987 112.798006,39.187087 C112.815006,39.216187 112.830006,39.247287 112.847006,39.276387 C113.149006,39.796087 113.488006,40.291687 113.854006,40.765187 C112.636006,43.895287 111.675006,47.155687 110.648006,50.340887 C109.781006,53.029587 108.803006,55.759287 108.075006,58.522187 C108.073006,58.527187 108.069006,58.529187 108.066006,58.534187 C106.995006,60.669087 106.245006,63.406887 106.193006,65.813587 Z M108.994006,29.648487 C109.171006,28.121587 109.347006,26.594687 109.523006,25.068787 C109.526006,25.142087 109.528006,25.215287 109.532006,25.288487 C109.580006,26.370987 109.652006,27.461487 109.760006,28.550987 C109.709006,28.528887 109.646006,28.538987 109.607006,28.599187 C109.387006,28.942287 109.187006,29.293387 108.994006,29.648487 Z M109.157006,29.833087 C109.134006,29.877287 109.609006,28.910187 109.626006,29.121787 C109.662006,29.571287 109.660006,30.023687 109.660006,30.475187 C109.659006,31.484387 109.529006,32.492687 109.364006,33.485787 C109.038006,35.463187 108.455006,37.381287 107.884006,39.303487 C107.976006,38.491887 108.067006,37.679287 108.161006,36.867687 C108.416006,34.680687 108.665006,32.494687 108.918006,30.307587 C108.996006,30.149087 109.074006,29.990587 109.157006,29.833087 Z M110.531006,33.300287 C110.774006,34.315487 111.074006,35.313687 111.441006,36.287787 C111.392006,36.276787 111.337006,36.295887 111.321006,36.360087 C110.052006,41.459387 107.817006,46.434387 106.529006,51.572887 C106.770006,49.419987 107.005006,47.266087 107.240006,45.113187 C107.756006,43.486887 108.203006,41.836587 108.663006,40.197387 C109.307006,37.908987 110.014006,35.621687 110.531006,33.300287 Z M110.379006,32.902987 C109.594006,35.092987 109.000006,37.359287 108.355006,39.594487 C108.084006,40.529487 107.806006,41.465487 107.538006,42.403487 C107.621006,41.653087 107.704006,40.903687 107.787006,40.153187 C108.818006,36.720187 109.950006,33.318287 109.889006,29.704687 C110.023006,30.759087 110.198006,31.806487 110.428006,32.840787 C110.407006,32.853787 110.389006,32.872887 110.379006,32.902987 Z M103.907006,66.001187 C97.2264056,66.542887 90.4954056,67.047587 83.8766056,68.049787 C83.9488056,67.854087 83.8876056,67.622387 83.6260056,67.579287 C83.5207056,67.562187 83.4154056,67.545187 83.3112056,67.528087 C83.3433056,66.767687 83.3663056,66.003187 83.3854056,65.238787 C83.4676056,65.311987 83.6099056,65.314987 83.6310056,65.176587 C83.9879056,62.822987 83.9097056,60.397187 83.9388056,58.021587 C83.9678056,55.566687 84.0972056,53.084687 83.9688056,50.630887 C87.2391056,46.541787 90.4011056,42.370387 93.4398056,38.142787 C95.4118056,35.399987 97.3156056,32.604987 99.1343056,29.757887 C98.9037056,32.267887 98.5879056,34.787987 98.4966056,37.307087 C98.4936056,37.402387 98.6520056,37.427487 98.6661056,37.330187 C99.0240056,34.792987 99.1563056,32.214787 99.3749056,29.663587 C99.3819056,29.586287 99.3237056,29.550187 99.2636056,29.552187 C103.825006,22.387187 107.832006,14.880087 110.943006,6.970687 C110.714006,8.274887 110.518006,9.590187 110.346006,10.910387 C109.939006,13.193687 109.686006,15.513187 109.557006,17.838587 C109.455006,18.772587 109.351006,19.704587 109.240006,20.631587 C108.776006,24.485987 108.318006,28.341287 107.859006,32.195687 C107.553006,33.046387 107.298006,33.918187 107.090006,34.807087 C107.070006,34.893387 107.198006,34.928487 107.222006,34.844187 C107.381006,34.281387 107.555006,33.724587 107.742006,33.173787 C107.616006,34.236287 107.487006,35.297687 107.362006,36.360087 C106.194006,46.224687 104.788006,56.103387 103.907006,66.001187 Z M83.2320056,57.513987 C83.2149056,58.586387 83.1758056,59.670887 83.1578056,60.755387 C82.7016056,62.919287 82.5914056,65.269887 82.8881056,67.458887 C82.6806056,67.424787 82.4731056,67.390687 82.2645056,67.356587 C82.2595056,67.335487 82.2575056,67.313387 82.2515056,67.292287 C82.2264056,67.189987 82.0720056,67.189987 82.0470056,67.292287 C82.0450056,67.301387 82.0440056,67.310387 82.0410056,67.320387 C78.4208056,66.726487 74.8006056,66.135587 71.1795056,65.543687 C74.8076056,61.607087 78.3306056,57.542087 81.7412056,53.382687 C81.6800056,54.984787 81.6299056,56.586987 81.5307056,58.189087 C81.3973056,60.318987 81.1096056,62.448787 81.0565056,64.581587 C81.0545056,64.689987 81.2239056,64.715087 81.2459056,64.607687 C82.0249056,60.871687 82.1813056,56.790587 82.1091056,52.933287 C82.5232056,52.427587 82.9342056,51.918987 83.3443056,51.410387 C83.2270056,53.438887 83.2641056,55.486487 83.2320056,57.513987 Z M69.7378056,66.555987 C69.5022056,66.333287 69.2536056,66.126587 68.9929056,65.958087 C69.3528056,66.017287 69.7127056,66.076387 70.0726056,66.135587 C69.9614056,66.276087 69.8491056,66.415487 69.7378056,66.555987 Z M130.251006,51.248887 C131.018006,52.953287 131.808006,54.647787 132.648006,56.318087 C131.759006,56.209787 130.853006,56.175687 129.966006,56.300087 C130.064006,54.615687 130.201006,52.932287 130.251006,51.248887 Z M17.6469056,60.670087 C18.6504056,60.528587 19.6499056,60.360087 20.6344056,60.205587 C22.7167056,59.876487 24.7549056,59.414087 26.7880056,58.898387 C31.1691056,59.657787 35.5502056,60.418287 39.9343056,61.163687 C35.6575056,60.869687 31.3456056,60.646987 27.0888056,60.895787 C26.9404056,60.904787 26.9444056,61.110487 27.0888056,61.124587 C32.4975056,61.672287 37.9673056,61.693387 43.3921056,62.061587 C44.4798056,62.135787 45.5686056,62.212987 46.6573056,62.291287 C47.0132056,62.349487 47.3692056,62.409687 47.7251056,62.467887 C54.4431056,63.571387 61.1601056,64.672887 67.8771056,65.775487 C67.8671056,65.823587 67.8731056,65.875787 67.9072056,65.926987 C68.4315056,66.720487 69.3448056,67.301387 69.9924056,68.009587 C70.8075056,68.898487 71.4171056,70.037187 72.3725056,70.780487 C72.5148056,70.890887 72.7635056,70.796587 72.7013056,70.588887 C72.3665056,69.481387 71.5233056,68.550387 70.7794056,67.687587 C70.5479056,67.419787 70.2852056,67.112787 69.9975056,66.815787 C70.1839056,66.615187 70.3694056,66.415487 70.5559056,66.214887 C71.6547056,66.395487 72.7524056,66.574987 73.8512056,66.755587 C73.6206056,67.428787 73.9826056,68.181187 74.5710056,68.541387 C74.7766056,68.667787 74.9640056,68.344687 74.7585056,68.219287 C74.2613056,67.914287 74.1099056,67.332487 74.0437056,66.787687 C76.6774056,67.219087 79.3100056,67.652487 81.9427056,68.083887 C81.9186056,68.647687 81.9758056,69.228587 81.9908056,69.776287 C81.9968056,69.979987 82.3016056,69.979987 82.3076056,69.776287 C82.3227056,69.250587 82.3768056,68.694787 82.3598056,68.152087 C82.6706056,68.203287 82.9823056,68.254387 83.2941056,68.305587 C83.2821056,68.440987 83.3683056,68.596487 83.5297056,68.587487 C84.0420056,68.560387 84.5543056,68.525287 85.0666056,68.493187 C84.9473056,68.534287 84.8290056,68.578487 84.7117056,68.625587 C84.5794056,68.677787 84.6365056,68.895487 84.7719056,68.842287 C85.1949056,68.672787 85.6210056,68.538287 86.0521056,68.432987 C88.6968056,68.254387 91.3405056,68.022687 93.9842056,67.771887 C93.3095056,68.425987 92.9947056,69.374987 92.9536056,70.318087 C92.8724056,69.913787 92.7591056,69.520487 92.5847056,69.162287 C92.5245056,69.037987 92.3601056,69.113187 92.3491056,69.226587 C92.2759056,69.954887 92.4383056,70.734387 92.6268056,71.463687 C91.7385056,71.567087 90.8473056,71.652287 89.9460056,71.703487 C88.0492056,71.811887 86.1484056,71.741587 84.2536056,71.861987 C82.5633056,71.969387 80.9181056,72.472987 79.3030056,72.950487 C79.1125056,73.007687 79.1938056,73.304587 79.3852056,73.248487 C81.1387056,72.733787 82.8711056,72.266287 84.7037056,72.152887 C86.6125056,72.035587 88.5324056,72.110787 90.4432056,72.006487 C91.1951056,71.964287 91.9601056,71.917187 92.7310056,71.858987 C92.7441056,71.907187 92.7571056,71.956287 92.7701056,72.003487 C92.8273056,72.215087 93.1802056,72.178987 93.1601056,71.951287 C93.1561056,71.910187 93.1521056,71.866987 93.1491056,71.825887 C96.0885056,71.587087 99.1032056,71.169787 101.831006,70.268887 C101.945006,70.230787 101.896006,70.079287 101.784006,70.094287 C98.8676056,70.487587 96.0123056,71.046387 93.1090056,71.407587 C93.1060056,71.368387 93.1020056,71.329287 93.0980056,71.290187 C93.2062056,71.337287 93.3496056,71.292187 93.3376056,71.140687 C93.2383056,69.847487 93.6794056,68.754987 94.4253056,67.730787 C97.5643056,67.430787 100.701006,67.109787 103.837006,66.821787 C103.809006,67.153887 103.779006,67.484987 103.752006,67.816987 C103.721006,68.204287 104.375006,68.295587 104.434006,67.909287 C104.492006,67.525087 104.545006,67.138887 104.601006,66.754587 C105.192006,66.701487 105.781006,66.647287 106.371006,66.598087 C113.942006,65.960087 121.520006,65.402287 129.103006,64.912687 C129.105006,65.078187 129.107006,65.244787 129.110006,65.410287 C129.117006,65.886787 129.870006,65.884787 129.848006,65.410287 C129.812006,63.036687 129.815006,60.665087 129.878006,58.291487 C129.888006,57.881087 129.906006,57.469787 129.926006,57.059487 C130.962006,57.076587 131.976006,57.079587 133.010006,57.216987 C133.042006,57.221987 133.071006,57.220987 133.100006,57.217987 C133.905006,58.817087 134.757006,60.451387 135.808006,61.903087 C135.235006,63.006587 134.741006,64.212487 134.576006,65.331087 C134.528006,65.656087 134.964006,65.905887 135.143006,65.570787 C135.551006,64.811387 135.780006,63.951587 136.092006,63.148987 C136.167006,62.956387 136.244006,62.765787 136.323006,62.575187 C136.401006,62.671487 136.475006,62.770787 136.554006,62.865087 C136.696006,63.032687 136.917006,62.818987 136.838006,62.646387 C136.745006,62.441787 136.646006,62.240087 136.547006,62.038487 C136.760006,61.536887 136.975006,61.038287 137.177006,60.533687 C137.290006,60.251787 136.853006,60.094187 136.704006,60.333987 C136.524006,60.624887 136.339006,60.934887 136.157006,61.257987 C135.254006,59.506387 134.225006,57.807887 133.348006,56.045187 C132.226006,53.789987 131.188006,51.493587 130.170006,49.190287 C127.946006,44.162087 125.766006,39.114887 123.561006,34.077687 C119.396006,24.562187 114.739006,15.160987 111.900006,5.145887 C112.032006,4.991387 112.008006,4.722487 111.822006,4.658287 C111.864006,4.542987 111.910006,4.429587 111.952006,4.314187 C112.028006,4.104487 111.746006,4.013287 111.622006,4.156687 C111.605006,4.092487 111.585006,4.029287 111.568006,3.965087 C111.522006,3.790487 111.222006,3.821587 111.245006,4.009187 C111.273006,4.235987 111.307006,4.460687 111.341006,4.686387 C99.3408056,6.064787 87.2331056,6.430987 75.1716056,5.757887 C68.9638056,5.410687 62.7712056,4.765687 56.6286056,3.806587 C50.5452056,2.856487 44.6082056,1.416887 38.6240056,0.00438700017 C38.5197056,-0.0207129998 38.4566056,0.0665870002 38.4646056,0.146787 C37.5964056,0.998587 37.0991056,2.224487 36.5127056,3.276887 C35.8450056,4.474687 35.1672056,5.666587 34.4855056,6.855387 C33.1040056,9.261087 31.6884056,11.647787 30.2468056,14.017387 C27.5209056,18.497687 24.6556056,22.892787 21.6751056,27.207687 C18.7226056,31.484387 15.6478056,35.673887 12.4968056,39.805087 C11.8552056,40.645787 11.2076056,41.480487 10.5589056,42.315187 C10.5208056,42.339287 10.4827056,42.363287 10.4456056,42.389387 C10.3704056,42.440587 10.3464056,42.512787 10.3554056,42.579987 C9.33780563,43.889187 8.31520563,45.195387 7.28460563,46.495587 C5.71260563,48.481987 4.00130563,50.408187 2.57070563,52.503887 C2.36820563,52.254087 2.15460563,52.010287 1.92000563,51.784587 C1.83280563,51.701287 1.68750563,51.784587 1.71850563,51.901987 C2.10250563,53.353587 2.92060563,54.548387 3.68650563,55.856587 C4.08750563,56.540787 4.48960563,57.231087 4.91360563,57.906187 C3.28050563,58.065687 1.62530563,58.160987 0.0764056348,58.581387 C-0.0198943652,58.607487 -0.0308943652,58.767987 0.0764056348,58.785987 C1.73560563,59.073987 3.57120563,58.782987 5.28160563,58.480087 C5.66150563,59.055887 6.06150563,59.617687 6.49760563,60.150387 C6.61190563,60.288887 6.86960563,60.140387 6.80340563,59.971887 C6.58290563,59.415087 6.32920563,58.874287 6.05650563,58.342587 C6.15280563,58.325587 6.25000563,58.308487 6.34530563,58.292487 C8.32230563,57.952387 10.5489056,57.588187 12.4367056,56.765587 C12.4146056,57.178887 12.4136056,57.591187 12.4467056,57.998487 C12.4477056,58.013587 12.4527056,58.025587 12.4567056,58.038587 C11.6206056,58.180087 10.7875056,58.335587 9.95340563,58.489087 C9.78900563,58.519187 9.85810563,58.770987 10.0226056,58.739887 C11.4291056,58.479087 12.8367056,58.230287 14.2272056,57.893187 C14.2944056,57.877087 14.2814056,57.761787 14.2112056,57.770787 C13.7350056,57.832987 13.2618056,57.906187 12.7886056,57.983487 C12.9530056,57.522987 13.0733056,57.044487 13.1685056,56.557887 C17.4885056,57.287187 21.8054056,58.033587 26.1223056,58.781987 C24.4130056,59.091987 22.6947056,59.368887 20.9833056,59.631787 C20.0790056,59.771187 19.1667056,59.879587 18.2524056,59.983887 C18.3336056,59.882587 18.4088056,59.777187 18.4740056,59.665887 C18.5381056,59.556487 18.4148056,59.457187 18.3116056,59.504387 C18.0449056,59.626687 17.8243056,59.830387 17.6268056,60.056087 C16.1521056,60.224687 14.6764056,60.400187 13.2297056,60.696187 C13.0633056,60.730287 13.1094056,60.979087 13.2688056,60.984087 C13.3931056,60.987087 13.5184056,60.984087 13.6427056,60.985087 C13.8603056,61.385387 14.2352056,61.708387 14.4658056,62.109687 C14.7265056,62.565187 14.8348056,63.089887 15.0754056,63.557387 C15.1245056,63.653687 15.2819056,63.631587 15.3059056,63.527287 C15.4443056,62.916287 15.2277056,62.368487 14.9330056,61.836787 C14.7716056,61.545887 14.5290056,61.207787 14.2332056,60.984087 C15.1826056,60.960987 16.1370056,60.869687 17.0885056,60.746287 C16.7947056,61.148587 16.5090056,61.609087 16.3887056,62.082587 C16.3486056,62.239087 16.5461056,62.302287 16.6343056,62.185987 C16.9351056,61.786687 17.1586056,61.324187 17.4524056,60.914887 C17.5125056,60.830587 17.5787056,60.749287 17.6469056,60.670087 L17.6469056,60.670087 Z" id="Fill-1" fill="#1C3252"></path>
    </g>
</svg>