<?xml version="1.0" encoding="UTF-8" standalone="no"?>
<!DOCTYPE svg PUBLIC "-//W3C//DTD SVG 1.1//EN" "http://www.w3.org/Graphics/SVG/1.1/DTD/svg11.dtd">
<svg width="100%" height="100%" viewBox="0 0 1222 467" version="1.1" xmlns="http://www.w3.org/2000/svg" xmlns:xlink="http://www.w3.org/1999/xlink" xml:space="preserve" xmlns:serif="http://www.serif.com/" style="fill-rule:evenodd;clip-rule:evenodd;stroke-linejoin:round;stroke-miterlimit:2;">
    <g transform="matrix(1,0,0,1,-119.963,-63.1333)">
        <g transform="matrix(4.16667,0,0,4.16667,0,0)">
            <g transform="matrix(0.24,0,0,0.24,0,0)">
                <path d="M610.831,421.658C620.913,421.684 629.507,425.001 636.617,431.608C643.746,438.25 647.779,446.796 648.717,457.271L633.196,460.567C632.2,452.471 629.546,446.254 625.25,441.925C620.967,437.629 615.939,435.463 610.172,435.446L610.104,435.446C599.508,435.446 591.592,440.808 586.363,451.529C581.129,462.246 578.517,473.871 578.517,486.383C578.517,496.033 580.708,503.346 585.113,508.304C589.508,513.271 595.067,515.746 601.788,515.746L601.859,515.746C613.979,515.713 623.359,507.584 629.996,491.367L642.558,496.163C639.225,506.492 633.767,514.638 626.167,520.6C618.6,526.535 609.98,529.518 600.301,529.542L600.187,529.542C587.725,529.542 578.246,524.625 571.75,514.8C565.258,504.967 562.008,494.079 562.008,482.146C562.008,467.013 566.492,453.15 575.462,440.55C584.429,427.95 596.179,421.658 610.712,421.658L610.831,421.658ZM701.818,421.658C709.053,421.671 715.825,423.233 722.104,426.35C728.408,429.471 733.308,434.363 736.825,441.012C740.325,447.658 742.079,455.746 742.079,465.254C742.079,468.628 741.751,472.452 741.111,476.728L741.096,476.829L666.463,476.829C666.129,480.033 665.967,482.671 665.967,484.746C665.967,494.025 668.4,501.558 673.271,507.329C678.142,513.108 684.746,515.996 693.083,515.996L693.151,515.996C698.861,515.986 704.031,514.702 708.642,512.146C713.283,509.579 718.275,504.292 723.608,496.287L736.662,502.496C726.263,520.16 711.663,529.015 692.873,529.05L692.763,529.05C680,529.05 669.592,524.887 661.537,516.563C653.492,508.237 649.463,496.979 649.463,482.796C649.463,465.337 654.467,450.796 664.483,439.138C674.496,427.488 686.912,421.658 701.733,421.658L701.818,421.658ZM1016.06,421.658C1023.31,421.671 1030.08,423.233 1036.35,426.35C1042.66,429.471 1047.57,434.363 1051.08,441.012C1054.58,447.658 1056.33,455.746 1056.33,465.254C1056.33,468.628 1056.01,472.452 1055.36,476.728L1055.34,476.829L980.704,476.829C980.379,480.033 980.217,482.671 980.217,484.746C980.217,494.025 982.65,501.558 987.525,507.329C992.392,513.108 998.992,515.996 1007.33,515.996L1007.4,515.996C1013.11,515.986 1018.28,514.702 1022.9,512.146C1027.53,509.579 1032.52,504.292 1037.86,496.287L1050.91,502.496C1040.52,520.16 1025.91,529.015 1007.13,529.05L1007.02,529.05C994.246,529.05 983.842,524.887 975.787,516.563C967.742,508.237 963.713,496.979 963.713,482.796C963.713,465.337 968.717,450.796 978.733,439.138C988.726,427.511 1001.11,421.682 1015.89,421.658L1015.98,421.658L1016.06,421.658ZM887.503,399.044C887.067,402.95 883.807,422.213 883.4,424.612L883.358,424.858L906.525,424.858L904.425,436.925L881.421,436.925L872.158,491.979C871.079,498.204 870.55,502.413 870.55,504.617C870.55,512.2 874.813,515.996 883.358,515.996L883.429,515.996C886.426,515.989 891.007,515.581 897.163,514.758L895.567,527.329C895.5,527.329 894.529,527.425 892.662,527.633C887.176,528.241 883.138,528.549 880.532,528.554L880.471,528.554C863.683,528.554 855.296,521.112 855.296,506.225C855.296,502.354 856.154,495.329 857.896,485.167L865.921,436.925L850.367,436.925L852.467,424.858L868.35,424.858L869.287,421.25C869.287,421.25 885.333,416.596 887.508,398.996L887.503,399.044ZM970.35,437.912L966.542,437.912C960.313,437.912 955.242,439.075 951.325,441.417C947.412,443.75 943.842,447.058 940.633,451.333C937.425,455.604 934.45,460.912 931.704,467.254C928.954,473.596 926.112,485.712 923.175,503.604L919.358,526.342L903.733,526.342L920.729,424.862L936.35,424.862L931.721,450.996L931.784,450.876C937.161,440.713 942.777,433.353 948.646,428.779C954.538,424.2 961.504,421.904 969.554,421.904L972.95,421.904L970.35,437.912ZM809.658,422.15C818.439,422.171 825.592,424.884 831.112,430.258C836.654,435.667 839.429,442.75 839.429,451.5C839.429,455.517 838.854,460.917 837.712,467.742L827.858,526.342L812.971,526.342L822.804,467.938C823.933,461.25 824.504,456.404 824.504,453.4C824.504,448.221 822.862,443.817 819.592,440.171C816.329,436.539 811.645,434.723 805.543,434.708L805.471,434.708C797.917,434.708 790.725,438.358 783.879,445.658C777.033,452.962 771.671,467.733 767.8,489.962L761.571,526.342L747.062,526.342L764.063,424.862L777.567,424.862L774.108,446.796L774.159,446.7C782.842,430.367 794.604,422.183 809.467,422.15L809.554,422.15L809.658,422.15ZM1040.33,465.057C1040.49,463.039 1040.57,461.525 1040.57,460.492C1040.57,452.358 1038.22,445.875 1033.55,441.012C1028.89,436.158 1022.81,433.721 1015.34,433.721C1006.87,433.721 999.675,436.85 993.767,443.092C987.867,449.342 984.175,456.729 982.717,465.254L1040.32,465.254L1040.33,465.057ZM726.082,465.057C726.238,463.039 726.317,461.525 726.317,460.492C726.317,452.358 723.979,445.875 719.312,441.012C714.633,436.158 708.562,433.721 701.092,433.721C692.617,433.721 685.425,436.85 679.521,443.092C673.617,449.342 669.925,456.729 668.458,465.254L726.067,465.254L726.082,465.057ZM191.533,282.842C170.879,282.842 153.788,289.667 140.258,303.329C126.721,316.988 119.963,334.433 119.963,355.65C119.963,373.296 125.792,387.217 137.458,397.417C149.121,407.617 163.525,412.725 180.679,412.725C200.429,412.725 217.433,406.183 231.704,393.092C245.967,380 253.104,361.787 253.104,338.454C253.104,322.762 247.55,309.567 236.458,298.875C225.363,288.179 210.388,282.842 191.533,282.842ZM834.617,282.842C813.967,282.842 796.875,289.667 783.342,303.329C769.808,316.988 763.046,334.433 763.046,355.65C763.046,373.296 768.867,387.217 780.542,397.417C792.204,407.617 806.608,412.725 823.763,412.725C843.504,412.725 860.517,406.183 874.783,393.092C889.054,380 896.192,361.787 896.192,338.454C896.192,322.762 890.633,309.567 879.542,298.875C868.45,288.179 853.467,282.842 834.617,282.842ZM695.354,282.842C674.708,282.842 657.621,289.667 644.083,303.329C630.55,316.988 623.783,334.433 623.783,355.65C623.783,373.296 629.608,387.217 641.275,397.417C652.946,407.617 667.346,412.725 684.496,412.725C704.25,412.725 721.262,406.183 735.529,393.092C749.783,380 756.925,361.787 756.925,338.454C756.925,322.762 751.375,309.567 740.283,298.875C729.183,288.179 714.208,282.842 695.354,282.842ZM579.192,249.029L572.308,299.817C567.092,288.067 557.017,282.183 542.096,282.183C524.646,282.183 510.329,290.379 499.163,306.754C487.996,323.133 482.4,341.467 482.4,361.758C482.4,378.137 486.429,390.725 494.475,399.529C502.517,408.325 512.104,412.725 523.246,412.725C537.546,412.725 549.737,405.408 559.817,390.779L557.096,409.146L600.892,409.146L625.967,249.029L579.192,249.029ZM339.721,347.062C336.279,367.617 329.179,377.896 318.438,377.896C312.779,377.896 309.95,374.821 309.95,368.692C309.95,367.221 310.475,363.175 311.537,356.558L323.375,285.771L276.112,285.771L263.292,363.142C261.662,372.692 260.846,379.3 260.846,382.967C260.846,391.387 263.817,398.446 269.771,404.146C275.725,409.863 283.917,412.725 294.35,412.725C311.75,412.725 325.35,404.146 335.146,387.004L331.558,409.146L376.012,409.146L396.504,285.771L349.742,285.771L339.721,347.062ZM460.079,317.338L482.271,317.338L487.637,285.771L465.45,285.771L469.062,266.767L424.133,267.625L420.246,285.771L403.042,285.771L397.792,317.338L414.792,317.338L407.475,361.35C406.008,370.067 405.279,376.013 405.279,379.188C405.279,386.771 406.8,392.879 409.85,397.525C412.908,402.179 416.854,405.767 421.7,408.283C426.538,410.804 433.963,412.075 443.975,412.075C452.025,412.075 460.454,411.092 469.242,409.146L474.617,376.592C470.225,377.679 466.358,378.221 463.025,378.221C455.383,378.221 451.563,375.221 451.563,369.229C451.563,368.104 451.925,365.383 452.679,361.087L460.079,317.338ZM1079.19,290.267C1033.13,304.992 1016.02,288.208 1006.23,285.042C1003.54,284.171 1001.43,283.308 1000.28,282.821L1000.28,282.796C1000.25,282.788 1000.23,282.783 1000.2,282.783C999.658,282.554 999.342,282.404 999.342,282.404C999.342,282.404 999.317,282.504 999.292,282.642C997.346,282.346 995.767,282.183 994.596,282.183C977.133,282.183 964.167,293.371 955.683,315.725L960.646,285.771L919.354,285.771L898.717,409.146L945.629,409.146L953.908,358.825C955.908,346.721 959.288,338.304 964.038,333.567C968.792,328.829 976.237,326.458 986.388,326.458C987.567,326.458 989.771,326.542 992.996,326.721C993.075,326.846 993.162,326.929 993.275,326.954C996.338,327.562 1008.69,331.375 1010.16,332.271C1111.2,369.042 1130.4,209.904 1281.15,267.504C1207.17,219.575 1128.26,274.596 1079.19,290.267ZM703.875,363.771C700.846,376.446 695.079,382.779 686.596,382.779C677.058,382.779 672.283,376.404 672.283,363.646C672.283,355.442 673.879,344.858 677.079,331.904C680.271,318.942 686.025,312.462 694.358,312.462C703.733,312.462 708.421,318.963 708.421,331.962C708.421,340.496 706.908,351.096 703.875,363.771ZM843.137,363.771C840.096,376.446 834.342,382.779 825.854,382.779C816.317,382.779 811.546,376.404 811.546,363.646C811.546,355.442 813.137,344.858 816.333,331.904C819.529,318.942 825.283,312.462 833.613,312.462C842.992,312.462 847.675,318.963 847.675,331.962C847.675,340.496 846.167,351.096 843.137,363.771ZM200.054,363.771C197.021,376.446 191.254,382.779 182.771,382.779C173.229,382.779 168.467,376.404 168.467,363.646C168.467,355.442 170.058,344.858 173.25,331.904C176.446,318.942 182.204,312.462 190.533,312.462C199.904,312.462 204.6,318.963 204.6,331.962C204.6,340.496 203.083,351.096 200.054,363.771ZM567.496,329.546L561.758,364.329C558.854,375.542 553.013,381.146 544.221,381.146C535.338,381.146 530.908,375.533 530.908,364.304C530.908,355.758 532.792,345.037 536.55,332.133C540.313,319.237 546.454,312.788 554.971,312.788C558.517,312.788 561.554,314.017 564.079,316.458C566.596,318.9 567.863,321.883 567.863,325.392C567.863,326.862 567.738,328.246 567.496,329.546ZM1137.43,108.075C1138.83,109.6 1187.9,162.958 1187.9,162.958L1189.4,161.779C1189.4,161.779 1171.53,134.679 1170.25,132.742C1172.17,132.092 1183.13,128.367 1184.35,127.95C1185.12,129.213 1218.83,184.212 1219.88,185.913C1218.08,186.829 1160.34,216.158 1160.34,216.158L1161.1,217.913C1161.1,217.913 1231.89,191.833 1233.32,191.308C1234.08,192.508 1271.08,250.783 1276.28,258.967C1257.08,246.371 1192.67,223.9 1139.17,252.054C1050.88,298.517 1013.27,274.083 1000.9,266.05C1000.9,266.05 1000.08,265.529 999.346,265.075C1000.62,263.433 1076.77,165.479 1077.61,164.404C1078.89,164.867 1157.58,192.962 1157.58,192.962L1158.33,191.204C1158.33,191.204 1095.35,159.258 1093.21,158.171C1094.77,156.408 1136.09,109.596 1137.43,108.075ZM1237.58,168.808L1286.5,263.083L1341.57,264.454C1341.57,153.271 1251.43,63.133 1140.27,63.133C1029.08,63.133 938.967,153.271 938.967,264.454L985.921,264.454L1068.15,150.146L1077.12,138.958L1091.99,142.475L1137.75,89.046L1168.94,120.833L1185.92,114.542L1226.05,173.488L1237.58,168.808ZM640.05,201.204C637.154,204.133 635.692,208.292 635.692,213.562C635.692,218.85 637.129,223.004 639.975,225.904C642.829,228.821 646.913,230.3 652.104,230.3C655.962,230.3 659.579,229.496 662.846,227.912L663.208,227.733L663.208,222.496L662.212,223.021C658.846,224.804 655.658,225.708 652.746,225.708C649.35,225.708 646.763,224.671 644.829,222.542C642.896,220.404 641.917,217.413 641.917,213.65C641.917,209.696 642.833,206.608 644.646,204.479C646.442,202.354 648.933,201.317 652.258,201.317C654.571,201.317 657.937,202.037 662.262,203.446L663.15,203.729L663.15,198.246L662.638,198.125C658.721,197.233 655.254,196.783 652.333,196.783C647.087,196.783 642.954,198.271 640.05,201.204ZM166.917,197.554L161.558,197.554L161.558,217.708C161.558,220.704 161.071,222.833 160.096,224.033C159.171,225.179 157.521,225.762 155.196,225.762C152.804,225.762 151.058,225.137 150.004,223.892C148.904,222.617 148.358,220.483 148.358,217.567L148.358,197.554L142.421,197.554L142.421,217.525C142.421,221.837 143.454,225.079 145.487,227.154C147.538,229.242 150.729,230.3 154.996,230.3C158.283,230.3 160.929,229.571 162.846,228.125C164.379,226.967 165.454,225.596 166.046,224.054C166.633,222.533 166.917,220.437 166.917,217.654L166.917,197.554ZM533.65,201.383C530.812,204.417 529.367,208.504 529.367,213.538C529.367,218.575 530.812,222.667 533.65,225.696C536.513,228.754 540.375,230.3 545.133,230.3C549.9,230.3 553.762,228.754 556.625,225.696C559.462,222.667 560.904,218.575 560.904,213.538C560.904,208.504 559.462,204.417 556.625,201.383C553.758,198.329 549.9,196.787 545.133,196.787C540.375,196.787 536.513,198.329 533.65,201.383ZM759.137,201.204C756.242,204.133 754.775,208.279 754.775,213.542C754.775,218.887 756.217,223.058 759.071,225.937C761.938,228.833 766.071,230.3 771.387,230.3C774.342,230.3 777.854,229.754 781.812,228.675L782.3,228.542L782.3,215L776.358,215L776.358,225.096C774.85,225.496 773.396,225.762 772.087,225.762C768.538,225.762 765.875,224.729 763.929,222.6C761.987,220.475 761.004,217.437 761.004,213.562C761.004,209.638 761.921,206.575 763.746,204.454C765.55,202.346 768.033,201.317 771.346,201.317C773.625,201.317 776.992,202.054 781.346,203.496L782.233,203.792L782.233,198.317L781.746,198.188C778.154,197.254 774.667,196.783 771.379,196.783C766.158,196.783 762.042,198.271 759.137,201.204ZM369.383,199.238C367.442,200.883 366.458,203.017 366.458,205.575C366.458,207.458 367.079,209.142 368.296,210.567C369.471,211.95 371.487,213.421 374.292,214.946L376.512,216.167C378.371,217.158 379.646,218.062 380.308,218.838C380.933,219.575 381.238,220.446 381.238,221.504C381.238,222.775 380.775,223.771 379.821,224.562C378.842,225.371 377.571,225.762 375.933,225.762C373.687,225.762 370.763,224.979 367.233,223.442L366.283,223.029L366.283,228.817L366.775,228.95C370.192,229.842 373.058,230.3 375.292,230.3C378.854,230.3 381.767,229.438 383.946,227.729C386.167,225.992 387.292,223.663 387.292,220.804C387.292,218.788 386.683,217.029 385.483,215.579C384.313,214.158 382.333,212.704 379.429,211.142L377.113,209.892C375.175,208.842 373.829,207.937 373.125,207.2C372.479,206.529 372.163,205.779 372.163,204.913C372.163,203.887 372.587,203.058 373.467,202.379C374.383,201.667 375.529,201.321 376.971,201.321C378.55,201.321 381.029,201.937 384.342,203.158L385.254,203.496L385.254,198.104L384.775,197.971C381.962,197.183 379.254,196.783 376.717,196.783C373.771,196.783 371.304,197.608 369.383,199.238ZM694.338,197.554L688.883,197.554L675.537,229.521L681.237,229.521C681.237,229.521 684.483,221.796 684.787,221.063L697.596,221.063C697.9,221.796 701.1,229.521 701.1,229.521L707.471,229.521L694.338,197.554ZM906.496,197.554L900.683,197.554C900.683,197.554 893.083,209.258 892.05,210.846C891.079,209.229 884.025,197.554 884.025,197.554L877.254,197.554C877.254,197.554 888.329,215.95 888.504,216.242L888.504,229.521L894.442,229.521L894.442,216.171C894.637,215.871 906.496,197.554 906.496,197.554ZM339.283,197.554L328.837,197.554L328.837,229.521L334.775,229.521L334.775,216.529L338.108,216.529C338.487,217.075 347.158,229.521 347.158,229.521L354.417,229.521C354.417,229.521 344.254,215.738 343.487,214.7C345.25,213.863 346.729,212.779 347.762,211.367C348.95,209.746 349.554,207.871 349.554,205.8C349.554,203.137 348.637,201.075 346.833,199.65C345.067,198.258 342.525,197.554 339.283,197.554ZM727.633,197.554L721.696,197.554L721.696,229.521L742.179,229.521L742.179,224.988L727.633,224.988L727.633,197.554ZM234.9,197.554L228.963,197.554L228.963,229.521L234.9,229.521L234.9,197.554ZM452.621,197.554L423.763,197.554L423.763,202.092L435.225,202.092L435.225,229.521L441.158,229.521L441.158,202.092L452.621,202.092L452.621,197.554ZM409.379,197.554L403.442,197.554L403.442,229.521L409.379,229.521L409.379,197.554ZM210.85,197.554L205.55,197.554L205.55,219.737C203.446,216.663 190.367,197.554 190.367,197.554L184.842,197.554L184.842,229.521L190.137,229.521L190.137,207.354C192.242,210.417 205.342,229.521 205.342,229.521L210.85,229.521L210.85,197.554ZM491.879,197.554L486.071,197.554C486.071,197.554 478.471,209.258 477.442,210.846C476.467,209.229 469.417,197.554 469.417,197.554L462.646,197.554C462.646,197.554 473.717,215.95 473.896,216.242L473.896,229.521L479.829,229.521L479.829,216.171C480.025,215.871 491.879,197.554 491.879,197.554ZM596.55,197.554L577.171,197.554L577.171,229.521L583.108,229.521L583.108,215.646L594.392,215.646L594.392,211.104L583.108,211.104L583.108,202.092L596.55,202.092L596.55,197.554ZM312.821,197.554L293.45,197.554L293.45,229.521L313.758,229.521L313.758,224.988L299.387,224.988L299.387,215.204L310.642,215.204L310.642,210.667L299.387,210.667L299.387,202.092L312.821,202.092L312.821,197.554ZM852.6,197.554L842.154,197.554L842.154,229.521L848.092,229.521L848.092,216.529L851.425,216.529C851.808,217.075 860.475,229.521 860.475,229.521L867.733,229.521C867.733,229.521 857.567,215.738 856.804,214.7C858.571,213.863 860.046,212.779 861.083,211.367C862.271,209.746 862.871,207.875 862.871,205.8C862.871,203.137 861.954,201.075 860.15,199.65C858.383,198.258 855.842,197.554 852.6,197.554ZM814.796,197.554L809.342,197.554L796,229.521L801.7,229.521C801.7,229.521 804.95,221.796 805.25,221.063L818.058,221.063C818.358,221.796 821.558,229.521 821.558,229.521L827.929,229.521L814.796,197.554ZM279.529,197.554L274.087,197.554C274.087,197.554 265.992,218.617 264.908,221.437C263.792,218.625 255.429,197.554 255.429,197.554L249.392,197.554L262.083,229.521L267.338,229.521L279.529,197.554ZM538.162,222.604C536.458,220.458 535.592,217.387 535.592,213.504C535.592,209.638 536.458,206.592 538.158,204.458C539.842,202.35 542.117,201.321 545.133,201.321C548.15,201.321 550.433,202.35 552.113,204.458C553.817,206.592 554.679,209.642 554.679,213.504C554.679,217.387 553.817,220.458 552.113,222.604C550.429,224.733 548.146,225.767 545.133,225.767C542.117,225.767 539.842,224.733 538.162,222.604ZM811.654,205.625C812.562,207.8 815.629,215.187 816.187,216.529L807.096,216.529C807.658,215.187 810.742,207.8 811.654,205.625ZM691.192,205.625C692.1,207.8 695.171,215.187 695.729,216.529L686.642,216.529C687.2,215.187 690.279,207.8 691.192,205.625ZM850.283,202.092C856.821,202.092 856.821,205.192 856.821,206.217C856.821,208.125 856.183,209.521 854.883,210.496C853.55,211.488 851.533,211.992 848.892,211.992L848.092,211.992L848.092,202.092L850.283,202.092ZM336.967,202.092C343.5,202.092 343.5,205.192 343.5,206.217C343.5,208.125 342.867,209.521 341.562,210.496C340.233,211.488 338.217,211.992 335.579,211.992L334.775,211.992L334.775,202.092L336.967,202.092Z" style="fill:rgb(138,182,200);fill-rule:nonzero;"/>
            </g>
        </g>
    </g>
</svg>
