<?xml version="1.0" encoding="UTF-8" standalone="no"?>
<!DOCTYPE svg PUBLIC "-//W3C//DTD SVG 1.1//EN" "http://www.w3.org/Graphics/SVG/1.1/DTD/svg11.dtd">
<svg width="100%" height="100%" viewBox="0 0 2083 557" version="1.1" xmlns="http://www.w3.org/2000/svg" xmlns:xlink="http://www.w3.org/1999/xlink" xml:space="preserve" xmlns:serif="http://www.serif.com/" style="fill-rule:evenodd;clip-rule:evenodd;stroke-linejoin:round;stroke-miterlimit:2;">
    <g>
        <path d="M234.874,155.534C235.325,156.689 235.811,157.823 236.297,158.925C253.3,197.5 270.37,236.203 292.262,272.23C297.188,280.337 304.814,289.409 314.083,287.395C317.728,286.602 320.763,284.149 323.546,281.665C351.914,256.335 369.054,220.753 395.177,193.114C400.799,187.167 409.293,181.203 416.466,185.141C423.776,189.155 423.104,199.787 420.841,207.814C413.044,235.472 398.566,260.698 384.228,285.6C368.072,313.658 351.839,341.832 331.741,367.216C323.629,377.461 312.901,388.105 299.866,387.164C290.831,386.511 283.199,380.295 277.06,373.634C265.62,361.22 257.135,346.43 248.751,331.779C233.195,304.596 217.639,277.414 202.083,250.231C194.394,236.796 186.706,223.361 179.017,209.926C175.083,203.052 171.15,196.178 167.216,189.304C165.726,186.7 159.963,172.115 155.291,176.679C132.725,198.796 121.8,229.795 125.496,261.57C126.925,273.904 129.498,286.279 133.092,298.451C137.504,313.439 143.446,327.938 150.778,341.641C181.94,399.943 244.428,449.628 311.982,432.454C342.592,424.674 367.629,404.313 389.357,381.544C411.636,358.203 431.159,332.063 447.557,303.984C465.549,273.128 479.373,237.514 476.576,200.858C470.756,124.544 382.394,119.623 325.622,122.237C300.451,123.396 275.359,125.228 250.632,130.352C244.13,131.699 236.857,133.845 233.897,139.79C231.468,144.668 232.828,150.308 234.874,155.534ZM1244.82,373.674C1232.55,370.769 1222.96,367.588 1216.06,364.134L1220.15,327.061C1244.14,338.694 1265.21,344.508 1283.39,344.508C1293.02,344.508 1300.56,342.646 1306.01,338.92C1311.47,335.197 1314.19,329.698 1314.19,322.429C1314.19,316.976 1312.69,312.478 1309.69,308.934C1306.69,305.391 1302.38,302.392 1296.75,299.939C1291.11,297.486 1282.11,294.079 1269.76,289.718C1258.13,285.722 1248.5,281.498 1240.87,277.042C1233.23,272.591 1227.19,266.867 1222.74,259.869C1218.28,252.875 1216.06,244.289 1216.06,234.11C1216.06,217.754 1222.06,204.581 1234.05,194.584C1246.04,184.593 1263.22,179.593 1285.57,179.593C1296.11,179.593 1306.6,180.776 1317.05,183.136C1327.5,185.5 1337.09,188.409 1345.81,191.859L1342.27,227.567C1331,222.661 1320.69,218.982 1311.33,216.528C1301.97,214.075 1292.66,212.848 1283.39,212.848C1273.03,212.848 1265.12,214.577 1259.67,218.027C1254.22,221.481 1251.5,226.477 1251.5,233.019C1251.5,238.109 1252.95,242.287 1255.86,245.559C1258.76,248.829 1262.71,251.555 1267.72,253.736C1272.71,255.917 1280.12,258.553 1289.93,261.641C1311.92,268.549 1327.96,276.496 1338.04,285.493C1348.13,294.488 1353.17,306.802 1353.17,322.429C1353.17,337.331 1347.99,350.325 1337.63,361.408C1327.28,372.495 1307.83,378.036 1279.3,378.036C1268.57,378.036 1257.08,376.579 1244.82,373.674ZM715.051,183.408L647.177,374.22L614.195,374.22L546.32,183.408L581.484,183.408L630.549,323.791L679.888,183.408L715.051,183.408ZM1106.21,183.408L1141.1,183.408L1141.1,374.22L1106.21,374.22L1106.21,183.408ZM776.925,183.408L811.817,183.408L811.817,374.22L776.925,374.22L776.925,183.408ZM1460.02,217.209L1406.05,217.209L1406.05,183.408L1548.88,183.408L1548.88,217.209L1494.91,217.209L1494.91,374.22L1460.02,374.22L1460.02,217.209ZM1811.66,183.408L1881.44,183.408C1901.79,183.408 1917.83,188.272 1929.55,197.991C1941.27,207.716 1947.13,222.116 1947.13,241.197C1947.13,254.464 1944.31,265.321 1938.68,273.771C1933.05,282.221 1925.05,288.994 1914.69,294.079L1957.76,374.22L1918.78,374.22L1881.98,303.346L1846.55,303.346L1846.55,374.22L1811.66,374.22L1811.66,183.408ZM894.682,183.408L964.465,183.408C984.815,183.408 1000.86,188.272 1012.58,197.991C1024.3,207.716 1030.16,222.116 1030.16,241.197C1030.16,254.464 1027.34,265.321 1021.71,273.771C1016.07,282.221 1008.08,288.994 997.72,294.079L1040.79,374.22L1001.81,374.22L965.009,303.346L929.574,303.346L929.574,374.22L894.682,374.22L894.682,183.408ZM1699.35,328.97L1629.84,328.97L1614.03,374.22L1580.23,374.22L1648.1,183.408L1681.09,183.408L1748.96,374.22L1715.16,374.22L1699.35,328.97ZM1688.45,298.44L1664.73,230.293L1640.74,298.44L1688.45,298.44ZM1872.17,274.18C1897.79,274.18 1910.61,263.822 1910.61,243.105C1910.61,233.113 1907.7,225.523 1901.88,220.344C1896.07,215.165 1886.62,212.575 1873.53,212.575L1846.55,212.575L1846.55,274.18L1872.17,274.18ZM955.196,274.18C980.82,274.18 993.632,263.822 993.632,243.105C993.632,233.113 990.722,225.523 984.909,220.344C979.091,215.165 969.644,212.575 956.56,212.575L929.574,212.575L929.574,274.18L955.196,274.18Z" style="fill:rgb(138,182,200);fill-rule:nonzero;"/>
    </g>
</svg>
